{
.appVersion = "3337";
.formatVersion = 3;
DisplayStrings = (
"இஈஉஊஎஏஐஒஓஔகஙசஜஞடணதநனபமயரறலளழவஶஷஸஹாிீுூெேைொோௌ/tauvowelsigntamil/pauuvowelsigntamil/rauvowelsigntamil/lllauvowelsigntamil/ivowelsign4tamil/ivowelsign3tamil/ivowelsign2tamil",
"இஎகசதப
மயரறழாி
ெை்/tauvowelsigntamil/pauuvowelsigntamil/rauvowelsigntamil/lllauvowelsigntamil  /ivowelsign4tamil"
);
customParameters = (
{
name = vendorID;
value = GOOG;
},
{
name = panose;
value = (
0,
0,
0,
0,
0,
0,
0,
0,
0,
0
);
},
{
name = unicodeRanges;
value = (
0,
1,
15,
20,
31,
32,
33,
38,
45,
57
);
},
{
name = blueScale;
value = 0.037000000476837;
},
{
name = glyphOrder;
value = (
.notdef,
NULL,
CR,
space,
uni0B82,
uni0B83,
uni0B85,
uni0B86,
uni0B87,
uni0B88,
uni0B89,
uni0B8A,
uni0B8E,
uni0B8F,
uni0B90,
uni0B92,
uni0B93,
uni0B94,
uni0B95,
uni0B99,
uni0B9A,
uni0B9C,
uni0B9E,
uni0B9F,
uni0BA3,
uni0BA4,
uni0BA8,
uni0BA9,
uni0BAA,
uni0BAE,
uni0BAF,
uni0BB0,
uni0BB1,
uni0BB2,
uni0BB3,
uni0BB4,
uni0BB5,
uni0BB6,
uni0BB7,
uni0BB8,
uni0BB9,
uni0BBE,
uni0BBF,
uni0BC0,
uni0BC1,
uni0BC2,
uni0BC6,
uni0BC7,
uni0BC8,
uni0BCA,
uni0BCB,
uni0BCC,
uni0BCD,
uni0BD0,
uni0BD7,
uni0BE6,
uni0BE7,
uni0BE8,
uni0BE9,
uni0BEA,
uni0BEB,
uni0BEC,
uni0BED,
uni0BEE,
uni0BEF,
uni0BF0,
uni0BF1,
uni0BF2,
uni0BF3,
uni0BF4,
uni0BF5,
uni0BF6,
uni0BF7,
uni0BF8,
uni0BF9,
uni0BFA,
tchatamil,
kaprehalftamil,
ngaprehalftamil,
caprehalftamil,
japrehalftamil,
nyaprehalftamil,
ttaprehalftamil,
nnaprehalftamil,
taprehalftamil,
naprehalftamil,
nnnaprehalftamil,
paprehalftamil,
maprehalftamil,
yaprehalftamil,
raprehalftamil,
rraprehalftamil,
laprehalftamil,
llaprehalftamil,
lllaprehalftamil,
vaprehalftamil,
shaprehalftamil,
ssaprehalftamil,
saprehalftamil,
haprehalftamil,
tchaprehalftamil,
kaiivowelsigntamil,
kauvowelsigntamil,
kauuvowelsigntamil,
ngaiivowelsigntamil,
ngauvowelsigntamil,
ngauuvowelsigntamil,
caiivowelsigntamil,
cauvowelsigntamil,
cauuvowelsigntamil,
jaiivowelsigntamil,
nyaiivowelsigntamil,
nyauvowelsigntamil,
nyauuvowelsigntamil,
ttaivowelsigntamil,

glyphs = (
{
glyphname = .notdef;
layers = (
{
layerId = m01;
shapes = (
{
closed = 1;
nodes = (
(94,0,l),
(505,0,l),
(505,714,l),
(94,714,l)
);
},
{
closed = 1;
nodes = (
(145,51,l),
(145,663,l),
(454,663,l),
(454,51,l)
);
}
);
width = 600;
}
);
note = .notdef;
},
{
glyphname = uni0B82;
layers = (
{
anchors = (
{
name = _top;
pos = (200,-29);
}
);
layerId = m01;
shapes = (
{
closed = 1;
nodes = (
(41,639,o),
(95,584,o),
(201,584,cs),
(302,584,o),
(358,639,o),
(358,719,cs),
(358,792,o),
(306,851,o),
(201,851,cs),
(95,851,o),
(41,792,o),
(41,719,cs)
);
},
{
closed = 1;
nodes = (
(154,745,o),
(170,763,o),
(201,763,cs),
(229,763,o),
(245,745,o),
(245,719,cs),
(245,691,o),
(229,672,o),
(201,672,cs),
(170,672,o),
(154,691,o),
(154,719,cs)
);
}
);
width = 399;
}
);
note = uni0B82;
unicode = 2946;
},
{
glyphname = uni0B83;
layers = (
{
layerId = m01;
shapes = (
{
closed = 1;
nodes = (
(404,-12,o),
(493,61,o),
(493,186,cs),
(493,311,o),
(404,384,o),
(263,384,cs),
(122,384,o),
(33,311,o),
(33,186,cs),
(33,61,o),
(122,-12,o),
(263,-12,cs)
);
},
{
closed = 1;
nodes = (
(227,113,o),
(202,137,o),
(202,186,cs),
(202,235,o),
(226,259,o),
(263,259,cs),
(299,259,o),
(324,235,o),
(324,186,cs),
(324,137,o),
(299,113,o),
(263,113,cs)
);
},
{
closed = 1;
nodes = (
(912,-12,o),
(1001,61,o),
(1001,186,cs),
(1001,311,o),
(912,384,o),
(771,384,cs),
(630,384,o),
(541,311,o),
(541,186,cs),
(541,61,o),
(630,-12,o),
(771,-12,cs)
);
},
{
closed = 1;
nodes = (
(735,113,o),
(710,137,o),
(710,186,cs),
(710,235,o),
(734,259,o),
(771,259,cs),
(807,259,o),
(832,235,o),
(832,186,cs),
(832,137,o),
(807,113,o),
(771,113,cs)
);
},
{
closed = 1;
nodes = (
(658,455,o),
(747,528,o),
(747,653,cs),
(747,778,o),
(658,851,o),
(517,851,cs),
(376,851,o),
(287,778,o),
(287,653,cs),
(287,528,o),
(376,455,o),
(517,455,cs)
);
},
{
closed = 1;
nodes = (
(481,580,o),
(456,604,o),
(456,653,cs),
(456,702,o),
(480,726,o),
(517,726,cs),
(553,726,o),
(578,702,o),
(578,653,cs),
(578,604,o),
(553,580,o),
(517,580,cs)
);
}
);
width = 1034;
}
);
note = uni0B83;
unicode = 2947;
},
{
glyphname = uni0B85;
layers = (
{
layerId = m01;
shapes = (
{
closed = 1;
nodes = (
(397,-152,ls),
(646,-152,o),
(815,-75,o),
(901,72,c),
(1019,72,l),
(1019,-154,l),
(1209,-154,l),
(1209,569,l),
(1019,569,l),
(1019,200,l),
(931,200,l),
(932,212,o),
(933,226,o),
(933,239,cs),
(933,421,o),
(812,581,o),
(550,581,cs),
(399,581,o),
(287,522,o),
(287,395,cs),
(287,275,o),
(386,222,o),
(494,222,cs),
(667,222,o),
(697,311,o),
(697,382,cs),
(697,393,o),
(696,404,o),
(695,414,c),
(737,372,o),
(753,306,o),
(753,234,cs),
(751,200,l),
(249,200,ls),
(168,200,o),
(119,197,o),
(76,171,cs),
(44,151,o),
(22,119,o),
(22,65,cs),
(22,-63,o),
(146,-152,o),
(377,-152,cs)
);
},
{
closed = 1;
nodes = (
(206,54,o),
(209,62,o),
(218,67,cs),
(227,72,o),
(234,72,o),
(252,72,cs),
(703,72,l),
(648,15,o),
(553,-22,o),
(397,-22,cs),
(389,-22,ls),
(261,-22,o),
(206,4,o),
(206,44,cs)
);
},
{
closed = 1;
nodes = (
(456,446,o),
(497,460,o),
(551,461,c),
(559,445,o),
(564,426,o),
(564,407,cs),
(564,360,o),
(539,346,o),
(509,346,cs),
(475,346,o),
(456,366,o),
(456,399,cs)
);
}
);
width = 1277;
}
);
note = uni0B85;
unicode = 2949;
},
{
glyphname = uni0B86;
layers = (
{
layerId = m01;
shapes = (
{
closed = 1;
nodes = (
(397,-152,ls),
(642,-152,o),
(809,-69,o),
(897,72,c),
(1019,72,l),
(1019,-124,l),
(1209,-124,l),
(1209,-13,l),
(1230,-2,o),
(1252,4,o),
(1279,4,cs),
(1325,4,o),
(1350,-18,o),
(1350,-58,cs),
(1350,-147,o),
(1234,-194,o),
(1085,-194,cs),
(1080,-194,ls),
(936,-194,o),
(901,-177,o),
(901,-155,cs),
(901,-144,o),
(913,-137,o),
(930,-137,cs),
(952,-137,o),
(972,-142,o),
(987,-146,c),
(1007,-33,l),
(978,-24,o),
(947,-19,o),
(902,-19,cs),
(802,-19,o),
(741,-76,o),
(741,-149,cs),
(741,-256,o),
(831,-321,o),
(1045,-321,cs),
(1086,-321,ls),
(1377,-321,o),
(1531,-206,o),
(1531,-48,cs),
(1531,72,o),
(1437,130,o),
(1319,130,cs),
(1273,130,o),
(1238,121,o),
(1209,109,c),
(1209,569,l),
(1019,569,l),
(1019,200,l),
(931,200,l),
(932,212,o),
(933,226,o),
(933,239,cs),
(933,421,o),
(812,581,o),
(550,581,cs),
(399,581,o),
(287,522,o),
(287,395,cs),
(287,275,o),
(386,222,o),
(494,222,cs),
(667,222,o),
(697,311,o),
(697,382,cs),
(697,393,o),
(696,404,o),
(695,414,c),
(737,372,o),
(753,306,o),
(753,234,cs),
(751,200,l),
(249,200,ls),
(168,200,o),
(119,197,o),
(76,171,cs),
(44,151,o),
(22,119,o),
(22,65,cs),
(22,-63,o),
(146,-152,o),
(377,-152,cs)
);
},
{
closed = 1;
nodes = (
(206,54,o),
(209,62,o),
(218,67,cs),
(227,72,o),
(234,72,o),
(252,72,cs),
(703,72,l),
(648,15,o),
(553,-22,o),
(397,-22,cs),
(389,-22,ls),
(261,-22,o),
(206,4,o),
(206,44,cs)
);
},
{
closed = 1;
nodes = (
(456,446,o),
(497,460,o),
(551,461,c),
(559,445,o),
(564,426,o),
(564,407,cs),
(564,360,o),
(539,346,o),
(509,346,cs),
(475,346,o),
(456,366,o),
(456,399,cs)
);
}
);
width = 1532;
}
);
note = uni0B86;
unicode = 2950;
},
{
glyphname = uni0B87;
layers = (
{
layerId = m01;
shapes = (
{
closed = 1;
nodes = (
(753,225,o),
(752,222,o),
(751,218,c),
(730,224,o),
(709,229,o),
(684,233,c),
(687,247,o),
(688,258,o),
(688,270,cs),
(688,279,o),
(687,288,o),
(686,298,cs),
(685,303,l),
(710,299,o),
(733,295,o),
(754,290,c),
(755,281,o),
(755,273,o),
(755,265,cs),
(755,253,o),
(754,240,o),
(753,227,cs)
);
},
{
closed = 1;
nodes = (
(461,404,o),
(474,376,o),
(490,376,cs),
(494,376,o),
(497,377,o),
(501,380,cs),
(511,388,o),
(524,402,o),
(524,422,cs),
(524,425,o),
(524,429,o),
(523,433,c),
(519,438,o),
(510,441,o),
(499,441,cs),
(486,441,o),
(472,438,o),
(461,433,c)
);
},
{
closed = 1;
nodes = (
(70,81,l),
(83,147,o),
(145,190,o),
(170,210,cs),
(210,238,o),
(253,258,o),
(301,274,cs),
(328,283,o),
(355,290,o),
(385,296,c),
(402,274,o),
(419,254,o),
(441,233,c),
(409,228,o),
(381,222,o),
(351,213,c),
(332,234,o),
(316,253,o),
(301,274,cs),
(245,352,o),
(212,435,o),
(212,506,cs),
(212,609,o),
(282,688,o),
(459,688,cs),
(479,688,o),
(499,687,o),
(521,685,cs),
(594,674,o),
(646,657,o),
(713,649,cs),
(761,645,o),
(808,654,o),
(856,683,c),
(886,668,o),
(856,585,o),
(832,557,cs),
(823,546,o),
(805,529,o),
(767,529,cs),
(745,529,o),
(718,535,o),
(683,549,cs),
(583,586,o),
(505,602,o),
(447,602,cs),
(346,602,o),
(304,555,o),
(304,488,cs),
(304,432,o),
(335,361,o),
(385,296,c),
(441,307,o),
(498,312,o),
(553,312,cs),
(599,312,o),
(643,309,o),
(685,303,c),
(672,362,o),
(630,407,o),
(573,428,c),
(579,379,o),
(546,325,o),
(493,325,cs),
(486,325,o),
(479,326,o),
(471,328,c),
(430,347,o),
(405,393,o),
(405,450,cs),
(405,458,o),
(405,466,o),
(406,474,c),
(431,495,o),
(471,501,o),
(506,501,cs),
(526,501,o),
(545,499,o),
(557,497,cs),
(661,481,o),
(744,408,o),
(754,290,c),
(805,278,o),
(850,261,o),
(879,242,cs),
(932,212,o),
(959,171,o),
(959,131,cs),
(959,70,o),
(896,15,o),
(769,15,cs),
(724,13,o),
(678,18,o),
(632,31,cs),
(605,39,o),
(581,48,o),
(555,60,c),
(584,71,o),
(608,87,o),
(629,111,c),
(650,103,o),
(672,96,o),
(695,91,c),
(677,68,o),
(655,47,o),
(632,31,cs),
(580,-5,o),
(516,-24,o),
(450,-24,cs),
(335,-25,o),
(300,37,o),
(190,71,c),
(160,77,o),
(110,84,o),
(82,70,c),
(75,65,o),
(70,69,o),
(70,77,cs)
);
},
{
closed = 1;
nodes = (
(297,125,o),
(367,49,o),
(483,48,cs),
(509,48,o),
(533,52,o),
(555,60,c),
(479,96,o),
(407,152,o),
(351,213,c),
(298,197,o),
(250,175,o),
(210,143,c)
);
},
{
closed = 1;
nodes = (
(493,182,o),
(557,138,o),
(629,111,c),
(655,140,o),
(674,178,o),
(683,227,cs),
(684,233,l),
(646,239,o),
(603,242,o),
(560,242,cs),
(521,242,o),
(481,239,o),
(441,233,c)
);
},
{
closed = 1;
nodes = (
(720,86,o),
(747,83,o),
(773,83,cs),
(836,84,o),
(881,102,o),
(881,130,cs),
(881,143,o),
(871,158,o),
(849,174,cs),
(827,192,o),
(794,206,o),
(751,218,c),
(742,170,o),
(722,126,o),
(695,91,c)
);
}
);
width = 979;
}
);
note = uni0B87;
unicode = 2951;
},
{
glyphname = uni0B88;
layers = (
{
layerId = m01;
shapes = (
{
closed = 1;
nodes = (
(68,0,l),
(258,0,l),
(258,439,l),
(472,439,l),
(472,0,l),
(662,0,l),
(662,439,l),
(882,439,l),
(882,569,l),
(68,569,l)
);
},
{
closed = 1;
nodes = (
(413,187,o),
(450,221,o),
(450,271,cs),
(450,319,o),
(415,356,o),
(365,356,cs),
(317,356,o),
(281,319,o),
(281,271,cs),
(281,221,o),
(316,187,o),
(365,187,cs)
);
},
{
closed = 1;
nodes = (
(816,187,o),
(853,221,o),
(853,271,cs),
(853,319,o),
(818,356,o),
(768,356,cs),
(720,356,o),
(684,319,o),
(684,271,cs),
(684,221,o),
(719,187,o),
(768,187,cs)
);
}
);
width = 899;
}
);
note = uni0B88;
unicode = 2952;
},
{
glyphname = uni0B89;
layers = (
{
layerId = m01;
shapes = (
{
closed = 1;
nodes = (
(134,581,o),
(35,522,o),
(35,411,cs),
(35,298,o),
(141,267,o),
(241,267,cs),
(381,267,o),
(451,313,o),
(451,412,cs),
(451,424,o),
(450,435,o),
(449,444,c),
(489,432,o),
(521,408,o),
(521,368,cs),
(521,309,o),
(464,281,o),
(295,267,cs),
(200,259,ls),
(68,248,o),
(37,179,o),
(37,130,cs),
(37,64,o),
(72,0,o),
(237,0,cs),
(1082,0,l),
(1082,130,l),
(230,130,ls),
(217,130,o),
(211,134,o),
(211,140,cs),
(211,147,o),
(219,150,o),
(237,151,cs),
(359,161,ls),
(529,175,o),
(706,218,o),
(706,374,cs),
(706,496,o),
(582,581,o),
(321,581,cs)
);
},
{
closed = 1;
nodes = (
(203,444,o),
(226,457,o),
(265,457,cs),
(305,456,l),
(309,445,o),
(311,435,o),
(311,424,cs),
(311,389,o),
(287,375,o),
(254,375,cs),
(226,375,o),
(203,383,o),
(203,413,cs)
);
}
);
width = 1099;
}
);
note = uni0B89;
unicode = 2953;
},
{
glyphname = uni0B8A;
layers = (
{
layerId = m01;
shapes = (
{
closed = 1;
nodes = (
(134,581,o),
(35,522,o),
(35,411,cs),
(35,298,o),
(141,267,o),
(241,267,cs),
(381,267,o),
(451,313,o),
(451,412,cs),
(451,424,o),
(450,435,o),
(449,444,c),
(489,432,o),
(521,408,o),
(521,368,cs),
(521,309,o),
(464,281,o),
(295,267,cs),
(200,259,ls),
(68,248,o),
(37,179,o),
(37,130,cs),
(37,64,o),
(72,0,o),
(237,0,cs),
(1700,0,l),
(1700,130,l),
(230,130,ls),
(217,130,o),
(211,134,o),
(211,140,cs),
(211,147,o),
(219,150,o),
(237,151,cs),
(359,161,ls),
(529,175,o),
(706,218,o),
(706,374,cs),
(706,496,o),
(582,581,o),
(321,581,cs)
);
},
{
closed = 1;
nodes = (
(1089,155,o),
(1149,207,o),
(1149,295,cs),
(1149,382,o),
(1085,424,o),
(995,424,cs),
(965,424,o),
(939,419,o),
(917,411,c),
(947,450,o),
(1000,464,o),
(1049,464,cs),
(1112,464,o),
(1158,438,o),
(1196,409,c),
(1196,162,l),
(1354,162,l),
(1354,452,l),
(1436,452,l),
(1436,162,l),
(1594,162,l),
(1594,452,l),
(1690,452,l),
(1690,569,l),
(1216,569,l),
(1216,539,l),
(1166,566,o),
(1118,581,o),
(1046,581,cs),
(868,581,o),
(761,480,o),
(761,344,cs),
(761,213,o),
(842,155,o),
(962,155,cs)
);
},
{
closed = 1;
nodes = (
(203,444,o),
(226,457,o),
(265,457,cs),
(305,456,l),
(309,445,o),
(311,435,o),
(311,424,cs),
(311,389,o),
(287,375,o),
(254,375,cs),
(226,375,o),
(203,383,o),
(203,413,cs)
);
},
{
closed = 1;
nodes = (
(914,318,o),
(934,325,o),
(953,325,cs),
(985,325,o),
(1001,314,o),
(1001,291,cs),
(1001,270,o),
(988,256,o),
(958,256,cs),
(921,256,o),
(902,278,o),
(897,309,c)
);
}
);
width = 1738;
}
);
note = uni0B8A;
unicode = 2954;
},
{
glyphname = uni0B8E;
layers = (
{
layerId = m01;
shapes = (
{
closed = 1;
nodes = (
(449,353,o),
(410,283,o),
(413,190,c),
(419,127,o),
(438,55,o),
(478,0,c),
(383,0,l),
(351,70,o),
(331,144,o),
(331,214,cs),
(331,284,o),
(351,349,o),
(398,400,c),
(352,411,o),
(331,427,o),
(266,435,cs),
(130,448,o),
(99,308,o),
(103,192,c),
(123,196,o),
(142,201,o),
(164,201,cs),
(177,201,o),
(192,199,o),
(208,194,cs),
(239,184,o),
(248,140,o),
(248,118,cs),
(248,50,o),
(200,-6,o),
(150,-6,cs),
(138,-6,o),
(126,-3,o),
(115,4,c),
(56,33,o),
(20,131,o),
(20,234,cs),
(20,380,o),
(93,539,o),
(279,531,c),
(351,524,o),
(392,500,o),
(459,492,cs),
(507,488,o),
(554,497,o),
(602,526,c),
(610,522,o),
(614,510,o),
(614,494,cs),
(614,466,o),
(602,428,o),
(578,400,cs),
(569,389,o),
(554,372,o),
(517,372,cs),
(508,372,o),
(499,373,o),
(488,375,c)
);
},
{
closed = 1;
nodes = (
(113,96,o),
(126,68,o),
(142,68,cs),
(146,68,o),
(149,69,o),
(153,72,cs),
(163,80,o),
(176,94,o),
(176,114,cs),
(176,117,o),
(176,121,o),
(175,125,c),
(171,130,o),
(162,133,o),
(151,133,cs),
(138,133,o),
(124,130,o),
(113,125,c)
);
}
);
width = 604;
}
);
note = uni0B8E;
unicode = 2958;
},
{
glyphname = uni0B8F;
layers = (
{
layerId = m01;
shapes = (
{
closed = 1;
nodes = (
(557,-214,l),
(781,0,l),
(781,439,l),
(913,439,l),
(913,569,l),
(530,569,ls),
(340,569,o),
(234,550,o),
(146,482,cs),
(80,431,o),
(37,355,o),
(37,239,cs),
(37,79,o),
(127,-12,o),
(285,-12,cs),
(449,-12,o),
(521,61,o),
(521,177,cs),
(521,294,o),
(447,355,o),
(335,355,cs),
(296,355,o),
(261,346,o),
(230,332,c),
(244,361,o),
(262,381,o),
(287,398,cs),
(329,427,o),
(394,439,o),
(485,439,cs),
(591,439,l),
(591,39,l),
(438,-104,l)
);
},
{
closed = 1;
nodes = (
(231,226,o),
(253,234,o),
(278,234,cs),
(315,234,o),
(340,217,o),
(340,174,cs),
(340,135,o),
(321,114,o),
(283,114,cs),
(235,114,o),
(212,152,o),
(209,211,c)
);
}
);
width = 930;
}
);
note = uni0B8F;
unicode = 2959;
},
{
glyphname = uni0B90;
layers = (
{
layerId = m01;
shapes = (
{
closed = 1;
nodes = (
(482,-321,o),
(563,-281,o),
(618,-233,c),
(670,-293,o),
(742,-321,o),
(847,-321,cs),
(1047,-321,o),
(1112,-221,o),
(1112,-89,cs),
(1112,-38,o),
(1098,18,o),
(1081,59,c),
(901,8,l),
(914,-24,o),
(922,-57,o),
(922,-88,cs),
(922,-138,o),
(903,-190,o),
(826,-190,cs),
(783,-190,o),
(754,-176,o),
(738,-153,cs),
(721,-129,o),
(715,-99,o),
(715,-30,cs),
(715,-12,l),
(527,-12,l),
(527,-32,ls),
(527,-88,o),
(519,-116,o),
(502,-140,cs),
(479,-173,o),
(440,-190,o),
(369,-190,cs),
(275,-190,o),
(225,-151,o),
(225,-82,cs),
(225,-42,o),
(244,-11,o),
(273,7,cs),
(310,30,o),
(351,35,o),
(423,35,cs),
(666,35,ls),
(814,35,o),
(923,48,o),
(1008,106,cs),
(1073,150,o),
(1112,220,o),
(1112,329,cs),
(1112,458,o),
(1024,581,o),
(829,581,cs),
(731,581,o),
(663,547,o),
(615,486,c),
(560,543,o),
(492,581,o),
(343,581,cs),
(174,581,o),
(35,496,o),
(35,350,cs),
(35,261,o),
(88,164,o),
(250,164,cs),
(395,164,o),
(462,228,o),
(462,330,cs),
(462,386,o),
(437,429,o),
(399,456,c),
(493,443,o),
(527,384,o),
(527,292,cs),
(527,204,l),
(715,204,l),
(715,299,ls),
(715,370,o),
(725,400,o),
(746,423,cs),
(760,438,o),
(781,449,o),
(814,449,cs),
(874,449,o),
(922,408,o),
(922,322,cs),
(922,270,o),
(907,233,o),
(876,208,cs),
(836,176,o),
(781,163,o),
(664,163,cs),
(444,163,ls),
(290,163,o),
(205,149,o),
(134,104,cs),
(74,66,o),
(35,7,o),
(35,-84,cs),
(35,-241,o),
(144,-321,o),
(352,-321,cs)
);
},
{
closed = 1;
nodes = (
(191,376,o),
(207,404,o),
(236,424,c),
(297,410,o),
(310,376,o),
(310,343,cs),
(310,308,o),
(288,284,o),
(249,284,cs),
(206,284,o),
(191,313,o),
(191,343,cs)
);
}
);
width = 1153;
}
);
note = uni0B90;
unicode = 2960;
},
{
glyphname = uni0B92;
layers = (
{
layerId = m01;
shapes = (
{
closed = 1;
nodes = (
(1090,37,o),
(1149,144,o),
(1149,251,cs),
(1149,349,o),
(1104,420,o),
(1035,470,cs),
(925,549,o),
(774,581,o),
(573,581,cs),
(392,581,o),
(254,556,o),
(148,484,cs),
(77,436,o),
(33,367,o),
(33,271,cs),
(33,137,o),
(120,48,o),
(264,48,cs),
(383,48,o),
(482,97,o),
(482,231,cs),
(482,341,o),
(401,398,o),
(306,398,cs),
(297,398,o),
(289,398,o),
(280,397,c),
(361,437,o),
(462,446,o),
(583,446,cs),
(830,446,o),
(961,368,o),
(961,238,cs),
(961,195,o),
(942,161,o),
(905,161,cs),
(858,161,o),
(843,193,o),
(843,241,cs),
(843,267,o),
(848,300,o),
(860,326,c),
(710,394,l),
(579,344,o),
(502,254,o),
(502,125,cs),
(502,47,o),
(541,-43,o),
(652,-95,c),
(644,-106,ls),
(593,-173,o),
(556,-191,o),
(495,-191,cs),
(433,-191,o),
(408,-159,o),
(408,-118,cs),
(408,-93,o),
(417,-69,o),
(436,-41,c),
(276,29,l),
(242,-24,o),
(225,-69,o),
(225,-125,cs),
(225,-259,o),
(336,-321,o),
(491,-321,cs),
(646,-321,o),
(734,-266,o),
(814,-154,cs),
(827,-136,l),
(844,-137,o),
(865,-138,o),
(888,-138,cs),
(1049,-138,l),
(1049,-9,l),
(930,-9,ls),
(793,-9,o),
(746,5,o),
(707,35,cs),
(673,61,o),
(656,98,o),
(656,144,cs),
(656,170,o),
(662,211,o),
(704,249,c),
(700,230,o),
(698,208,o),
(698,200,cs),
(698,107,o),
(760,37,o),
(906,37,cs)
);
},
{
closed = 1;
nodes = (
(192,262,l),
(214,279,o),
(238,289,o),
(264,289,cs),
(299,289,o),
(324,273,o),
(324,234,cs),
(324,193,o),
(301,172,o),
(264,172,cs),
(204,172,o),
(192,227,o),
(192,261,cs)
);
}
);
width = 1182;
}
);
note = uni0B92;
unicode = 2962;
},
{
glyphname = uni0B93;
layers = (
{
layerId = m01;
shapes = (
{
closed = 1;
nodes = (
(1090,37,o),
(1149,144,o),
(1149,251,cs),
(1149,349,o),
(1104,420,o),
(1035,470,cs),
(925,549,o),
(774,581,o),
(573,581,cs),
(392,581,o),
(254,556,o),
(148,484,cs),
(77,436,o),
(33,367,o),
(33,271,cs),
(33,137,o),
(120,48,o),
(264,48,cs),
(383,48,o),
(482,97,o),
(482,231,cs),
(482,341,o),
(401,398,o),
(306,398,cs),
(297,398,o),
(289,398,o),
(280,397,c),
(361,437,o),
(462,446,o),
(583,446,cs),
(830,446,o),
(961,368,o),
(961,238,cs),
(961,195,o),
(942,161,o),
(905,161,cs),
(858,161,o),
(843,193,o),
(843,241,cs),
(843,267,o),
(848,300,o),
(860,326,c),
(710,394,l),
(579,344,o),
(502,254,o),
(502,125,cs),
(502,47,o),
(541,-43,o),
(652,-95,c),
(644,-106,ls),
(606,-156,o),
(579,-184,o),
(539,-195,c),
(547,-174,o),
(552,-150,o),
(552,-121,cs),
(552,-41,o),
(497,33,o),
(352,33,cs),
(206,33,o),
(139,-41,o),
(139,-131,cs),
(139,-200,o),
(174,-252,o),
(237,-285,cs),
(283,-308,o),
(339,-321,o),
(456,-321,cs),
(476,-321,ls),
(658,-321,o),
(739,-259,o),
(814,-154,cs),
(827,-136,l),
(844,-137,o),
(865,-138,o),
(888,-138,cs),
(1049,-138,l),
(1049,-9,l),
(930,-9,ls),
(793,-9,o),
(746,5,o),
(707,35,cs),
(673,61,o),
(656,98,o),
(656,144,cs),
(656,170,o),
(662,211,o),
(704,249,c),
(700,230,o),
(698,208,o),
(698,200,cs),
(698,107,o),
(760,37,o),
(906,37,cs)
);
},
{
closed = 1;
nodes = (
(192,262,l),
(214,279,o),
(238,289,o),
(264,289,cs),
(299,289,o),
(324,273,o),
(324,234,cs),
(324,193,o),
(301,172,o),
(264,172,cs),
(204,172,o),
(192,227,o),
(192,261,cs)
);
},
{
closed = 1;
nodes = (
(298,-114,o),
(316,-91,o),
(349,-91,cs),
(375,-91,o),
(402,-104,o),
(402,-143,cs),
(402,-162,o),
(397,-182,o),
(385,-201,c),
(329,-198,o),
(298,-185,o),
(298,-140,cs)
);
}
);
width = 1182;
}
);
note = uni0B93;
unicode = 2963;
},
{
glyphname = uni0B94;
layers = (
{
layerId = m01;
shapes = (
{
closed = 1;
nodes = (
(1090,37,o),
(1149,144,o),
(1149,251,cs),
(1149,349,o),
(1104,420,o),
(1035,470,cs),
(925,549,o),
(774,581,o),
(573,581,cs),
(392,581,o),
(254,556,o),
(148,484,cs),
(77,436,o),
(33,367,o),
(33,271,cs),
(33,137,o),
(120,48,o),
(264,48,cs),
(383,48,o),
(482,97,o),
(482,231,cs),
(482,341,o),
(401,398,o),
(306,398,cs),
(297,398,o),
(289,398,o),
(280,397,c),
(361,437,o),
(462,446,o),
(583,446,cs),
(830,446,o),
(961,368,o),
(961,238,cs),
(961,195,o),
(942,161,o),
(905,161,cs),
(858,161,o),
(843,193,o),
(843,241,cs),
(843,267,o),
(848,300,o),
(860,326,c),
(710,394,l),
(579,344,o),
(502,254,o),
(502,125,cs),
(502,47,o),
(541,-43,o),
(652,-95,c),
(644,-106,ls),
(593,-173,o),
(556,-191,o),
(495,-191,cs),
(433,-191,o),
(408,-159,o),
(408,-118,cs),
(408,-93,o),
(417,-69,o),
(436,-41,c),
(276,29,l),
(242,-24,o),
(225,-69,o),
(225,-125,cs),
(225,-259,o),
(336,-321,o),
(491,-321,cs),
(646,-321,o),
(734,-266,o),
(814,-154,cs),
(827,-136,l),
(844,-137,o),
(865,-138,o),
(888,-138,cs),
(1049,-138,l),
(1049,-9,l),
(930,-9,ls),
(793,-9,o),
(746,5,o),
(707,35,cs),
(673,61,o),
(656,98,o),
(656,144,cs),
(656,170,o),
(662,211,o),
(704,249,c),
(700,230,o),
(698,208,o),
(698,200,cs),
(698,107,o),
(760,37,o),
(906,37,cs)
);
},
{
closed = 1;
nodes = (
(1631,-12,o),
(1703,61,o),
(1703,177,cs),
(1703,296,o),
(1629,355,o),
(1517,355,cs),
(1475,355,o),
(1439,345,o),
(1406,329,c),
(1434,407,o),
(1500,451,o),
(1587,451,cs),
(1671,451,o),
(1727,416,o),
(1773,367,c),
(1773,0,l),
(1963,0,l),
(1963,439,l),
(2087,439,l),
(2087,0,l),
(2277,0,l),
(2277,439,l),
(2409,439,l),
(2409,569,l),
(1795,569,l),
(1795,525,l),
(1731,563,o),
(1666,581,o),
(1582,581,cs),
(1394,581,o),
(1219,469,o),
(1219,248,cs),
(1219,79,o),
(1309,-12,o),
(1467,-12,cs)
);
},
{
closed = 1;
nodes = (
(192,262,l),
(214,279,o),
(238,289,o),
(264,289,cs),
(299,289,o),
(324,273,o),
(324,234,cs),
(324,193,o),
(301,172,o),
(264,172,cs),
(204,172,o),
(192,227,o),
(192,261,cs)
);
},
{
closed = 1;
nodes = (
(1413,226,o),
(1435,234,o),
(1460,234,cs),
(1497,234,o),
(1522,217,o),
(1522,174,cs),
(1522,135,o),
(1503,114,o),
(1465,114,cs),
(1418,114,o),
(1396,149,o),
(1392,212,c)
);
}
);
width = 2426;
}
);
note = uni0B94;
unicode = 2964;
},
{
glyphname = uni0B95;
layers = (
{
layerId = m01;
shapes = (
{
closed = 1;
nodes = (
(217,338,o),
(254,341,o),
(286,345,c),
(289,375,o),
(308,404,o),
(324,424,c),
(301,433,o),
(274,438,o),
(249,438,cs),
(226,438,o),
(208,432,o),
(188,430,c),
(198,392,o),
(193,350,o),
(183,322,c)
);
},
{
closed = 1;
nodes = (
(219,270,o),
(114,236,o),
(92,169,cs),
(71,103,o),
(125,84,o),
(142,75,c),
(229,47,o),
(254,98,o),
(260,109,c),
(282,141,o),
(267,218,o),
(276,275,c)
);
},
{
closed = 1;
nodes = (
(436,84,o),
(451,71,o),
(478,73,c),
(573,86,o),
(524,254,o),
(346,277,c),
(332,213,o),
(346,124,o),
(325,86,c),
(317,64,o),
(260,-15,o),
(172,-10,cs),
(106,-6,o),
(20,47,o),
(20,151,cs),
(20,192,o),
(51,244,o),
(95,274,c),
(131,360,o),
(131,417,o),
(111,459,c),
(146,504,o),
(193,527,o),
(270,527,cs),
(344,527,o),
(375,500,o),
(442,492,cs),
(490,488,o),
(537,497,o),
(585,526,c),
(607,515,o),
(600,445,o),
(561,400,cs),
(547,383,o),
(510,352,o),
(412,392,c),
(396,383,o),
(375,372,o),
(363,338,c),
(511,308,o),
(595,225,o),
(595,135,cs),
(595,77,o),
(577,11,o),
(485,-1,cs),
(454,-5,o),
(394,12,o),
(369,72,c),
(379,101,o),
(400,116,o),
(423,120,c),
(424,115,o),
(426,110,o),
(428,105,cs)
);
}
);
width = 617;
}
);
note = uni0B95;
unicode = 2965;
},
{
glyphname = uni0B99;
layers = (
{
layerId = m01;
shapes = (
{
closed = 1;
nodes = (
(68,0,l),
(258,0,l),
(258,439,l),
(378,439,l),
(378,172,l),
(568,172,l),
(568,214,l),
(595,232,o),
(618,240,o),
(643,240,cs),
(676,240,o),
(698,221,o),
(698,185,cs),
(698,159,o),
(691,144,o),
(682,130,c),
(378,130,l),
(378,0,l),
(1176,0,l),
(1176,569,l),
(986,569,l),
(986,130,l),
(867,130,l),
(878,149,o),
(887,174,o),
(887,217,cs),
(887,289,o),
(832,370,o),
(697,370,cs),
(647,370,o),
(608,361,o),
(568,338,c),
(568,439,l),
(763,439,l),
(763,569,l),
(68,569,l)
);
}
);
width = 1244;
}
);
note = uni0B99;
unicode = 2969;
},
{
glyphname = uni0B9A;
layers = (
{
layerId = m01;
shapes = (
{
closed = 1;
nodes = (
(131,417,o),
(134,356,o),
(98,270,c),
(54,240,o),
(20,192,o),
(20,151,cs),
(20,47,o),
(106,-6,o),
(172,-10,cs),
(260,-15,o),
(320,64,o),
(325,86,c),
(334,113,o),
(335,171,o),
(340,227,c),
(373,227,o),
(420,225,o),
(445,271,cs),
(449,280,o),
(465,316,o),
(445,311,c),
(419,301,o),
(380,299,o),
(351,301,c),
(361,344,o),
(379,380,o),
(412,392,c),
(510,352,o),
(547,383,o),
(561,400,cs),
(600,445,o),
(607,515,o),
(585,526,c),
(537,497,o),
(490,488,o),
(442,492,cs),
(375,500,o),
(344,527,o),
(270,527,cs),
(193,527,o),
(146,504,o),
(111,459,c)
);
},
{
closed = 1;
nodes = (
(191,330,o),
(202,386,o),
(192,428,c),
(212,430,o),
(226,438,o),
(249,438,cs),
(274,438,o),
(304,429,o),
(327,422,c),
(306,402,o),
(284,346,o),
(284,306,c),
(249,310,o),
(205,307,o),
(181,302,c)
);
},
{
closed = 1;
nodes = (
(267,176,o),
(282,141,o),
(260,109,c),
(254,98,o),
(229,47,o),
(142,75,c),
(125,84,o),
(72,102,o),
(92,169,cs),
(111,235,o),
(215,236,o),
(276,233,c)
);
}
);
width = 587;
}
);
note = uni0B9A;
unicode = 2970;
},
{
glyphname = uni0B9C;
layers = (
{
layerId = m01;
shapes = (
{
closed = 1;
nodes = (
(174,581,o),
(35,496,o),
(35,350,cs),
(35,261,o),
(88,164,o),
(250,164,cs),
(395,164,o),
(462,228,o),
(462,330,cs),
(462,386,o),
(437,429,o),
(399,456,c),
(493,443,o),
(527,384,o),
(527,292,cs),
(527,204,l),
(715,204,l),
(715,299,ls),
(715,370,o),
(725,400,o),
(746,423,cs),
(760,438,o),
(781,449,o),
(814,449,cs),
(874,449,o),
(922,408,o),
(922,322,cs),
(922,270,o),
(907,233,o),
(876,208,cs),
(836,176,o),
(781,163,o),
(664,163,cs),
(444,163,ls),
(290,163,o),
(205,149,o),
(134,104,cs),
(74,66,o),
(35,7,o),
(35,-85,cs),
(35,-216,o),
(118,-321,o),
(328,-321,cs),
(484,-321,o),
(565,-276,o),
(673,-169,c),
(675,-234,o),
(720,-321,o),
(882,-321,cs),
(1037,-321,o),
(1099,-245,o),
(1099,-149,cs),
(1099,-47,o),
(1024,45,o),
(857,45,cs),
(837,45,l),
(904,55,o),
(960,73,o),
(1008,106,cs),
(1073,150,o),
(1112,220,o),
(1112,329,cs),
(1112,458,o),
(1024,581,o),
(829,581,cs),
(731,581,o),
(663,547,o),
(615,486,c),
(560,543,o),
(492,581,o),
(343,581,cs)
);
},
{
closed = 1;
nodes = (
(191,376,o),
(207,404,o),
(236,424,c),
(297,410,o),
(310,376,o),
(310,343,cs),
(310,308,o),
(288,284,o),
(249,284,cs),
(206,284,o),
(191,313,o),
(191,343,cs)
);
},
{
closed = 1;
nodes = (
(225,-42,o),
(244,-11,o),
(273,7,cs),
(310,30,o),
(351,35,o),
(423,35,cs),
(666,35,l),
(759,37,l),
(692,24,o),
(629,-10,o),
(542,-88,cs),
(449,-171,o),
(404,-191,o),
(339,-191,cs),
(258,-191,o),
(225,-142,o),
(225,-82,cs)
);
},
{
closed = 1;
nodes = (
(818,-118,o),
(827,-97,o),
(844,-77,c),
(917,-77,o),
(936,-113,o),
(936,-141,cs),
(936,-171,o),
(919,-197,o),
(879,-197,cs),
(837,-197,o),
(818,-176,o),
(818,-140,cs)
);
}
);
width = 1153;
}
);
note = uni0B9C;
unicode = 2972;
},
{
glyphname = uni0B9E;
layers = (
{
layerId = m01;
shapes = (
{
closed = 1;
nodes = (
(1132,346,o),
(1098,341,o),
(1068,331,c),
(1068,439,l),
(1200,439,l),
(1200,569,l),
(817,569,ls),
(627,569,o),
(521,550,o),
(433,482,cs),
(367,431,o),
(324,355,o),
(324,239,cs),
(324,79,o),
(414,-12,o),
(572,-12,cs),
(736,-12,o),
(808,61,o),
(808,177,cs),
(808,294,o),
(734,355,o),
(622,355,cs),
(583,355,o),
(548,346,o),
(517,332,c),
(531,361,o),
(549,381,o),
(574,398,cs),
(616,427,o),
(681,439,o),
(772,439,cs),
(878,439,l),
(878,0,l),
(1068,0,l),
(1068,205,l),
(1082,212,o),
(1097,216,o),
(1113,216,cs),
(1171,216,o),
(1201,170,o),
(1201,102,cs),
(1201,-104,o),
(1018,-186,o),
(747,-186,cs),
(705,-186,ls),
(345,-186,o),
(225,-51,o),
(225,167,cs),
(225,183,ls),
(225,277,o),
(258,388,o),
(332,498,c),
(184,582,l),
(109,470,o),
(47,328,o),
(47,163,cs),
(47,152,ls),
(47,-111,o),
(207,-321,o),
(699,-321,cs),
(768,-321,ls),
(1075,-321,o),
(1391,-219,o),
(1391,99,cs),
(1391,252,o),
(1309,346,o),
(1162,346,cs)
);
},
{
closed = 1;
nodes = (
(518,226,o),
(540,234,o),
(565,234,cs),
(602,234,o),
(627,217,o),
(627,174,cs),
(627,135,o),
(608,114,o),
(570,114,cs),
(522,114,o),
(499,152,o),
(496,211,c)
);
}
);
width = 1424;
}
);
note = uni0B9E;
unicode = 2974;
},
{
glyphname = uni0B9F;
layers = (
{
layerId = m01;
shapes = (
{
closed = 1;
nodes = (
(68,0,l),
(743,0,l),
(743,130,l),
(258,130,l),
(258,569,l),
(68,569,l)
);
}
);
width = 760;
}
);
note = uni0B9F;
unicode = 2975;
},
{
glyphname = uni0BA3;
layers = (
{
layerId = m01;
shapes = (
{
closed = 1;
nodes = (
(449,-12,o),
(521,61,o),
(521,177,cs),
(521,294,o),
(447,355,o),
(335,355,cs),
(299,355,o),
(267,348,o),
(236,335,c),
(278,404,o),
(364,451,o),
(489,451,cs),
(555,451,o),
(605,443,o),
(650,424,c),
(595,366,o),
(559,293,o),
(559,202,cs),
(559,66,o),
(637,-12,o),
(786,-12,cs),
(926,-12,o),
(1003,52,o),
(1003,196,cs),
(1003,290,o),
(962,362,o),
(893,426,c),
(929,442,o),
(971,451,o),
(1024,451,cs),
(1075,451,o),
(1116,442,o),
(1153,426,c),
(1093,369,o),
(1048,287,o),
(1048,202,cs),
(1048,66,o),
(1126,-12,o),
(1275,-12,cs),
(1415,-12,o),
(1492,52,o),
(1492,196,cs),
(1492,281,o),
(1458,358,o),
(1397,421,c),
(1432,432,o),
(1477,439,o),
(1543,439,cs),
(1572,439,l),
(1572,0,l),
(1762,0,l),
(1762,439,l),
(1894,439,l),
(1894,569,l),
(1572,569,ls),
(1429,569,o),
(1347,552,o),
(1279,518,c),
(1203,562,o),
(1132,581,o),
(1024,581,cs),
(927,581,o),
(840,563,o),
(764,520,c),
(684,562,o),
(597,581,o),
(484,581,cs),
(212,581,o),
(37,451,o),
(37,244,cs),
(37,79,o),
(127,-12,o),
(285,-12,cs)
);
},
{
closed = 1;
nodes = (
(231,226,o),
(253,234,o),
(278,234,cs),
(315,234,o),
(340,217,o),
(340,174,cs),
(340,133,o),
(320,113,o),
(287,113,cs),
(227,113,o),
(212,170,o),
(210,212,c)
);
},
{
closed = 1;
nodes = (
(730,251,o),
(747,298,o),
(776,336,c),
(814,294,o),
(832,247,o),
(832,196,cs),
(832,148,o),
(820,114,o),
(781,114,cs),
(750,114,o),
(730,138,o),
(730,200,cs)
);
},
{
closed = 1;
nodes = (
(1219,250,o),
(1236,299,o),
(1270,339,c),
(1302,299,o),
(1321,249,o),
(1321,196,cs),
(1321,148,o),
(1309,114,o),
(1270,114,cs),
(1239,114,o),
(1219,138,o),
(1219,197,cs)
);
}
);
width = 1911;
}
);
note = uni0BA3;
unicode = 2979;
},
{
glyphname = uni0BA4;
layers = (
{
layerId = m01;
shapes = (
{
closed = 1;
nodes = (
(631,220,o),
(638,54,o),
(625,0,cs),
(596,-125,o),
(508,-170,o),
(333,-146,cs),
(248,-134,o),
(190,-84,o),
(103,-88,c),
(88,-93,o),
(9,-153,o),
(21,-226,cs),
(23,-236,o),
(31,-242,o),
(38,-235,cs),
(61,-212,o),
(112,-203,o),
(154,-203,cs),
(221,-204,o),
(266,-230,o),
(333,-235,cs),
(548,-250,o),
(673,-176,o),
(702,0,cs),
(717,93,o),
(670,282,o),
(407,338,c),
(419,372,o),
(440,383,o),
(456,392,c),
(554,352,o),
(591,383,o),
(605,400,cs),
(644,445,o),
(651,515,o),
(629,526,c),
(581,497,o),
(534,488,o),
(486,492,cs),
(419,500,o),
(388,527,o),
(314,527,cs),
(237,527,o),
(190,504,o),
(155,459,c),
(175,417,o),
(175,360,o),
(139,274,c),
(95,244,o),
(64,192,o),
(64,151,cs),
(64,47,o),
(150,-6,o),
(216,-10,cs),
(304,-15,o),
(361,64,o),
(369,86,c),
(390,124,o),
(376,204,o),
(390,268,c)
);
},
{
closed = 1;
nodes = (
(237,350,o),
(242,392,o),
(232,430,c),
(252,432,o),
(270,438,o),
(293,438,cs),
(318,438,o),
(345,433,o),
(368,424,c),
(352,404,o),
(333,375,o),
(330,345,c),
(298,341,o),
(261,338,o),
(227,322,c)
);
},
{
closed = 1;
nodes = (
(311,213,o),
(326,141,o),
(304,109,c),
(298,98,o),
(273,47,o),
(186,75,c),
(169,84,o),
(115,103,o),
(136,169,cs),
(158,236,o),
(263,265,o),
(320,270,c)
);
}
);
width = 723;
}
);
note = uni0BA4;
unicode = 2980;
},
{
glyphname = uni0BA8;
layers = (
{
layerId = m01;
shapes = (
{
closed = 1;
nodes = (
(639,370,o),
(604,363,o),
(572,351,c),
(572,439,l),
(704,439,l),
(704,569,l),
(68,569,l),
(68,0,l),
(258,0,l),
(258,439,l),
(382,439,l),
(382,0,l),
(572,0,l),
(572,225,l),
(590,234,o),
(610,240,o),
(630,240,cs),
(686,240,o),
(716,200,o),
(716,123,cs),
(716,64,o),
(702,26,o),
(677,1,cs),
(640,-36,o),
(585,-50,o),
(463,-50,cs),
(300,-50,ls),
(192,-50,o),
(146,-62,o),
(102,-91,cs),
(58,-120,o),
(30,-169,o),
(30,-231,cs),
(30,-262,o),
(32,-291,o),
(36,-322,c),
(223,-312,l),
(221,-299,o),
(220,-286,o),
(220,-269,cs),
(220,-235,o),
(231,-214,o),
(250,-200,cs),
(273,-184,o),
(300,-180,o),
(361,-180,cs),
(494,-180,ls),
(625,-180,o),
(714,-164,o),
(787,-115,cs),
(857,-68,o),
(902,8,o),
(902,130,cs),
(902,269,o),
(832,370,o),
(684,370,cs)
);
}
);
width = 937;
}
);
note = uni0BA8;
unicode = 2984;
},
{
glyphname = uni0BA9;
layers = (
{
layerId = m01;
shapes = (
{
closed = 1;
nodes = (
(449,-12,o),
(521,61,o),
(521,177,cs),
(521,294,o),
(447,355,o),
(335,355,cs),
(299,355,o),
(267,348,o),
(236,335,c),
(278,404,o),
(364,451,o),
(489,451,cs),
(560,451,o),
(613,441,o),
(658,420,c),
(600,363,o),
(559,285,o),
(559,202,cs),
(559,66,o),
(637,-12,o),
(786,-12,cs),
(926,-12,o),
(1003,52,o),
(1003,196,cs),
(1003,287,o),
(964,358,o),
(901,419,c),
(936,431,o),
(984,439,o),
(1054,439,cs),
(1083,439,l),
(1083,0,l),
(1273,0,l),
(1273,439,l),
(1405,439,l),
(1405,569,l),
(1083,569,ls),
(931,569,o),
(850,551,o),
(778,512,c),
(693,560,o),
(604,581,o),
(484,581,cs),
(212,581,o),
(37,451,o),
(37,244,cs),
(37,79,o),
(127,-12,o),
(285,-12,cs)
);
},
{
closed = 1;
nodes = (
(231,226,o),
(253,234,o),
(278,234,cs),
(315,234,o),
(340,217,o),
(340,174,cs),
(340,135,o),
(321,114,o),
(283,114,cs),
(236,114,o),
(213,151,o),
(210,212,c)
);
},
{
closed = 1;
nodes = (
(730,248,o),
(745,296,o),
(777,335,c),
(814,294,o),
(832,246,o),
(832,196,cs),
(832,148,o),
(820,114,o),
(781,114,cs),
(750,114,o),
(730,138,o),
(730,197,cs)
);
}
);
width = 1422;
}
);
note = uni0BA9;
unicode = 2985;
},
{
glyphname = uni0BAA;
layers = (
{
layerId = m01;
shapes = (
{
closed = 1;
nodes = (
(141,500,l),
(152,479,o),
(156,452,o),
(156,428,cs),
(155,410,ls),
(155,364,o),
(135,314,o),
(125,284,cs),
(111,245,o),
(99,187,o),
(99,132,cs),
(99,116,o),
(100,101,o),
(102,86,c),
(113,84,o),
(124,84,o),
(135,84,cs),
(180,84,o),
(226,96,o),
(271,100,c),
(299,100,o),
(312,96,o),
(324,93,c),
(314,138,o),
(311,183,o),
(311,229,cs),
(313,299,l),
(321,392,o),
(335,438,o),
(360,500,c),
(449,500,l),
(397,425,o),
(389,351,o),
(389,276,cs),
(390,224,l),
(399,120,o),
(413,71,o),
(441,0,c),
(412,-76,l),
(346,-25,o),
(282,3,o),
(182,-1,cs),
(156,-1,o),
(129,-5,o),
(102,-5,cs),
(87,-5,o),
(73,-4,o),
(58,0,c),
(31,35,o),
(21,83,o),
(20,133,cs),
(16,243,o),
(82,345,o),
(82,433,cs),
(82,456,o),
(77,479,o),
(65,500,c)
);
}
);
width = 469;
}
);
note = uni0BAA;
unicode = 2986;
},
{
glyphname = uni0BAE;
layers = (
{
layerId = m01;
shapes = (
{
closed = 1;
nodes = (
(-69,83,o),
(-59,35,o),
(-32,0,c),
(9,-10,o),
(51,-1,o),
(92,-1,cs),
(192,3,o),
(322,-40,o),
(388,-91,c),
(417,-15,l),
(464,90,o),
(514,154,o),
(522,260,cs),
(527,375,o),
(486,496,o),
(345,500,c),
(200,496,o),
(127,327,o),
(125,197,c),
(128,159,o),
(132,121,o),
(149,86,c),
(130,88,o),
(111,89,o),
(92,88,cs),
(64,88,o),
(40,84,o),
(12,84,c),
(2,150,o),
(17,234,o),
(35,284,cs),
(45,314,o),
(65,364,o),
(65,410,cs),
(67,437,o),
(65,473,o),
(51,500,c),
(-25,500,l),
(32,399,o),
(-75,273,o),
(-70,133,cs)
);
},
{
closed = 1;
nodes = (
(241,466,o),
(477,467,o),
(429,213,cs),
(415,144,o),
(364,93,o),
(331,32,c),
(299,48,o),
(264,61,o),
(227,71,c),
(210,122,o),
(193,174,o),
(201,235,c)
);
}
);
width = 542;
}
);
note = uni0BAE;
unicode = 2990;
},
{
glyphname = uni0BAF;
layers = (
{
layerId = m01;
shapes = (
{
closed = 1;
nodes = (
(39,44,o),
(21,86,o),
(20,133,cs),
(15,273,o),
(122,399,o),
(65,500,c),
(141,500,l),
(155,473,o),
(155,437,o),
(155,410,cs),
(155,364,o),
(135,314,o),
(125,284,cs),
(107,234,o),
(79,140,o),
(111,97,cs),
(138,60,o),
(204,27,o),
(276,83,cs),
(331,126,o),
(342,187,o),
(328,295,cs),
(319,364,o),
(305,414,o),
(250,500,c),
(325,500,l),
(377,414,o),
(390,360,o),
(399,293,cs),
(413,188,o),
(395,150,o),
(383,111,c),
(430,111,o),
(471,137,o),
(516,118,c),
(506,190,o),
(501,230,o),
(504,299,cs),
(512,392,o),
(526,438,o),
(551,500,c),
(640,500,l),
(576,408,o),
(579,317,o),
(581,224,c),
(590,120,o),
(594,107,o),
(622,36,c),
(576,-32,l),
(551,10,o),
(507,31,o),
(462,39,cs),
(410,48,o),
(370,33,o),
(328,36,c),
(302,16,o),
(274,-14,o),
(188,-16,cs),
(148,-17,o),
(104,-6,o),
(74,17,cs)
);
}
);
width = 660;
}
);
note = uni0BAF;
unicode = 2991;
},
{
glyphname = uni0BB0;
layers = (
{
layerId = m01;
shapes = (
{
closed = 1;
nodes = (
(239,438,o),
(207,433,o),
(204,431,c),
(204,385,o),
(178,314,o),
(168,284,cs),
(126,144,o),
(143,62,o),
(178,0,c),
(101,0,l),
(80,29,o),
(63,65,o),
(63,133,cs),
(63,273,o),
(144,355,o),
(101,456,c),
(130,494,o),
(178,540,o),
(275,531,cs),
(343,525,o),
(390,500,o),
(455,492,cs),
(503,488,o),
(550,497,o),
(598,526,c),
(620,515,o),
(613,445,o),
(574,400,cs),
(563,387,o),
(543,364,o),
(484,375,c),
(445,353,o),
(406,283,o),
(409,190,c),
(415,127,o),
(434,55,o),
(474,0,c),
(480,-122,o),
(393,-273,o),
(193,-254,cs),
(119,-247,o),
(81,-223,o),
(14,-222,cs),
(-28,-222,o),
(-79,-231,o),
(-102,-254,cs),
(-109,-261,o),
(-117,-255,o),
(-119,-245,cs),
(-131,-172,o),
(-52,-112,o),
(-37,-107,c),
(50,-103,o),
(108,-154,o),
(193,-165,cs),
(332,-184,o),
(383,-93,o),
(379,0,c),
(315,139,o),
(299,297,o),
(394,400,c),
(349,411,o),
(323,427,o),
(262,435,cs)
);
}
);
width = 630;
}
);
note = uni0BB0;
unicode = 2992;
},
{
glyphname = uni0BB1;
layers = (
{
layerId = m01;
shapes = (
{
closed = 1;
nodes = (
(500,417,o),
(511,431,o),
(548,428,c),
(669,406,o),
(662,281,o),
(662,245,cs),
(662,26,o),
(557,-177,o),
(333,-146,cs),
(248,-134,o),
(190,-84,o),
(103,-88,c),
(88,-93,o),
(9,-153,o),
(21,-226,cs),
(23,-236,o),
(31,-242,o),
(38,-235,cs),
(61,-212,o),
(112,-203,o),
(154,-203,cs),
(221,-204,o),
(266,-230,o),
(333,-235,cs),
(594,-253,o),
(738,-17,o),
(738,247,cs),
(738,285,o),
(738,489,o),
(544,509,cs),
(490,514,o),
(460,477,o),
(435,469,c),
(400,501,o),
(359,516,o),
(299,516,cs),
(259,516,o),
(215,506,o),
(185,483,cs),
(150,456,o),
(132,414,o),
(131,367,cs),
(126,227,o),
(233,101,o),
(176,0,c),
(252,0,l),
(266,27,o),
(268,63,o),
(266,90,cs),
(266,136,o),
(246,186,o),
(236,216,cs),
(218,266,o),
(190,360,o),
(222,403,cs),
(249,440,o),
(315,473,o),
(387,417,cs),
(442,374,o),
(453,313,o),
(439,205,cs),
(430,136,o),
(416,86,o),
(361,0,c),
(436,0,l),
(488,86,o),
(501,140,o),
(510,207,cs),
(521,289,o),
(514,356,o),
(482,410,c)
);
}
);
width = 758;
}
);
note = uni0BB1;
unicode = 2993;
},
{
glyphname = uni0BB2;
layers = (
{
layerId = m01;
shapes = (
{
closed = 1;
nodes = (
(449,-12,o),
(521,61,o),
(521,177,cs),
(521,295,o),
(447,355,o),
(335,355,cs),
(294,355,o),
(258,345,o),
(226,330,c),
(258,407,o),
(331,451,o),
(419,451,cs),
(481,451,o),
(517,433,o),
(541,402,cs),
(574,359,o),
(580,295,o),
(586,229,cs),
(595,133,o),
(626,68,o),
(683,30,cs),
(726,2,o),
(779,-12,o),
(861,-12,cs),
(1054,-12,o),
(1139,112,o),
(1139,266,cs),
(1139,388,o),
(1101,501,o),
(1004,615,c),
(847,526,l),
(917,440,o),
(949,345,o),
(949,253,cs),
(949,150,o),
(920,118,o),
(865,118,cs),
(839,118,o),
(818,126,o),
(804,141,cs),
(786,160,o),
(778,184,o),
(776,233,cs),
(770,377,o),
(738,462,o),
(667,518,cs),
(612,561,o),
(542,581,o),
(433,581,cs),
(214,581,o),
(37,469,o),
(37,247,cs),
(37,79,o),
(127,-12,o),
(284,-12,cs)
);
},
{
closed = 1;
nodes = (
(229,225,o),
(252,234,o),
(277,234,cs),
(315,234,o),
(340,217,o),
(340,174,cs),
(340,135,o),
(321,114,o),
(282,114,cs),
(236,114,o),
(213,149,o),
(209,211,c)
);
}
);
width = 1180;
}
);
note = uni0BB2;
unicode = 2994;
},
{
glyphname = uni0BB3;
layers = (
{
layerId = m01;
shapes = (
{
closed = 1;
nodes = (
(449,-12,o),
(521,61,o),
(521,177,cs),
(521,296,o),
(447,355,o),
(335,355,cs),
(293,355,o),
(257,345,o),
(224,329,c),
(252,407,o),
(318,451,o),
(405,451,cs),
(489,451,o),
(545,416,o),
(591,367,c),
(591,0,l),
(781,0,l),
(781,439,l),
(905,439,l),
(905,0,l),
(1095,0,l),
(1095,439,l),
(1227,439,l),
(1227,569,l),
(613,569,l),
(613,525,l),
(549,563,o),
(484,581,o),
(400,581,cs),
(212,581,o),
(37,469,o),
(37,248,cs),
(37,79,o),
(127,-12,o),
(285,-12,cs)
);
},
{
closed = 1;
nodes = (
(231,226,o),
(253,234,o),
(278,234,cs),
(315,234,o),
(340,217,o),
(340,174,cs),
(340,135,o),
(321,114,o),
(283,114,cs),
(236,114,o),
(214,149,o),
(210,212,c)
);
}
);
width = 1244;
}
);
note = uni0BB3;
unicode = 2995;
},
{
glyphname = uni0BB4;
layers = (
{
layerId = m01;
shapes = (
{
closed = 1;
nodes = (
(412,-123,ls),
(366,-87,o),
(327,-52,o),
(295,-12,cs),
(273,15,o),
(255,44,o),
(242,77,c),
(317,84,l),
(333,50,o),
(355,21,o),
(383,-6,c),
(356,-7,o),
(324,-10,o),
(295,-12,cs),
(201,-20,o),
(108,-27,o),
(58,0,c),
(31,35,o),
(21,83,o),
(20,133,cs),
(16,243,o),
(82,345,o),
(82,433,cs),
(82,456,o),
(77,479,o),
(65,500,c),
(141,500,l),
(152,479,o),
(156,452,o),
(156,428,cs),
(155,410,ls),
(155,364,o),
(135,314,o),
(125,284,cs),
(111,245,o),
(99,185,o),
(99,129,cs),
(99,113,o),
(100,98,o),
(102,83,c),
(136,69,o),
(186,71,o),
(242,77,c),
(228,112,o),
(220,152,o),
(220,197,cs),
(220,327,o),
(295,496,o),
(440,500,cs),
(581,504,o),
(617,375,o),
(612,260,c),
(600,130,o),
(550,111,o),
(519,-19,c),
(486,-5,o),
(437,-4,o),
(383,-6,c),
(422,-44,o),
(471,-75,o),
(521,-99,cs),
(565,-121,o),
(610,-126,o),
(652,-131,cs),
(684,-135,o),
(699,-141,o),
(713,-149,c),
(713,-183,o),
(684,-208,o),
(657,-226,c),
(447,-151,o),
(362,-303,o),
(186,-273,c),
(176,-269,o),
(107,-181,o),
(148,-151,c),
(261,-195,o),
(380,-144,o),
(437,-144,c)
);
},
{
closed = 1;
nodes = (
(287,178,o),
(296,128,o),
(317,84,c),
(367,88,o),
(418,90,o),
(460,77,c),
(485,114,o),
(510,169,o),
(519,213,cs),
(567,467,o),
(332,467,o),
(296,235,cs)
);
}
);
width = 703;
}
);
note = uni0BB4;
unicode = 2996;
},
{
glyphname = uni0BB5;
layers = (
{
layerId = m01;
shapes = (
{
closed = 1;
nodes = (
(449,-12,o),
(521,61,o),
(521,177,cs),
(521,293,o),
(450,355,o),
(335,355,cs),
(294,355,o),
(257,345,o),
(224,329,c),
(252,406,o),
(319,451,o),
(415,451,cs),
(528,451,o),
(601,381,o),
(601,259,cs),
(601,198,o),
(589,142,o),
(564,99,c),
(570,0,l),
(1126,0,l),
(1126,569,l),
(936,569,l),
(936,130,l),
(762,130,l),
(783,175,o),
(791,236,o),
(791,283,cs),
(791,446,o),
(686,581,o),
(429,581,cs),
(204,581,o),
(37,469,o),
(37,245,cs),
(37,79,o),
(127,-12,o),
(285,-12,cs)
);
},
{
closed = 1;
nodes = (
(231,226,o),
(253,234,o),
(278,234,cs),
(315,234,o),
(340,217,o),
(340,174,cs),
(340,135,o),
(321,114,o),
(283,114,cs),
(236,114,o),
(214,149,o),
(210,212,c)
);
}
);
width = 1194;
}
);
note = uni0BB5;
unicode = 2997;
},
{
glyphname = uni0BB6;
layers = (
{
layerId = m01;
shapes = (
{
closed = 1;
nodes = (
(438,-12,o),
(514,8,o),
(562,59,cs),
(599,99,o),
(619,156,o),
(619,257,cs),
(619,439,l),
(711,439,l),
(711,270,ls),
(711,166,o),
(730,109,o),
(766,67,cs),
(815,10,o),
(893,-12,o),
(992,-12,cs),
(1090,-12,o),
(1163,9,o),
(1210,59,cs),
(1249,101,o),
(1269,159,o),
(1269,258,cs),
(1269,569,l),
(429,569,l),
(429,260,ls),
(429,196,o),
(423,164,o),
(406,144,cs),
(392,128,o),
(372,120,o),
(342,120,cs),
(314,120,o),
(294,128,o),
(281,142,cs),
(261,162,o),
(255,199,o),
(255,260,cs),
(255,569,l),
(65,569,l),
(65,270,ls),
(65,170,o),
(84,114,o),
(118,70,cs),
(166,9,o),
(244,-12,o),
(344,-12,cs)
);
},
{
closed = 1;
nodes = (
(961,120,o),
(943,127,o),
(929,141,cs),
(910,161,o),
(901,192,o),
(901,259,cs),
(901,439,l),
(1079,439,l),
(1079,256,ls),
(1079,194,o),
(1072,164,o),
(1055,144,cs),
(1041,128,o),
(1021,120,o),
(990,120,cs)
);
}
);
width = 1334;
}
);
note = uni0BB6;
unicode = 2998;
},
{
glyphname = uni0BB7;
layers = (
{
layerId = m01;
shapes = (
{
closed = 1;
nodes = (
(900,581,o),
(841,484,o),
(841,390,cs),
(841,300,o),
(887,211,o),
(1055,190,c),
(1038,130,l),
(762,130,l),
(783,175,o),
(791,236,o),
(791,283,cs),
(791,446,o),
(686,581,o),
(428,581,cs),
(204,581,o),
(37,469,o),
(37,245,cs),
(37,79,o),
(127,-12,o),
(285,-12,cs),
(449,-12,o),
(521,61,o),
(521,177,cs),
(521,293,o),
(450,355,o),
(335,355,cs),
(294,355,o),
(257,345,o),
(224,329,c),
(252,406,o),
(319,451,o),
(415,451,cs),
(528,451,o),
(601,381,o),
(601,259,cs),
(601,198,o),
(589,142,o),
(564,99,c),
(570,0,l),
(1007,0,l),
(940,-236,l),
(1117,-284,l),
(1196,0,l),
(1538,0,l),
(1538,368,l),
(1378,368,l),
(1351,347,o),
(1318,329,o),
(1279,318,c),
(1283,340,o),
(1286,365,o),
(1286,393,cs),
(1286,493,o),
(1228,581,o),
(1069,581,cs)
);
},
{
closed = 1;
nodes = (
(231,226,o),
(253,234,o),
(278,234,cs),
(315,234,o),
(340,217,o),
(340,174,cs),
(340,135,o),
(321,114,o),
(283,114,cs),
(236,114,o),
(214,149,o),
(210,212,c)
);
},
{
closed = 1;
nodes = (
(1007,423,o),
(1026,453,o),
(1059,453,cs),
(1091,453,o),
(1101,426,o),
(1101,394,cs),
(1101,364,o),
(1095,340,o),
(1088,310,c),
(1029,318,o),
(1007,345,o),
(1007,390,cs)
);
},
{
closed = 1;
nodes = (
(1232,130,l),
(1248,188,l),
(1313,196,o),
(1357,218,o),
(1380,232,c),
(1378,184,l),
(1378,130,l)
);
}
);
width = 1595;
}
);
note = uni0BB7;
unicode = 2999;
},
{
glyphname = uni0BB8;
layers = (
{
layerId = m01;
shapes = (
{
closed = 1;
nodes = (
(449,-12,o),
(521,61,o),
(521,177,cs),
(521,295,o),
(447,355,o),
(335,355,cs),
(294,355,o),
(258,345,o),
(225,329,c),
(254,407,o),
(321,451,o),
(415,451,cs),
(474,451,o),
(511,436,o),
(536,413,cs),
(580,373,o),
(589,307,o),
(589,242,cs),
(589,0,l),
(779,0,l),
(779,326,ls),
(779,381,o),
(786,412,o),
(803,432,cs),
(814,445,o),
(830,451,o),
(850,451,cs),
(871,451,o),
(884,444,o),
(893,431,cs),
(909,410,o),
(911,374,o),
(911,332,cs),
(911,254,ls),
(911,127,o),
(949,65,o),
(1002,30,cs),
(1045,2,o),
(1098,-12,o),
(1180,-12,cs),
(1373,-12,o),
(1458,112,o),
(1458,266,cs),
(1458,388,o),
(1420,501,o),
(1323,615,c),
(1166,526,l),
(1236,439,o),
(1268,345,o),
(1268,253,cs),
(1268,150,o),
(1239,118,o),
(1184,118,cs),
(1158,118,o),
(1137,126,o),
(1123,141,cs),
(1106,160,o),
(1098,184,o),
(1098,253,cs),
(1098,316,ls),
(1098,413,o),
(1076,485,o),
(1023,532,cs),
(988,563,o),
(940,581,o),
(876,581,cs),
(782,581,o),
(719,545,o),
(668,481,c),
(609,541,o),
(536,581,o),
(419,581,cs),
(213,581,o),
(37,469,o),
(37,245,cs),
(37,79,o),
(127,-12,o),
(284,-12,cs)
);
},
{
closed = 1;
nodes = (
(231,226,o),
(252,234,o),
(277,234,cs),
(315,234,o),
(340,217,o),
(340,174,cs),
(340,135,o),
(321,114,o),
(282,114,cs),
(235,114,o),
(214,149,o),
(210,212,c)
);
}
);
width = 1499;
}
);
note = uni0BB8;
unicode = 3000;
},
{
glyphname = uni0BB9;
layers = (
{
layerId = m01;
shapes = (
{
closed = 1;
nodes = (
(1450,581,o),
(1388,548,o),
(1337,488,c),
(1296,546,o),
(1245,581,o),
(1156,581,cs),
(1092,581,o),
(1042,565,o),
(1004,536,cs),
(949,494,o),
(917,429,o),
(917,310,cs),
(917,130,l),
(762,130,l),
(783,175,o),
(791,236,o),
(791,283,cs),
(791,446,o),
(686,581,o),
(428,581,cs),
(204,581,o),
(37,469,o),
(37,245,cs),
(37,79,o),
(127,-12,o),
(285,-12,cs),
(449,-12,o),
(521,61,o),
(521,177,cs),
(521,293,o),
(450,355,o),
(335,355,cs),
(293,355,o),
(257,345,o),
(224,329,c),
(252,406,o),
(318,451,o),
(415,451,cs),
(528,451,o),
(601,381,o),
(601,259,cs),
(601,198,o),
(589,142,o),
(564,99,c),
(570,0,l),
(1107,0,l),
(1107,304,ls),
(1107,366,o),
(1109,407,o),
(1130,432,cs),
(1140,444,o),
(1155,451,o),
(1175,451,cs),
(1195,451,o),
(1208,443,o),
(1218,431,cs),
(1236,408,o),
(1238,372,o),
(1238,297,cs),
(1238,0,l),
(1428,0,l),
(1428,298,ls),
(1428,364,o),
(1436,403,o),
(1464,429,cs),
(1479,443,o),
(1499,451,o),
(1528,451,cs),
(1604,451,o),
(1650,379,o),
(1650,236,cs),
(1650,0,o),
(1555,-50,o),
(1331,-50,cs),
(300,-50,ls),
(192,-50,o),
(146,-62,o),
(102,-91,cs),
(58,-120,o),
(30,-169,o),
(30,-231,cs),
(30,-262,o),
(32,-291,o),
(36,-322,c),
(223,-312,l),
(221,-299,o),
(220,-286,o),
(220,-269,cs),
(220,-235,o),
(231,-214,o),
(250,-200,cs),
(273,-184,o),
(300,-180,o),
(361,-180,cs),
(1344,-180,ls),
(1524,-180,o),
(1629,-157,o),
(1714,-88,cs),
(1790,-27,o),
(1840,73,o),
(1840,239,cs),
(1840,456,o),
(1734,581,o),
(1544,581,cs)
);
},
{
closed = 1;
nodes = (
(231,226,o),
(253,234,o),
(278,234,cs),
(315,234,o),
(340,217,o),
(340,174,cs),
(340,135,o),
(321,114,o),
(283,114,cs),
(236,114,o),
(214,149,o),
(210,212,c)
);
}
);
width = 1885;
}
);
note = uni0BB9;
unicode = 3001;
},
{
glyphname = uni0BBE;
layers = (
{
layerId = m01;
shapes = (
{
closed = 1;
nodes = (
(431,0,l),
(391,55,o),
(372,127,o),
(366,190,c),
(363,283,o),
(402,353,o),
(441,375,c),
(500,364,o),
(520,387,o),
(531,400,cs),
(570,445,o),
(577,515,o),
(555,526,c),
(507,497,o),
(460,488,o),
(412,492,cs),
(347,500,o),
(300,525,o),
(232,531,cs),
(135,540,o),
(87,494,o),
(58,456,c),
(101,355,o),
(20,273,o),
(20,133,cs),
(20,65,o),
(37,29,o),
(58,0,c),
(135,0,l),
(100,62,o),
(83,144,o),
(125,284,cs),
(135,314,o),
(161,385,o),
(161,431,c),
(164,433,o),
(196,438,o),
(219,435,cs),
(280,427,o),
(306,411,o),
(351,400,c),
(256,297,o),
(272,139,o),
(336,0,c)
);
}
);
width = 557;
}
);
note = uni0BBE;
unicode = 3006;
},
{
glyphname = uni0BBF;
layers = (
{
layerId = m01;
shapes = (
{
closed = 1;
nodes = (
(-204,440,l),
(-213,445,o),
(-250,503,o),
(-250,563,cs),
(-250,620,o),
(-201,719,o),
(-74,719,cs),
(39,719,o),
(167,643,o),
(188,550,cs),
(192,533,o),
(194,515,o),
(194,497,cs),
(194,389,o),
(137,259,o),
(137,160,cs),
(137,152,o),
(137,143,o),
(138,135,cs),
(142,72,o),
(157,26,o),
(166,0,c),
(93,0,l),
(77,33,o),
(64,84,o),
(64,152,cs),
(64,256,o),
(127,395,o),
(127,487,cs),
(127,509,o),
(123,528,o),
(115,543,cs),
(78,611,o),
(4,642,o),
(-59,642,cs),
(-124,642,o),
(-179,609,o),
(-179,546,cs),
(-179,519,o),
(-168,487,o),
(-144,449,c)
);
}
);
width = 214;
}
);
note = uni0BBF;
unicode = 3007;
},
{
glyphname = uni0BC0;
layers = (
{
layerId = m01;
shapes = (
{
closed = 1;
nodes = (
(-441,851,o),
(-521,729,o),
(-521,632,cs),
(-521,583,o),
(-513,547,o),
(-495,510,c),
(-351,536,l),
(-363,562,o),
(-370,586,o),
(-370,616,cs),
(-370,652,o),
(-357,677,o),
(-337,697,c),
(-333,623,o),
(-287,576,o),
(-171,576,cs),
(-53,576,o),
(8,626,o),
(8,707,cs),
(8,792,o),
(-62,851,o),
(-213,851,cs)
);
},
{
closed = 1;
nodes = (
(-222,725,o),
(-220,735,o),
(-217,743,c),
(-208,744,o),
(-201,744,o),
(-194,744,cs),
(-159,744,o),
(-134,733,o),
(-134,706,cs),
(-134,684,o),
(-147,669,o),
(-175,669,cs),
(-207,669,o),
(-222,684,o),
(-222,715,cs)
);
}
);
width = 0;
}
);
note = uni0BC0;
unicode = 3008;
},
{
glyphname = uni0BC1;
layers = (
{
layerId = m01;
shapes = (
{
closed = 1;
nodes = (
(494,196,o),
(540,293,o),
(540,385,cs),
(540,454,o),
(506,509,o),
(445,539,cs),
(407,558,o),
(358,569,o),
(268,569,cs),
(-244,569,l),
(-244,439,l),
(67,439,l),
(66,431,o),
(66,425,o),
(66,417,cs),
(66,302,o),
(128,196,o),
(313,196,cs)
);
},
{
closed = 1;
nodes = (
(239,414,o),
(241,427,o),
(244,439,c),
(249,439,ls),
(300,439,o),
(329,434,o),
(348,419,cs),
(360,410,o),
(367,396,o),
(367,376,cs),
(367,343,o),
(347,322,o),
(310,322,cs),
(272,322,o),
(239,341,o),
(239,401,cs)
);
}
);
width = 570;
}
);
note = uni0BC1;
unicode = 3009;
},
{
glyphname = uni0BC2;
layers = (
{
layerId = m01;
shapes = (
{
closed = 1;
nodes = (
(714,-12,o),
(891,110,o),
(891,409,cs),
(891,605,o),
(782,792,o),
(494,792,cs),
(288,792,o),
(153,693,o),
(105,569,c),
(-244,569,l),
(-244,439,l),
(92,439,l),
(92,309,o),
(162,199,o),
(339,199,cs),
(521,199,o),
(566,293,o),
(566,385,cs),
(566,454,o),
(532,509,o),
(471,539,cs),
(433,558,o),
(384,569,o),
(294,569,cs),
(290,569,l),
(327,625,o),
(392,662,o),
(484,662,cs),
(619,662,o),
(701,571,o),
(701,404,cs),
(701,224,o),
(610,121,o),
(429,121,cs),
(314,121,o),
(236,148,o),
(137,211,c),
(66,84,l),
(175,20,o),
(302,-12,o),
(439,-12,cs)
);
},
{
closed = 1;
nodes = (
(265,439,l),
(275,439,ls),
(326,439,o),
(355,434,o),
(374,419,cs),
(386,409,o),
(393,396,o),
(393,376,cs),
(393,343,o),
(373,322,o),
(336,322,cs),
(289,322,o),
(265,353,o),
(265,415,cs)
);
}
);
width = 935;
}
);
note = uni0BC2;
unicode = 3010;
},
{
glyphname = uni0BC6;
layers = (
{
layerId = m01;
shapes = (
{
closed = 1;
nodes = (
(-19,709,o),
(-40,75,o),
(102,4,c),
(162,-31,o),
(235,34,o),
(235,118,cs),
(235,140,o),
(226,184,o),
(195,194,cs),
(154,207,o),
(122,199,o),
(90,192,c),
(90,842,o),
(717,559,o),
(318,0,c),
(411,0,l),
(567,246,o),
(587,579,o),
(334,642,c)
);
},
{
closed = 1;
nodes = (
(121,134,o),
(154,136,o),
(162,125,c),
(168,99,o),
(152,81,o),
(140,72,cs),
(119,56,o),
(100,90,o),
(100,125,c)
);
}
);
width = 547;
}
);
note = uni0BC6;
unicode = 3014;
},
{
glyphname = uni0BC7;
layers = (
{
layerId = m01;
shapes = (
{
closed = 1;
nodes = (
(706,-12,o),
(794,78,o),
(794,197,cs),
(794,295,o),
(728,388,o),
(561,388,cs),
(406,388,o),
(340,306,o),
(340,212,cs),
(340,188,o),
(343,169,o),
(348,151,c),
(278,196,o),
(224,282,o),
(224,416,cs),
(224,552,o),
(286,647,o),
(360,691,c),
(356,674,o),
(353,655,o),
(353,636,cs),
(353,538,o),
(424,456,o),
(577,456,cs),
(737,456,o),
(806,544,o),
(806,642,cs),
(806,785,o),
(689,851,o),
(508,851,cs),
(233,851,o),
(42,687,o),
(42,416,cs),
(42,140,o),
(227,-12,o),
(501,-12,cs)
);
},
{
closed = 1;
nodes = (
(504,134,o),
(495,162,o),
(495,193,cs),
(495,237,o),
(518,264,o),
(556,264,cs),
(598,264,o),
(615,230,o),
(615,194,cs),
(615,162,o),
(599,112,o),
(516,112,c)
);
},
{
closed = 1;
nodes = (
(508,678,o),
(517,705,o),
(530,727,c),
(531,727,ls),
(608,727,o),
(627,680,o),
(627,648,cs),
(627,609,o),
(612,580,o),
(570,580,cs),
(540,580,o),
(508,596,o),
(508,650,cs)
);
}
);
width = 825;
}
);
note = uni0BC7;
unicode = 3015;
},
{
glyphname = uni0BC8;
layers = (
{
layerId = m01;
shapes = (
{
closed = 1;
nodes = (
(108,134,o),
(143,136,o),
(151,125,c),
(157,99,o),
(141,81,o),
(129,72,cs),
(108,56,o),
(87,90,o),
(87,125,c)
);
},
{
closed = 1;
nodes = (
(443,249,o),
(447,94,o),
(376,86,c),
(285,86,o),
(313,266,o),
(387,334,c)
);
},
{
closed = 1;
nodes = (
(539,16,o),
(534,255,o),
(447,382,c),
(683,517,o),
(767,199,o),
(567,1,c),
(658,1,l),
(925,350,o),
(618,609,o),
(400,437,c),
(370,465,o),
(335,484,o),
(299,488,c),
(20,534,o),
(-51,75,o),
(91,4,c),
(151,-31,o),
(224,34,o),
(224,118,cs),
(224,140,o),
(215,184,o),
(184,194,cs),
(143,207,o),
(111,199,o),
(79,192,c),
(87,317,o),
(163,415,o),
(268,415,cs),
(295,415,o),
(321,403,o),
(344,383,c),
(299,326,o),
(263,276,o),
(257,189,cs),
(246,31,o),
(325,-7,o),
(390,0,cs)
);
}
);
width = 782;
}
);
note = uni0BC8;
unicode = 3016;
},
{
glyphname = uni0BCA;
layers = (
{
layerId = m01;
shapes = (
{
closed = 1;
nodes = (
(1,709,o),
(-20,75,o),
(122,4,c),
(182,-31,o),
(255,34,o),
(255,118,cs),
(255,140,o),
(246,184,o),
(215,194,cs),
(174,207,o),
(142,199,o),
(110,192,c),
(110,842,o),
(737,559,o),
(338,0,c),
(431,0,l),
(587,246,o),
(607,579,o),
(354,642,c)
);
},
{
closed = 1;
nodes = (
(141,134,o),
(174,136,o),
(182,125,c),
(188,99,o),
(172,81,o),
(160,72,cs),
(139,56,o),
(120,90,o),
(120,125,c)
);
},
{
closed = 1;
nodes = (
(1027,290,o),
(1070,292,o),
(1081,278,c),
(1089,244,o),
(1068,221,o),
(1052,209,cs),
(1025,188,o),
(1000,232,o),
(1000,278,c)
);
},
{
closed = 1;
nodes = (
(1725,0,l),
(1685,55,o),
(1666,127,o),
(1660,190,c),
(1657,283,o),
(1696,353,o),
(1735,375,c),
(1794,364,o),
(1814,387,o),
(1825,400,cs),
(1864,445,o),
(1871,515,o),
(1849,526,c),
(1801,497,o),
(1754,488,o),
(1706,492,cs),
(1641,500,o),
(1594,525,o),
(1526,531,cs),
(1429,540,o),
(1381,494,o),
(1352,456,c),
(1395,355,o),
(1314,273,o),
(1314,133,cs),
(1314,65,o),
(1331,29,o),
(1352,0,c),
(1429,0,l),
(1394,62,o),
(1377,144,o),
(1419,284,cs),
(1429,314,o),
(1455,385,o),
(1455,431,c),
(1458,433,o),
(1490,438,o),
(1513,435,cs),
(1574,427,o),
(1600,411,o),
(1645,400,c),
(1550,297,o),
(1566,139,o),
(1630,0,c)
);
}
);
width = 1881;
}
);
note = uni0BCA;
unicode = 3018;
},
{
glyphname = uni0BCB;
layers = (
{
layerId = m01;
shapes = (
{
closed = 1;
nodes = (
(706,-12,o),
(794,78,o),
(794,197,cs),
(794,205,l),
(777,212,o),
(763,245,o),
(763,278,c),
(767,280,o),
(771,281,o),
(775,282,c),
(745,342,o),
(677,388,o),
(561,388,cs),
(406,388,o),
(340,306,o),
(340,212,cs),
(340,188,o),
(343,169,o),
(348,151,c),
(278,196,o),
(224,282,o),
(224,416,cs),
(224,552,o),
(286,647,o),
(360,691,c),
(356,674,o),
(353,655,o),
(353,636,cs),
(353,538,o),
(424,456,o),
(577,456,cs),
(737,456,o),
(806,544,o),
(806,642,cs),
(806,785,o),
(689,851,o),
(508,851,cs),
(233,851,o),
(42,687,o),
(42,416,cs),
(42,140,o),
(227,-12,o),
(501,-12,cs)
);
},
{
closed = 1;
nodes = (
(1488,0,l),
(1448,55,o),
(1429,127,o),
(1423,190,c),
(1420,283,o),
(1459,353,o),
(1498,375,c),
(1557,364,o),
(1577,387,o),
(1588,400,cs),
(1627,445,o),
(1634,515,o),
(1612,526,c),
(1564,497,o),
(1517,488,o),
(1469,492,cs),
(1404,500,o),
(1357,525,o),
(1289,531,cs),
(1192,540,o),
(1144,494,o),
(1115,456,c),
(1158,355,o),
(1077,273,o),
(1077,133,cs),
(1077,65,o),
(1094,29,o),
(1115,0,c),
(1192,0,l),
(1157,62,o),
(1140,144,o),
(1182,284,cs),
(1192,314,o),
(1218,385,o),
(1218,431,c),
(1221,433,o),
(1253,438,o),
(1276,435,cs),
(1337,427,o),
(1363,411,o),
(1408,400,c),
(1313,297,o),
(1329,139,o),
(1393,0,c)
);
},
{
closed = 1;
nodes = (
(504,134,o),
(495,162,o),
(495,193,cs),
(495,237,o),
(518,264,o),
(556,264,cs),
(598,264,o),
(615,230,o),
(615,194,cs),
(615,162,o),
(599,112,o),
(516,112,c)
);
},
{
closed = 1;
nodes = (
(508,678,o),
(517,705,o),
(530,727,c),
(531,727,ls),
(608,727,o),
(627,680,o),
(627,648,cs),
(627,609,o),
(612,580,o),
(570,580,cs),
(540,580,o),
(508,596,o),
(508,650,cs)
);
},
{
closed = 1;
nodes = (
(802,290,o),
(834,291,o),
(844,278,c),
(852,244,o),
(831,221,o),
(815,209,cs),
(807,203,o),
(801,202,o),
(794,205,c),
(793,232,o),
(787,258,o),
(775,282,c)
);
}
);
width = 1786;
}
);
note = uni0BCB;
unicode = 3019;
},
{
glyphname = uni0BCC;
layers = (
{
layerId = m01;
shapes = (
{
closed = 1;
nodes = (
(-19,709,o),
(-40,75,o),
(102,4,c),
(162,-31,o),
(235,34,o),
(235,118,cs),
(235,140,o),
(226,184,o),
(195,194,cs),
(154,207,o),
(122,199,o),
(90,192,c),
(90,842,o),
(717,559,o),
(318,0,c),
(411,0,l),
(567,246,o),
(587,579,o),
(334,642,c)
);
},
{
closed = 1;
nodes = (
(121,134,o),
(154,136,o),
(162,125,c),
(168,99,o),
(152,81,o),
(140,72,cs),
(119,56,o),
(100,90,o),
(100,125,c)
);
},
{
closed = 1;
nodes = (
(1007,290,o),
(1050,292,o),
(1061,278,c),
(1069,244,o),
(1048,221,o),
(1032,209,cs),
(1005,188,o),
(980,232,o),
(980,278,c)
);
},
{
closed = 1;
nodes = (
(1723,-12,o),
(1795,61,o),
(1795,177,cs),
(1795,296,o),
(1721,355,o),
(1609,355,cs),
(1567,355,o),
(1531,345,o),
(1498,329,c),
(1526,407,o),
(1592,451,o),
(1679,451,cs),
(1763,451,o),
(1819,416,o),
(1865,367,c),
(1865,0,l),
(2055,0,l),
(2055,439,l),
(2179,439,l),
(2179,0,l),
(2369,0,l),
(2369,439,l),
(2501,439,l),
(2501,569,l),
(1887,569,l),
(1887,525,l),
(1823,563,o),
(1758,581,o),
(1674,581,cs),
(1486,581,o),
(1311,469,o),
(1311,248,cs),
(1311,79,o),
(1401,-12,o),
(1559,-12,cs)
);
},
{
closed = 1;
nodes = (
(1505,226,o),
(1527,234,o),
(1552,234,cs),
(1589,234,o),
(1614,217,o),
(1614,174,cs),
(1614,135,o),
(1595,114,o),
(1557,114,cs),
(1510,114,o),
(1488,149,o),
(1484,212,c)
);
}
);
width = 2518;
}
);
note = uni0BCC;
unicode = 3020;
},
{
glyphname = uni0BCD;
layers = (
{
layerId = m01;
shapes = (
{
closed = 1;
nodes = (
(-423,671,o),
(-380,673,o),
(-369,659,c),
(-361,625,o),
(-382,602,o),
(-398,590,cs),
(-425,569,o),
(-450,613,o),
(-450,659,c)
);
}
);
width = 50;
}
);
note = uni0BCD;
unicode = 3021;
},
{
glyphname = uni0BD0;
layers = (
{
layerId = m01;
shapes = (
{
closed = 1;
nodes = (
(443,622,o),
(253,594,o),
(137,506,cs),
(77,461,o),
(33,399,o),
(33,307,cs),
(33,174,o),
(120,85,o),
(264,85,cs),
(383,85,o),
(482,134,o),
(482,268,cs),
(482,378,o),
(401,433,o),
(306,433,cs),
(300,433,o),
(294,433,o),
(287,432,c),
(380,474,o),
(504,486,o),
(648,486,cs),
(987,486,o),
(1112,407,o),
(1112,279,cs),
(1112,234,o),
(1093,202,o),
(1056,202,cs),
(1009,202,o),
(994,234,o),
(994,282,cs),
(994,308,o),
(999,341,o),
(1011,367,c),
(861,435,l),
(730,385,o),
(653,295,o),
(653,166,cs),
(653,96,o),
(686,14,o),
(776,-39,c),
(695,-168,o),
(626,-192,o),
(449,-192,cs),
(326,-192,o),
(241,-168,o),
(241,-95,cs),
(241,-72,o),
(246,-51,o),
(261,-26,c),
(123,40,l),
(95,-7,o),
(78,-53,o),
(78,-111,cs),
(78,-247,o),
(201,-321,o),
(437,-321,cs),
(459,-321,ls),
(668,-321,o),
(848,-295,o),
(960,-94,c),
(981,-96,o),
(1008,-97,o),
(1039,-97,cs),
(1200,-97,l),
(1200,32,l),
(1081,32,ls),
(944,32,o),
(897,46,o),
(858,76,cs),
(824,102,o),
(807,139,o),
(807,185,cs),
(807,211,o),
(813,252,o),
(855,290,c),
(851,271,o),
(849,249,o),
(849,241,cs),
(849,148,o),
(911,78,o),
(1057,78,cs),
(1240,78,o),
(1300,185,o),
(1300,288,cs),
(1300,382,o),
(1257,446,o),
(1194,494,cs),
(1066,592,o),
(879,622,o),
(638,622,cs)
);
},
{
closed = 1;
nodes = (
(513,99,o),
(494,93,o),
(476,81,cs),
(452,65,o),
(440,42,o),
(440,-3,cs),
(440,-77,l),
(393,-77,l),
(393,73,l),
(296,73,l),
(296,-143,l),
(533,-143,ls),
(594,-143,o),
(624,-136,o),
(651,-113,cs),
(668,-98,o),
(679,-74,o),
(679,-37,cs),
(679,3,o),
(666,36,o),
(644,59,cs),
(621,84,o),
(591,99,o),
(546,99,cs)
);
},
{
closed = 1;
nodes = (
(572,33,o),
(587,9,o),
(587,-31,cs),
(587,-59,o),
(579,-77,o),
(550,-77,cs),
(534,-77,l),
(534,12,ls),
(534,25,o),
(540,33,o),
(550,33,cs)
);
},
{
closed = 1;
nodes = (
(591,121,o),
(618,146,o),
(618,179,cs),
(618,211,o),
(592,235,o),
(559,235,cs),
(527,235,o),
(502,211,o),
(502,179,cs),
(502,146,o),
(525,121,o),
(559,121,cs)
);
},
{
closed = 1;
nodes = (
(192,299,l),
(213,316,o),
(236,326,o),
(264,326,cs),
(299,326,o),
(324,309,o),
(324,271,cs),
(324,230,o),
(301,209,o),
(264,209,cs),
(205,209,o),
(192,264,o),
(192,298,cs)
);
}
);
width = 1333;
}
);
note = uni0BD0;
unicode = 3024;
},
{
glyphname = uni0BD7;
layers = (
{
layerId = m01;
shapes = (
{
closed = 1;
nodes = (
(449,-12,o),
(521,61,o),
(521,177,cs),
(521,296,o),
(447,355,o),
(335,355,cs),
(293,355,o),
(257,345,o),
(224,329,c),
(252,407,o),
(318,451,o),
(405,451,cs),
(489,451,o),
(545,416,o),
(591,367,c),
(591,0,l),
(781,0,l),
(781,439,l),
(905,439,l),
(905,0,l),
(1095,0,l),
(1095,439,l),
(1227,439,l),
(1227,569,l),
(613,569,l),
(613,525,l),
(549,563,o),
(484,581,o),
(400,581,cs),
(212,581,o),
(37,469,o),
(37,248,cs),
(37,79,o),
(127,-12,o),
(285,-12,cs)
);
},
{
closed = 1;
nodes = (
(231,226,o),
(253,234,o),
(278,234,cs),
(315,234,o),
(340,217,o),
(340,174,cs),
(340,135,o),
(321,114,o),
(283,114,cs),
(236,114,o),
(214,149,o),
(210,212,c)
);
}
);
width = 1244;
}
);
note = uni0BD7;
unicode = 3031;
},
{
glyphname = uni0BE6;
layers = (
{
layerId = m01;
shapes = (
{
closed = 1;
nodes = (
(560,-12,o),
(662,104,o),
(662,286,cs),
(662,467,o),
(545,581,o),
(350,581,cs),
(155,581,o),
(38,467,o),
(38,286,cs),
(38,104,o),
(137,-12,o),
(349,-12,cs)
);
},
{
closed = 1;
nodes = (
(430,448,o),
(469,386,o),
(469,285,cs),
(469,184,o),
(434,120,o),
(350,120,cs),
(266,120,o),
(231,184,o),
(231,285,cs),
(231,386,o),
(270,448,o),
(350,448,cs)
);
}
);
width = 701;
}
);
note = uni0BE6;
unicode = 3046;
},
{
glyphname = uni0BE7;
layers = (
{
layerId = m01;
shapes = (
{
closed = 1;
nodes = (
(217,338,o),
(254,341,o),
(286,345,c),
(289,375,o),
(308,404,o),
(324,424,c),
(301,433,o),
(274,438,o),
(249,438,cs),
(226,438,o),
(208,432,o),
(188,430,c),
(198,392,o),
(193,350,o),
(183,322,c)
);
},
{
closed = 1;
nodes = (
(219,270,o),
(114,236,o),
(92,169,cs),
(71,103,o),
(125,84,o),
(142,75,c),
(229,47,o),
(254,98,o),
(260,109,c),
(282,141,o),
(267,218,o),
(276,275,c)
);
},
{
closed = 1;
nodes = (
(436,84,o),
(451,71,o),
(478,73,c),
(573,86,o),
(524,254,o),
(346,277,c),
(332,213,o),
(346,124,o),
(325,86,c),
(317,64,o),
(260,-15,o),
(172,-10,cs),
(106,-6,o),
(20,47,o),
(20,151,cs),
(20,192,o),
(51,244,o),
(95,274,c),
(131,360,o),
(131,417,o),
(111,459,c),
(146,504,o),
(193,527,o),
(270,527,cs),
(344,527,o),
(375,500,o),
(442,492,cs),
(490,488,o),
(537,497,o),
(585,526,c),
(607,515,o),
(600,445,o),
(561,400,cs),
(547,383,o),
(510,352,o),
(412,392,c),
(396,383,o),
(375,372,o),
(363,338,c),
(511,308,o),
(595,225,o),
(595,135,cs),
(595,77,o),
(577,11,o),
(485,-1,cs),
(454,-5,o),
(394,12,o),
(369,72,c),
(379,101,o),
(400,116,o),
(423,120,c),
(424,115,o),
(426,110,o),
(428,105,cs)
);
}
);
width = 967;
}
);
note = uni0BE7;
unicode = 3047;
},
{
glyphname = uni0BE8;
layers = (
{
layerId = m01;
shapes = (
{
closed = 1;
nodes = (
(161,581,o),
(48,492,o),
(48,382,cs),
(48,321,o),
(70,275,o),
(107,236,c),
(53,209,o),
(37,164,o),
(37,130,cs),
(37,64,o),
(72,0,o),
(237,0,cs),
(1082,0,l),
(1082,130,l),
(230,130,ls),
(217,130,o),
(211,134,o),
(211,140,cs),
(211,147,o),
(219,150,o),
(237,151,cs),
(359,161,ls),
(530,175,o),
(706,218,o),
(706,374,cs),
(706,475,o),
(616,581,o),
(365,581,cs)
);
},
{
closed = 1;
nodes = (
(228,415,o),
(271,449,o),
(362,449,cs),
(453,449,o),
(516,429,o),
(516,368,cs),
(516,309,o),
(464,281,o),
(295,267,cs),
(281,266,l),
(248,295,o),
(228,326,o),
(228,365,cs)
);
}
);
width = 1099;
}
);
note = uni0BE8;
unicode = 3048;
},
{
glyphname = uni0BE9;
layers = (
{
layerId = m01;
shapes = (
{
closed = 1;
nodes = (
(68,0,l),
(258,0,l),
(258,439,l),
(378,439,l),
(378,172,l),
(568,172,l),
(568,214,l),
(595,232,o),
(618,240,o),
(643,240,cs),
(676,240,o),
(698,221,o),
(698,185,cs),
(698,159,o),
(691,144,o),
(682,130,c),
(378,130,l),
(378,0,l),
(1158,0,l),
(1158,130,l),
(867,130,l),
(878,149,o),
(887,174,o),
(887,217,cs),
(887,289,o),
(832,370,o),
(697,370,cs),
(647,370,o),
(608,361,o),
(568,338,c),
(568,439,l),
(771,439,l),
(771,569,l),
(68,569,l)
);
}
);
width = 1175;
}
);
note = uni0BE9;
unicode = 3049;
},
{
glyphname = uni0BEA;
layers = (
{
layerId = m01;
shapes = (
{
closed = 1;
nodes = (
(424,-12,o),
(498,8,o),
(549,55,cs),
(592,95,o),
(616,154,o),
(619,234,c),
(1068,234,l),
(1068,569,l),
(878,569,l),
(878,355,l),
(619,355,l),
(619,439,l),
(790,439,l),
(790,569,l),
(129,569,l),
(129,313,l),
(61,280,o),
(33,230,o),
(33,168,cs),
(33,50,o),
(131,-12,o),
(313,-12,cs)
);
},
{
closed = 1;
nodes = (
(217,196,o),
(227,211,o),
(247,221,cs),
(269,231,o),
(296,234,o),
(353,234,cs),
(434,234,l),
(432,142,o),
(387,118,o),
(315,118,cs),
(253,118,o),
(217,133,o),
(217,176,cs)
);
},
{
closed = 1;
nodes = (
(300,439,l),
(434,439,l),
(434,355,l),
(379,355,ls),
(351,355,o),
(325,354,o),
(300,352,c)
);
}
);
width = 1128;
}
);
note = uni0BEA;
unicode = 3050;
},
{
glyphname = uni0BEB;
layers = (
{
layerId = m01;
shapes = (
{
closed = 1;
nodes = (
(664,-321,ls),
(974,-321,o),
(1198,-180,o),
(1198,94,cs),
(1198,239,o),
(1114,346,o),
(976,346,cs),
(942,346,o),
(907,340,o),
(877,330,c),
(877,439,l),
(1009,439,l),
(1009,569,l),
(373,569,l),
(373,0,l),
(563,0,l),
(563,439,l),
(687,439,l),
(687,0,l),
(877,0,l),
(877,207,l),
(890,213,o),
(905,217,o),
(920,217,cs),
(978,217,o),
(1008,175,o),
(1008,84,cs),
(1008,-86,o),
(889,-188,o),
(662,-188,cs),
(637,-188,ls),
(381,-188,o),
(233,-60,o),
(233,249,cs),
(233,274,ls),
(233,589,o),
(414,718,o),
(660,718,cs),
(835,718,o),
(929,675,o),
(1082,593,c),
(1147,727,l),
(997,800,o),
(870,851,o),
(663,851,cs),
(226,851,o),
(51,555,o),
(51,266,cs),
(51,245,ls),
(51,-86,o),
(248,-321,o),
(643,-321,cs)
);
}
);
width = 1231;
}
);
note = uni0BEB;
unicode = 3051;
},
{
glyphname = uni0BEC;
layers = (
{
layerId = m01;
shapes = (
{
closed = 1;
nodes = (
(424,-12,o),
(498,8,o),
(549,55,cs),
(592,95,o),
(616,154,o),
(619,234,c),
(689,234,l),
(689,0,l),
(859,0,l),
(859,234,l),
(933,234,l),
(933,0,l),
(1103,0,l),
(1103,234,l),
(1178,234,l),
(1178,355,l),
(619,355,l),
(619,439,l),
(810,439,l),
(810,569,l),
(129,569,l),
(129,313,l),
(61,280,o),
(33,230,o),
(33,168,cs),
(33,50,o),
(131,-12,o),
(313,-12,cs)
);
},
{
closed = 1;
nodes = (
(217,196,o),
(227,211,o),
(247,221,cs),
(269,231,o),
(296,234,o),
(353,234,cs),
(434,234,l),
(432,142,o),
(387,118,o),
(315,118,cs),
(253,118,o),
(217,133,o),
(217,176,cs)
);
},
{
closed = 1;
nodes = (
(300,439,l),
(434,439,l),
(434,355,l),
(379,355,ls),
(351,355,o),
(325,354,o),
(300,352,c)
);
}
);
width = 1204;
}
);
note = uni0BEC;
unicode = 3052;
},
{
glyphname = uni0BED;
layers = (
{
layerId = m01;
shapes = (
{
closed = 1;
nodes = (
(449,353,o),
(410,283,o),
(413,190,c),
(419,127,o),
(438,55,o),
(478,0,c),
(383,0,l),
(351,70,o),
(331,144,o),
(331,214,cs),
(331,284,o),
(351,349,o),
(398,400,c),
(352,411,o),
(331,427,o),
(266,435,cs),
(130,448,o),
(99,308,o),
(103,192,c),
(123,196,o),
(142,201,o),
(164,201,cs),
(177,201,o),
(192,199,o),
(208,194,cs),
(239,184,o),
(248,140,o),
(248,118,cs),
(248,50,o),
(200,-6,o),
(150,-6,cs),
(138,-6,o),
(126,-3,o),
(115,4,c),
(56,33,o),
(20,131,o),
(20,234,cs),
(20,380,o),
(93,539,o),
(279,531,c),
(351,524,o),
(392,500,o),
(459,492,cs),
(507,488,o),
(554,497,o),
(602,526,c),
(610,522,o),
(614,510,o),
(614,494,cs),
(614,466,o),
(602,428,o),
(578,400,cs),
(569,389,o),
(554,372,o),
(517,372,cs),
(508,372,o),
(499,373,o),
(488,375,c)
);
},
{
closed = 1;
nodes = (
(113,96,o),
(126,68,o),
(142,68,cs),
(146,68,o),
(149,69,o),
(153,72,cs),
(163,80,o),
(176,94,o),
(176,114,cs),
(176,117,o),
(176,121,o),
(175,125,c),
(171,130,o),
(162,133,o),
(151,133,cs),
(138,133,o),
(124,130,o),
(113,125,c)
);
}
);
width = 930;
}
);
note = uni0BED;
unicode = 3053;
},
{
glyphname = uni0BEE;
layers = (
{
layerId = m01;
shapes = (
{
closed = 1;
nodes = (
(390,-152,ls),
(645,-152,o),
(815,-75,o),
(901,72,c),
(1019,72,l),
(1019,-154,l),
(1209,-154,l),
(1209,569,l),
(1019,569,l),
(1019,200,l),
(931,200,l),
(932,212,o),
(933,226,o),
(933,239,cs),
(933,421,o),
(819,581,o),
(574,581,cs),
(391,581,o),
(287,499,o),
(287,365,cs),
(287,298,o),
(310,247,o),
(351,200,c),
(249,200,ls),
(168,200,o),
(119,197,o),
(76,171,cs),
(44,151,o),
(22,119,o),
(22,65,cs),
(22,-63,o),
(147,-152,o),
(369,-152,cs)
);
},
{
closed = 1;
nodes = (
(206,54,o),
(209,62,o),
(218,67,cs),
(227,72,o),
(234,72,o),
(252,72,cs),
(703,72,l),
(648,15,o),
(553,-22,o),
(397,-22,cs),
(389,-22,ls),
(261,-22,o),
(206,4,o),
(206,44,cs)
);
},
{
closed = 1;
nodes = (
(465,418,o),
(512,449,o),
(572,449,cs),
(689,449,o),
(753,344,o),
(753,234,cs),
(753,223,o),
(752,211,o),
(751,200,c),
(557,200,l),
(496,246,o),
(465,295,o),
(465,349,cs)
);
}
);
width = 1277;
}
);
note = uni0BEE;
unicode = 3054;
},
{
glyphname = uni0BEF;
layers = (
{
layerId = m01;
shapes = (
{
closed = 1;
nodes = (
(424,-12,o),
(498,8,o),
(549,55,cs),
(592,95,o),
(616,154,o),
(619,234,c),
(714,234,l),
(709,215,o),
(705,194,o),
(705,174,cs),
(705,51,o),
(790,-12,o),
(927,-12,cs),
(1058,-12,o),
(1131,55,o),
(1131,165,cs),
(1131,259,o),
(1073,317,o),
(971,338,c),
(994,348,o),
(1020,354,o),
(1050,354,cs),
(1167,354,o),
(1212,284,o),
(1212,208,cs),
(1212,145,o),
(1191,103,o),
(1161,62,c),
(1316,-17,l),
(1359,57,o),
(1392,133,o),
(1392,220,cs),
(1392,331,o),
(1335,478,o),
(1063,478,cs),
(928,478,o),
(822,427,o),
(761,355,c),
(619,355,l),
(619,439,l),
(810,439,l),
(810,569,l),
(129,569,l),
(129,313,l),
(60,280,o),
(33,230,o),
(33,168,cs),
(33,50,o),
(131,-12,o),
(313,-12,cs)
);
},
{
closed = 1;
nodes = (
(217,196,o),
(227,211,o),
(247,221,cs),
(269,231,o),
(295,234,o),
(352,234,cs),
(434,234,l),
(432,142,o),
(387,118,o),
(315,118,cs),
(253,118,o),
(217,133,o),
(217,176,cs)
);
},
{
closed = 1;
nodes = (
(300,439,l),
(434,439,l),
(434,355,l),
(378,355,ls),
(350,355,o),
(325,354,o),
(300,352,c)
);
},
{
closed = 1;
nodes = (
(869,202,o),
(873,219,o),
(878,233,c),
(961,226,o),
(971,184,o),
(971,159,cs),
(971,125,o),
(951,109,o),
(926,109,cs),
(885,109,o),
(869,139,o),
(869,180,cs)
);
}
);
width = 1426;
}
);
note = uni0BEF;
unicode = 3055;
},
{
glyphname = uni0BF0;
layers = (
{
layerId = m01;
shapes = (
{
closed = 1;
nodes = (
(394,-12,o),
(445,23,o),
(486,81,c),
(536,22,o),
(598,-12,o),
(699,-12,cs),
(923,-12,o),
(985,165,o),
(985,372,cs),
(985,406,ls),
(985,582,o),
(938,707,o),
(840,782,cs),
(782,826,o),
(706,851,o),
(619,851,cs),
(508,851,o),
(438,831,o),
(354,797,c),
(403,672,l),
(475,705,o),
(521,721,o),
(599,721,cs),
(727,721,o),
(795,617,o),
(795,387,cs),
(795,190,o),
(751,118,o),
(676,118,cs),
(647,118,o),
(628,126,o),
(613,140,cs),
(585,166,o),
(577,205,o),
(577,271,cs),
(577,569,l),
(387,569,l),
(387,272,ls),
(387,197,o),
(385,161,o),
(367,138,cs),
(357,126,o),
(344,118,o),
(324,118,cs),
(304,118,o),
(289,125,o),
(279,137,cs),
(258,162,o),
(256,203,o),
(256,265,cs),
(256,569,l),
(66,569,l),
(66,259,ls),
(66,140,o),
(98,75,o),
(153,33,cs),
(191,4,o),
(241,-12,o),
(305,-12,cs)
);
}
);
width = 1037;
}
);
note = uni0BF0;
unicode = 3056;
},
{
glyphname = uni0BF1;
layers = (
{
layerId = m01;
shapes = (
{
closed = 1;
nodes = (
(377,0,l),
(567,0,l),
(567,439,l),
(691,439,l),
(691,0,l),
(881,0,l),
(881,439,l),
(1013,439,l),
(1013,569,l),
(377,569,l),
(377,546,l),
(348,568,o),
(313,581,o),
(257,581,cs),
(202,581,o),
(157,565,o),
(123,533,cs),
(85,496,o),
(65,440,o),
(65,344,cs),
(65,0,l),
(255,0,l),
(255,340,ls),
(255,390,o),
(258,420,o),
(275,437,cs),
(285,447,o),
(299,452,o),
(319,452,cs),
(344,452,o),
(363,442,o),
(377,428,c)
);
}
);
width = 1030;
}
);
note = uni0BF1;
unicode = 3057;
},
{
glyphname = uni0BF2;
layers = (
{
layerId = m01;
shapes = (
{
closed = 1;
nodes = (
(952,205,o),
(913,196,o),
(882,184,c),
(882,234,l),
(989,234,l),
(989,355,l),
(619,355,l),
(619,439,l),
(810,439,l),
(810,569,l),
(129,569,l),
(129,313,l),
(61,280,o),
(33,230,o),
(33,168,cs),
(33,50,o),
(131,-12,o),
(313,-12,cs),
(424,-12,o),
(498,8,o),
(549,55,cs),
(592,95,o),
(616,154,o),
(619,234,c),
(705,234,l),
(705,0,l),
(882,0,l),
(882,63,l),
(904,74,o),
(923,79,o),
(947,79,cs),
(978,79,o),
(1003,64,o),
(1003,28,cs),
(1003,2,o),
(994,-18,o),
(969,-31,cs),
(945,-43,o),
(921,-50,o),
(845,-50,cs),
(294,-50,ls),
(186,-50,o),
(146,-62,o),
(102,-91,cs),
(58,-120,o),
(30,-169,o),
(30,-231,cs),
(30,-262,o),
(32,-291,o),
(36,-322,c),
(223,-312,l),
(222,-299,o),
(220,-286,o),
(220,-269,cs),
(220,-235,o),
(231,-214,o),
(250,-200,cs),
(273,-184,o),
(300,-180,o),
(361,-180,cs),
(835,-180,ls),
(952,-180,o),
(1033,-167,o),
(1087,-134,cs),
(1143,-100,o),
(1181,-50,o),
(1181,39,cs),
(1181,136,o),
(1112,205,o),
(994,205,cs)
);
},
{
closed = 1;
nodes = (
(217,196,o),
(227,211,o),
(247,221,cs),
(269,231,o),
(296,234,o),
(353,234,cs),
(434,234,l),
(432,142,o),
(387,118,o),
(315,118,cs),
(253,118,o),
(217,133,o),
(217,176,cs)
);
},
{
closed = 1;
nodes = (
(300,439,l),
(434,439,l),
(434,355,l),
(379,355,ls),
(351,355,o),
(325,354,o),
(300,352,c)
);
}
);
width = 1189;
}
);
note = uni0BF2;
unicode = 3058;
},
{
glyphname = uni0BF3;
layers = (
{
layerId = m01;
shapes = (
{
closed = 1;
nodes = (
(449,-12,o),
(521,61,o),
(521,177,cs),
(521,293,o),
(450,355,o),
(335,355,cs),
(294,355,o),
(257,345,o),
(224,329,c),
(252,406,o),
(319,451,o),
(415,451,cs),
(528,451,o),
(601,381,o),
(601,259,cs),
(601,198,o),
(589,142,o),
(564,99,c),
(570,0,l),
(1140,0,l),
(1140,130,l),
(762,130,l),
(783,175,o),
(791,236,o),
(791,283,cs),
(791,446,o),
(686,581,o),
(428,581,cs),
(204,581,o),
(37,469,o),
(37,245,cs),
(37,79,o),
(127,-12,o),
(285,-12,cs)
);
},
{
closed = 1;
nodes = (
(231,226,o),
(253,234,o),
(278,234,cs),
(315,234,o),
(340,217,o),
(340,174,cs),
(340,135,o),
(321,114,o),
(283,114,cs),
(236,114,o),
(214,149,o),
(210,212,c)
);
}
);
width = 1157;
}
);
note = uni0BF3;
unicode = 3059;
},
{
glyphname = uni0BF4;
layers = (
{
layerId = m01;
shapes = (
{
closed = 1;
nodes = (
(641,581,ls),
(576,581,o),
(515,563,o),
(475,528,cs),
(433,492,o),
(410,442,o),
(410,351,cs),
(410,130,l),
(258,130,l),
(258,569,l),
(68,569,l),
(68,0,l),
(589,0,ls),
(717,0,o),
(787,15,o),
(842,57,cs),
(897,98,o),
(930,166,o),
(930,275,cs),
(930,398,o),
(885,503,o),
(784,552,c),
(787,581,o),
(798,607,o),
(833,617,c),
(833,524,o),
(891,469,o),
(994,469,cs),
(1068,469,o),
(1135,499,o),
(1135,594,cs),
(1135,634,o),
(1122,662,o),
(1101,682,cs),
(1076,705,o),
(1047,716,o),
(1002,719,c),
(1020,731,o),
(1045,738,o),
(1077,738,cs),
(1159,738,o),
(1189,682,o),
(1189,636,cs),
(1189,596,o),
(1177,564,o),
(1165,546,c),
(1165,474,l),
(1427,474,l),
(1427,584,l),
(1314,584,l),
(1320,604,o),
(1326,632,o),
(1326,659,cs),
(1326,772,o),
(1248,850,o),
(1092,850,cs),
(972,850,o),
(892,796,o),
(854,720,c),
(734,716,o),
(665,669,o),
(653,581,c)
);
},
{
closed = 1;
nodes = (
(717,451,o),
(742,385,o),
(742,276,cs),
(742,166,o),
(703,130,o),
(616,130,cs),
(600,130,l),
(600,356,ls),
(600,402,o),
(603,418,o),
(617,434,cs),
(626,445,o),
(641,451,o),
(657,451,cs)
);
},
{
closed = 1;
nodes = (
(955,621,l),
(970,621,ls),
(994,621,o),
(1007,619,o),
(1016,612,cs),
(1022,607,o),
(1026,600,o),
(1026,590,cs),
(1026,572,o),
(1015,563,o),
(994,563,cs),
(965,563,o),
(955,585,o),
(955,613,cs)
);
}
);
width = 1444;
}
);
note = uni0BF4;
unicode = 3060;
},
{
glyphname = uni0BF5;
layers = (
{
layerId = m01;
shapes = (
{
closed = 1;
nodes = (
(1482,715,o),
(1744,709,o),
(1891,568,cs),
(1964,498,o),
(2003,394,o),
(2023,242,cs),
(2037,137,o),
(2069,67,o),
(2124,31,cs),
(2167,3,o),
(2218,-12,o),
(2300,-12,cs),
(2493,-12,o),
(2578,112,o),
(2578,266,cs),
(2578,388,o),
(2540,501,o),
(2443,615,c),
(2286,526,l),
(2356,440,o),
(2388,345,o),
(2388,253,cs),
(2388,150,o),
(2359,118,o),
(2304,118,cs),
(2278,118,o),
(2257,126,o),
(2243,141,cs),
(2225,160,o),
(2214,187,o),
(2205,285,cs),
(2188,480,o),
(2121,606,o),
(1990,696,cs),
(1786,837,o),
(1543,851,o),
(1225,851,cs),
(1065,851,ls),
(477,851,o),
(41,719,o),
(41,278,cs),
(41,265,ls),
(41,-211,o),
(472,-321,o),
(1015,-321,cs),
(1155,-321,ls),
(1514,-321,o),
(1981,-241,o),
(1981,106,cs),
(1981,255,o),
(1900,346,o),
(1766,346,cs),
(1728,346,o),
(1690,339,o),
(1665,329,c),
(1665,439,l),
(1799,439,l),
(1799,569,l),
(1176,569,l),
(1176,130,l),
(1056,130,l),
(1077,175,o),
(1085,236,o),
(1085,283,cs),
(1085,446,o),
(980,581,o),
(722,581,cs),
(498,581,o),
(331,469,o),
(331,245,cs),
(331,79,o),
(421,-12,o),
(579,-12,cs),
(743,-12,o),
(815,61,o),
(815,177,cs),
(815,293,o),
(744,355,o),
(629,355,cs),
(588,355,o),
(551,345,o),
(518,329,c),
(546,406,o),
(613,451,o),
(709,451,cs),
(822,451,o),
(895,381,o),
(895,259,cs),
(895,198,o),
(883,142,o),
(858,99,c),
(864,0,l),
(1366,0,l),
(1366,439,l),
(1475,439,l),
(1475,0,l),
(1665,0,l),
(1665,203,l),
(1680,211,o),
(1697,217,o),
(1716,217,cs),
(1768,217,o),
(1794,174,o),
(1794,110,cs),
(1794,-123,o),
(1477,-185,o),
(1159,-185,cs),
(1042,-185,ls),
(542,-185,o),
(230,-98,o),
(230,264,cs),
(230,277,ls),
(230,608,o),
(514,715,o),
(1111,715,cs)
);
},
{
closed = 1;
nodes = (
(525,226,o),
(547,234,o),
(572,234,cs),
(609,234,o),
(634,217,o),
(634,174,cs),
(634,135,o),
(615,114,o),
(577,114,cs),
(530,114,o),
(508,149,o),
(504,212,c)
);
}
);
width = 2619;
}
);
note = uni0BF5;
unicode = 3061;
},
{
glyphname = uni0BF6;
layers = (
{
layerId = m01;
shapes = (
{
closed = 1;
nodes = (
(473,-321,o),
(612,-284,o),
(701,-180,c),
(1094,-180,l),
(1094,569,l),
(904,569,l),
(904,-50,l),
(760,-50,l),
(770,-17,o),
(776,20,o),
(776,70,cs),
(776,569,l),
(586,569,l),
(586,130,l),
(258,130,l),
(258,569,l),
(68,569,l),
(68,0,l),
(585,0,l),
(583,-18,o),
(580,-33,o),
(575,-50,c),
(181,-50,ls),
(128,-50,o),
(86,-59,o),
(59,-79,cs),
(37,-96,o),
(25,-120,o),
(25,-153,cs),
(25,-274,o),
(152,-321,o),
(300,-321,cs)
);
},
{
closed = 1;
nodes = (
(191,-164,o),
(198,-161,o),
(208,-161,cs),
(506,-161,l),
(454,-193,o),
(385,-205,o),
(300,-205,cs),
(236,-205,o),
(191,-194,o),
(191,-173,cs)
);
}
);
width = 1162;
}
);
note = uni0BF6;
unicode = 3062;
},
{
glyphname = uni0BF7;
layers = (
{
layerId = m01;
shapes = (
{
closed = 1;
nodes = (
(449,-12,o),
(521,61,o),
(521,177,cs),
(521,294,o),
(447,355,o),
(335,355,cs),
(296,355,o),
(261,346,o),
(230,332,c),
(244,361,o),
(262,381,o),
(287,398,cs),
(329,427,o),
(394,439,o),
(485,439,cs),
(591,439,l),
(591,0,l),
(781,0,l),
(781,147,l),
(833,147,l),
(833,143,ls),
(833,50,o),
(891,-5,o),
(994,-5,cs),
(1068,-5,o),
(1135,25,o),
(1135,120,cs),
(1135,160,o),
(1122,188,o),
(1101,208,cs),
(1076,231,o),
(1047,242,o),
(1002,245,c),
(1020,257,o),
(1045,264,o),
(1077,264,cs),
(1159,264,o),
(1189,208,o),
(1189,162,cs),
(1189,122,o),
(1177,90,o),
(1165,72,c),
(1165,0,l),
(1501,0,l),
(1501,110,l),
(1314,110,l),
(1320,130,o),
(1326,158,o),
(1326,185,cs),
(1326,298,o),
(1248,376,o),
(1092,376,cs),
(972,376,o),
(893,324,o),
(854,246,c),
(781,246,l),
(781,439,l),
(913,439,l),
(913,569,l),
(530,569,ls),
(340,569,o),
(234,550,o),
(146,482,cs),
(80,431,o),
(37,355,o),
(37,239,cs),
(37,79,o),
(127,-12,o),
(285,-12,cs)
);
},
{
closed = 1;
nodes = (
(231,226,o),
(253,234,o),
(278,234,cs),
(315,234,o),
(340,217,o),
(340,174,cs),
(340,135,o),
(321,114,o),
(283,114,cs),
(235,114,o),
(212,152,o),
(209,211,c)
);
},
{
closed = 1;
nodes = (
(955,147,l),
(970,147,ls),
(994,147,o),
(1007,145,o),
(1016,138,cs),
(1022,133,o),
(1026,126,o),
(1026,116,cs),
(1026,98,o),
(1015,89,o),
(994,89,cs),
(965,89,o),
(955,111,o),
(955,139,cs)
);
}
);
width = 1518;
}
);
note = uni0BF7;
unicode = 3063;
},
{
glyphname = uni0BF8;
layers = (
{
layerId = m01;
shapes = (
{
closed = 1;
nodes = (
(596,-12,o),
(698,62,o),
(698,192,cs),
(698,292,o),
(632,388,o),
(472,388,cs),
(330,388,o),
(265,310,o),
(265,207,cs),
(265,191,o),
(266,178,o),
(268,165,c),
(243,205,o),
(226,269,o),
(226,364,cs),
(226,617,o),
(411,718,o),
(609,718,cs),
(755,718,o),
(875,657,o),
(952,556,c),
(830,518,o),
(739,433,o),
(739,290,cs),
(739,144,o),
(831,66,o),
(981,66,cs),
(1143,66,o),
(1214,151,o),
(1214,309,cs),
(1214,355,o),
(1207,399,o),
(1196,440,c),
(1261,415,o),
(1304,358,o),
(1304,259,cs),
(1304,198,o),
(1292,142,o),
(1267,99,c),
(1273,0,l),
(1710,0,l),
(1643,-236,l),
(1820,-284,l),
(1900,0,l),
(2241,0,l),
(2241,362,l),
(2081,362,l),
(2054,341,o),
(2021,323,o),
(1981,312,c),
(1986,338,o),
(1989,364,o),
(1989,393,cs),
(1989,493,o),
(1931,581,o),
(1772,581,cs),
(1603,581,o),
(1544,484,o),
(1544,390,cs),
(1544,297,o),
(1589,206,o),
(1757,184,c),
(1742,130,l),
(1465,130,l),
(1486,175,o),
(1494,236,o),
(1494,283,cs),
(1494,442,o),
(1395,574,o),
(1144,581,c),
(1043,753,o),
(844,850,o),
(600,850,cs),
(267,850,o),
(44,663,o),
(44,380,cs),
(44,142,o),
(172,-12,o),
(425,-12,cs)
);
},
{
closed = 1;
nodes = (
(399,237,o),
(422,264,o),
(462,264,cs),
(507,264,o),
(519,227,o),
(519,192,cs),
(519,147,o),
(498,112,o),
(442,112,cs),
(434,112,o),
(427,112,o),
(417,113,c),
(407,132,o),
(399,159,o),
(399,189,cs)
);
},
{
closed = 1;
nodes = (
(916,355,o),
(942,410,o),
(1015,437,c),
(1030,392,o),
(1037,345,o),
(1037,295,cs),
(1037,208,o),
(1006,190,o),
(977,190,cs),
(933,190,o),
(916,234,o),
(916,284,cs)
);
},
{
closed = 1;
nodes = (
(1710,423,o),
(1729,453,o),
(1762,453,cs),
(1794,453,o),
(1804,426,o),
(1804,391,cs),
(1804,364,o),
(1798,335,o),
(1791,304,c),
(1732,313,o),
(1710,342,o),
(1710,390,cs)
);
},
{
closed = 1;
nodes = (
(1937,130,l),
(1951,182,l),
(2015,189,o),
(2060,212,o),
(2083,226,c),
(2081,178,l),
(2081,130,l)
);
}
);
width = 2298;
}
);
note = uni0BF8;
unicode = 3064;
},
{
glyphname = uni0BF9;
layers = (
{
layerId = m01;
shapes = (
{
closed = 1;
nodes = (
(949,260,o),
(911,255,o),
(877,244,c),
(877,350,l),
(1009,350,l),
(1009,480,l),
(373,480,l),
(372,0,l),
(563,0,l),
(563,350,l),
(687,350,l),
(687,0,l),
(877,0,l),
(877,121,l),
(891,127,o),
(908,131,o),
(927,131,cs),
(978,131,o),
(1009,89,o),
(1009,26,cs),
(1009,-94,o),
(902,-188,o),
(660,-188,cs),
(640,-188,ls),
(353,-188,o),
(234,-49,o),
(234,194,cs),
(234,213,ls),
(234,400,o),
(315,520,o),
(414,589,c),
(436,533,o),
(488,501,o),
(554,501,cs),
(627,501,o),
(693,529,o),
(693,629,cs),
(693,674,o),
(670,725,o),
(610,741,c),
(620,742,o),
(634,743,o),
(647,743,cs),
(712,743,o),
(755,713,o),
(755,664,cs),
(755,631,o),
(744,610,o),
(726,587,c),
(726,503,l),
(1008,503,l),
(1008,612,l),
(872,612,l),
(882,634,o),
(888,667,o),
(888,693,cs),
(888,787,o),
(812,851,o),
(655,851,cs),
(548,851,o),
(462,804,o),
(423,734,c),
(205,657,o),
(51,463,o),
(51,206,cs),
(51,192,ls),
(51,-168,o),
(302,-321,o),
(644,-321,cs),
(654,-321,ls),
(988,-321,o),
(1198,-191,o),
(1198,40,cs),
(1198,153,o),
(1130,260,o),
(984,260,cs)
);
},
{
closed = 1;
nodes = (
(511,649,l),
(522,655,o),
(534,659,o),
(550,659,cs),
(573,659,o),
(584,645,o),
(584,626,cs),
(584,607,o),
(574,594,o),
(551,594,cs),
(523,594,o),
(511,619,o),
(511,642,cs)
);
}
);
width = 1231;
}
);
note = uni0BF9;
unicode = 3065;
},
{
glyphname = uni0BFA;
layers = (
{
layerId = m01;
shapes = (
{
closed = 1;
nodes = (
(639,370,o),
(604,363,o),
(572,351,c),
(572,439,l),
(704,439,l),
(704,540,ls),
(704,572,o),
(714,606,o),
(753,617,c),
(753,524,o),
(811,469,o),
(914,469,cs),
(988,469,o),
(1055,499,o),
(1055,594,cs),
(1055,634,o),
(1042,662,o),
(1021,682,cs),
(996,705,o),
(967,716,o),
(922,719,c),
(940,731,o),
(965,738,o),
(997,738,cs),
(1079,738,o),
(1109,682,o),
(1109,636,cs),
(1109,596,o),
(1097,564,o),
(1085,546,c),
(1085,474,l),
(1347,474,l),
(1347,584,l),
(1234,584,l),
(1240,604,o),
(1246,632,o),
(1246,659,cs),
(1246,772,o),
(1168,850,o),
(1012,850,cs),
(892,850,o),
(812,796,o),
(774,720,c),
(647,715,o),
(579,664,o),
(572,569,c),
(68,569,l),
(68,0,l),
(258,0,l),
(258,439,l),
(382,439,l),
(382,0,l),
(572,0,l),
(572,225,l),
(590,234,o),
(610,240,o),
(630,240,cs),
(686,240,o),
(716,200,o),
(716,123,cs),
(716,64,o),
(702,26,o),
(677,1,cs),
(640,-36,o),
(585,-50,o),
(463,-50,cs),
(300,-50,ls),
(192,-50,o),
(146,-62,o),
(102,-91,cs),
(58,-120,o),
(30,-169,o),
(30,-231,cs),
(30,-262,o),
(32,-291,o),
(36,-322,c),
(223,-312,l),
(221,-299,o),
(220,-286,o),
(220,-269,cs),
(220,-235,o),
(231,-214,o),
(250,-200,cs),
(273,-184,o),
(300,-180,o),
(361,-180,cs),
(494,-180,ls),
(625,-180,o),
(714,-164,o),
(787,-115,cs),
(857,-68,o),
(902,8,o),
(902,130,cs),
(902,269,o),
(832,370,o),
(684,370,cs)
);
},
{
closed = 1;
nodes = (
(875,621,l),
(890,621,ls),
(914,621,o),
(927,619,o),
(936,612,cs),
(942,607,o),
(946,600,o),
(946,590,cs),
(946,572,o),
(935,563,o),
(914,563,cs),
(885,563,o),
(875,585,o),
(875,613,cs)
);
}
);
width = 1364;
}
);
note = uni0BFA;
unicode = 3066;
},
{
glyphname = tchatamil;
layers = (
{
anchors = (
{
name = bottom;
pos = (1097,-29);
},
{
name = top;
pos = (1097,-29);
}
);
layerId = m01;
shapes = (
{
closed = 1;
nodes = (
(1499,581,o),
(1440,484,o),
(1440,390,cs),
(1440,300,o),
(1486,211,o),
(1654,190,c),
(1637,130,l),
(1381,130,l),
(1388,145,o),
(1404,184,o),
(1404,248,cs),
(1404,347,o),
(1348,493,o),
(1079,493,cs),
(936,493,o),
(828,436,o),
(769,355,c),
(619,355,l),
(619,439,l),
(810,439,l),
(810,569,l),
(129,569,l),
(129,313,l),
(61,280,o),
(33,230,o),
(33,168,cs),
(33,50,o),
(131,-12,o),
(313,-12,cs),
(424,-12,o),
(498,8,o),
(549,55,cs),
(592,95,o),
(616,154,o),
(619,234,c),
(720,234,l),
(718,221,o),
(717,209,o),
(717,197,cs),
(717,48,o),
(806,-12,o),
(938,-12,cs),
(1069,-12,o),
(1142,55,o),
(1142,165,cs),
(1142,216,o),
(1124,257,o),
(1093,287,cs),
(1061,317,o),
(1021,336,o),
(967,346,c),
(994,358,o),
(1023,363,o),
(1059,363,cs),
(1163,363,o),
(1223,307,o),
(1223,216,cs),
(1223,170,o),
(1215,130,o),
(1193,99,c),
(1199,0,l),
(1606,0,l),
(1539,-236,l),
(1716,-284,l),
(1795,0,l),
(2137,0,l),
(2137,368,l),
(1977,368,l),
(1950,347,o),
(1917,329,o),
(1878,318,c),
(1882,340,o),
(1885,365,o),
(1885,393,cs),
(1885,493,o),
(1827,581,o),
(1668,581,cs)
);
},
{
closed = 1;
nodes = (
(217,196,o),
(227,211,o),
(247,221,cs),
(269,231,o),
(296,234,o),
(353,234,cs),
(434,234,l),
(432,142,o),
(387,118,o),
(315,118,cs),
(253,118,o),
(217,133,o),
(217,176,cs)
);
},
{
closed = 1;
nodes = (
(300,439,l),
(434,439,l),
(434,355,l),
(379,355,ls),
(351,355,o),
(325,354,o),
(300,352,c)
);
},
{
closed = 1;
nodes = (
(882,206,o),
(884,220,o),
(887,233,c),
(974,226,o),
(982,184,o),
(982,159,cs),
(982,125,o),
(962,109,o),
(937,109,cs),
(897,109,o),
(882,139,o),
(882,191,cs)
);
},
{
closed = 1;
nodes = (
(1606,423,o),
(1625,453,o),
(1658,453,cs),
(1690,453,o),
(1700,426,o),
(1700,394,cs),
(1700,364,o),
(1694,340,o),
(1687,310,c),
(1628,318,o),
(1606,345,o),
(1606,390,cs)
);
},
{
closed = 1;
nodes = (
(1831,130,l),
(1847,188,l),
(1912,196,o),
(1956,218,o),
(1979,232,c),
(1977,184,l),
(1977,130,l)
);
}
);
width = 2194;
}
);
note = tchatamil;
},
{
glyphname = kaprehalftamil;
layers = (
{
anchors = (
{
name = bottom;
pos = (483,-29);
},
{
name = top;
pos = (483,-29);
}
);
layerId = m01;
shapes = (
{
closed = 1;
nodes = (
(217,338,o),
(254,341,o),
(286,345,c),
(289,375,o),
(308,404,o),
(324,424,c),
(301,433,o),
(274,438,o),
(249,438,cs),
(226,438,o),
(208,432,o),
(188,430,c),
(198,392,o),
(193,350,o),
(183,322,c)
);
},
{
closed = 1;
nodes = (
(219,270,o),
(114,236,o),
(92,169,cs),
(71,103,o),
(125,84,o),
(142,75,c),
(229,47,o),
(254,98,o),
(260,109,c),
(282,141,o),
(267,218,o),
(276,275,c)
);
},
{
closed = 1;
nodes = (
(436,84,o),
(451,71,o),
(478,73,c),
(573,86,o),
(524,254,o),
(346,277,c),
(332,213,o),
(346,124,o),
(325,86,c),
(317,64,o),
(260,-15,o),
(172,-10,cs),
(106,-6,o),
(20,47,o),
(20,151,cs),
(20,192,o),
(51,244,o),
(95,274,c),
(131,360,o),
(131,417,o),
(111,459,c),
(146,504,o),
(193,527,o),
(270,527,cs),
(344,527,o),
(375,500,o),
(442,492,cs),
(490,488,o),
(537,497,o),
(585,526,c),
(607,515,o),
(600,445,o),
(561,400,cs),
(547,383,o),
(510,352,o),
(412,392,c),
(396,383,o),
(375,372,o),
(363,338,c),
(511,308,o),
(595,225,o),
(595,135,cs),
(595,77,o),
(577,11,o),
(485,-1,cs),
(454,-5,o),
(394,12,o),
(369,72,c),
(379,101,o),
(400,116,o),
(423,120,c),
(424,115,o),
(426,110,o),
(428,105,cs)
);
},
{
closed = 1;
nodes = (
(366,671,o),
(409,673,o),
(420,659,c),
(428,625,o),
(407,602,o),
(391,590,cs),
(364,569,o),
(339,613,o),
(339,659,c)
);
}
);
width = 617;
}
);
note = kaprehalftamil;
},
{
glyphname = ngaprehalftamil;
layers = (
{
anchors = (
{
name = bottom;
pos = (622,-29);
},
{
name = top;
pos = (622,-29);
}
);
layerId = m01;
shapes = (
{
closed = 1;
nodes = (
(68,0,l),
(258,0,l),
(258,439,l),
(378,439,l),
(378,172,l),
(568,172,l),
(568,214,l),
(595,232,o),
(618,240,o),
(643,240,cs),
(676,240,o),
(698,221,o),
(698,185,cs),
(698,159,o),
(691,144,o),
(682,130,c),
(378,130,l),
(378,0,l),
(1176,0,l),
(1176,569,l),
(986,569,l),
(986,130,l),
(867,130,l),
(878,149,o),
(887,174,o),
(887,217,cs),
(887,289,o),
(832,370,o),
(697,370,cs),
(647,370,o),
(608,361,o),
(568,338,c),
(568,439,l),
(763,439,l),
(763,569,l),
(68,569,l)
);
},
{
closed = 1;
nodes = (
(477,671,o),
(520,673,o),
(531,659,c),
(539,625,o),
(518,602,o),
(502,590,cs),
(475,569,o),
(450,613,o),
(450,659,c)
);
}
);
width = 1244;
}
);
note = ngaprehalftamil;
},
{
glyphname = caprehalftamil;
layers = (
{
anchors = (
{
name = bottom;
pos = (432,-29);
},
{
name = top;
pos = (432,-29);
}
);
layerId = m01;
shapes = (
{
closed = 1;
nodes = (
(131,417,o),
(134,356,o),
(98,270,c),
(54,240,o),
(20,192,o),
(20,151,cs),
(20,47,o),
(106,-6,o),
(172,-10,cs),
(260,-15,o),
(320,64,o),
(325,86,c),
(334,113,o),
(335,171,o),
(340,227,c),
(373,227,o),
(420,225,o),
(445,271,cs),
(449,280,o),
(465,316,o),
(445,311,c),
(419,301,o),
(380,299,o),
(351,301,c),
(361,344,o),
(379,380,o),
(412,392,c),
(510,352,o),
(547,383,o),
(561,400,cs),
(600,445,o),
(607,515,o),
(585,526,c),
(537,497,o),
(490,488,o),
(442,492,cs),
(375,500,o),
(344,527,o),
(270,527,cs),
(193,527,o),
(146,504,o),
(111,459,c)
);
},
{
closed = 1;
nodes = (
(191,330,o),
(202,386,o),
(192,428,c),
(212,430,o),
(226,438,o),
(249,438,cs),
(274,438,o),
(304,429,o),
(327,422,c),
(306,402,o),
(284,346,o),
(284,306,c),
(249,310,o),
(205,307,o),
(181,302,c)
);
},
{
closed = 1;
nodes = (
(267,176,o),
(282,141,o),
(260,109,c),
(254,98,o),
(229,47,o),
(142,75,c),
(125,84,o),
(72,102,o),
(92,169,cs),
(111,235,o),
(215,236,o),
(276,233,c)
);
},
{
closed = 1;
nodes = (
(366,671,o),
(409,673,o),
(420,659,c),
(428,625,o),
(407,602,o),
(391,590,cs),
(364,569,o),
(339,613,o),
(339,659,c)
);
}
);
width = 587;
}
);
note = caprehalftamil;
},
{
glyphname = japrehalftamil;
layers = (
{
anchors = (
{
name = bottom;
pos = (576,-29);
},
{
name = top;
pos = (576,-29);
}
);
layerId = m01;
shapes = (
{
closed = 1;
nodes = (
(174,581,o),
(35,496,o),
(35,350,cs),
(35,261,o),
(88,164,o),
(250,164,cs),
(395,164,o),
(462,228,o),
(462,330,cs),
(462,386,o),
(437,429,o),
(399,456,c),
(493,443,o),
(527,384,o),
(527,292,cs),
(527,204,l),
(715,204,l),
(715,299,ls),
(715,370,o),
(725,400,o),
(746,423,cs),
(760,438,o),
(781,449,o),
(814,449,cs),
(874,449,o),
(922,408,o),
(922,322,cs),
(922,270,o),
(907,233,o),
(876,208,cs),
(836,176,o),
(781,163,o),
(664,163,cs),
(444,163,ls),
(290,163,o),
(205,149,o),
(134,104,cs),
(74,66,o),
(35,7,o),
(35,-85,cs),
(35,-216,o),
(118,-321,o),
(328,-321,cs),
(484,-321,o),
(565,-276,o),
(673,-169,c),
(675,-234,o),
(720,-321,o),
(882,-321,cs),
(1037,-321,o),
(1099,-245,o),
(1099,-149,cs),
(1099,-47,o),
(1024,45,o),
(857,45,cs),
(837,45,l),
(904,55,o),
(960,73,o),
(1008,106,cs),
(1073,150,o),
(1112,220,o),
(1112,329,cs),
(1112,458,o),
(1024,581,o),
(829,581,cs),
(731,581,o),
(663,547,o),
(615,486,c),
(560,543,o),
(492,581,o),
(343,581,cs)
);
},
{
closed = 1;
nodes = (
(431,671,o),
(474,673,o),
(485,659,c),
(493,625,o),
(472,602,o),
(456,590,cs),
(429,569,o),
(404,613,o),
(404,659,c)
);
},
{
closed = 1;
nodes = (
(191,376,o),
(207,404,o),
(236,424,c),
(297,410,o),
(310,376,o),
(310,343,cs),
(310,308,o),
(288,284,o),
(249,284,cs),
(206,284,o),
(191,313,o),
(191,343,cs)
);
},
{
closed = 1;
nodes = (
(225,-42,o),
(244,-11,o),
(273,7,cs),
(310,30,o),
(351,35,o),
(423,35,cs),
(666,35,l),
(759,37,l),
(692,24,o),
(629,-10,o),
(542,-88,cs),
(449,-171,o),
(404,-191,o),
(339,-191,cs),
(258,-191,o),
(225,-142,o),
(225,-82,cs)
);
},
{
closed = 1;
nodes = (
(818,-118,o),
(827,-97,o),
(844,-77,c),
(917,-77,o),
(936,-113,o),
(936,-141,cs),
(936,-171,o),
(919,-197,o),
(879,-197,cs),
(837,-197,o),
(818,-176,o),
(818,-140,cs)
);
}
);
width = 1153;
}
);
note = japrehalftamil;
},
{
glyphname = nyaprehalftamil;
layers = (
{
anchors = (
{
name = bottom;
pos = (712,-29);
},
{
name = top;
pos = (712,-29);
}
);
layerId = m01;
shapes = (
{
closed = 1;
nodes = (
(1132,346,o),
(1098,341,o),
(1068,331,c),
(1068,439,l),
(1200,439,l),
(1200,569,l),
(817,569,ls),
(627,569,o),
(521,550,o),
(433,482,cs),
(367,431,o),
(324,355,o),
(324,239,cs),
(324,79,o),
(414,-12,o),
(572,-12,cs),
(736,-12,o),
(808,61,o),
(808,177,cs),
(808,294,o),
(734,355,o),
(622,355,cs),
(583,355,o),
(548,346,o),
(517,332,c),
(531,361,o),
(549,381,o),
(574,398,cs),
(616,427,o),
(681,439,o),
(772,439,cs),
(878,439,l),
(878,0,l),
(1068,0,l),
(1068,205,l),
(1082,212,o),
(1097,216,o),
(1113,216,cs),
(1171,216,o),
(1201,170,o),
(1201,102,cs),
(1201,-104,o),
(1018,-186,o),
(747,-186,cs),
(705,-186,ls),
(345,-186,o),
(225,-51,o),
(225,167,cs),
(225,183,ls),
(225,277,o),
(258,388,o),
(332,498,c),
(184,582,l),
(109,470,o),
(47,328,o),
(47,163,cs),
(47,152,ls),
(47,-111,o),
(207,-321,o),
(699,-321,cs),
(768,-321,ls),
(1075,-321,o),
(1391,-219,o),
(1391,99,cs),
(1391,252,o),
(1309,346,o),
(1162,346,cs)
);
},
{
closed = 1;
nodes = (
(567,671,o),
(610,673,o),
(621,659,c),
(629,625,o),
(608,602,o),
(592,590,cs),
(565,569,o),
(540,613,o),
(540,659,c)
);
},
{
closed = 1;
nodes = (
(518,226,o),
(540,234,o),
(565,234,cs),
(602,234,o),
(627,217,o),
(627,174,cs),
(627,135,o),
(608,114,o),
(570,114,cs),
(522,114,o),
(499,152,o),
(496,211,c)
);
}
);
width = 1424;
}
);
note = nyaprehalftamil;
},
{
glyphname = ttaprehalftamil;
layers = (
{
anchors = (
{
name = bottom;
pos = (380,-29);
},
{
name = top;
pos = (380,-29);
}
);
layerId = m01;
shapes = (
{
closed = 1;
nodes = (
(68,0,l),
(743,0,l),
(743,130,l),
(258,130,l),
(258,569,l),
(68,569,l)
);
},
{
closed = 1;
nodes = (
(265,671,o),
(308,673,o),
(319,659,c),
(327,625,o),
(306,602,o),
(290,590,cs),
(263,569,o),
(238,613,o),
(238,659,c)
);
}
);
width = 760;
}
);
note = ttaprehalftamil;
},
{
glyphname = nnaprehalftamil;
layers = (
{
anchors = (
{
name = bottom;
pos = (955,-29);
},
{
name = top;
pos = (955,-29);
}
);
layerId = m01;
shapes = (
{
closed = 1;
nodes = (
(449,-12,o),
(521,61,o),
(521,177,cs),
(521,294,o),
(447,355,o),
(335,355,cs),
(299,355,o),
(267,348,o),
(236,335,c),
(278,404,o),
(364,451,o),
(489,451,cs),
(555,451,o),
(605,443,o),
(650,424,c),
(595,366,o),
(559,293,o),
(559,202,cs),
(559,66,o),
(637,-12,o),
(786,-12,cs),
(926,-12,o),
(1003,52,o),
(1003,196,cs),
(1003,290,o),
(962,362,o),
(893,426,c),
(929,442,o),
(971,451,o),
(1024,451,cs),
(1075,451,o),
(1116,442,o),
(1153,426,c),
(1093,369,o),
(1048,287,o),
(1048,202,cs),
(1048,66,o),
(1126,-12,o),
(1275,-12,cs),
(1415,-12,o),
(1492,52,o),
(1492,196,cs),
(1492,281,o),
(1458,358,o),
(1397,421,c),
(1432,432,o),
(1477,439,o),
(1543,439,cs),
(1572,439,l),
(1572,0,l),
(1762,0,l),
(1762,439,l),
(1894,439,l),
(1894,569,l),
(1572,569,ls),
(1429,569,o),
(1347,552,o),
(1279,518,c),
(1203,562,o),
(1132,581,o),
(1024,581,cs),
(927,581,o),
(840,563,o),
(764,520,c),
(684,562,o),
(597,581,o),
(484,581,cs),
(212,581,o),
(37,451,o),
(37,244,cs),
(37,79,o),
(127,-12,o),
(285,-12,cs)
);
},
{
closed = 1;
nodes = (
(810,671,o),
(853,673,o),
(864,659,c),
(872,625,o),
(851,602,o),
(835,590,cs),
(808,569,o),
(783,613,o),
(783,659,c)
);
},
{
closed = 1;
nodes = (
(231,226,o),
(253,234,o),
(278,234,cs),
(315,234,o),
(340,217,o),
(340,174,cs),
(340,133,o),
(320,113,o),
(287,113,cs),
(227,113,o),
(212,170,o),
(210,212,c)
);
},
{
closed = 1;
nodes = (
(730,251,o),
(747,298,o),
(776,336,c),
(814,294,o),
(832,247,o),
(832,196,cs),
(832,148,o),
(820,114,o),
(781,114,cs),
(750,114,o),
(730,138,o),
(730,200,cs)
);
},
{
closed = 1;
nodes = (
(1219,250,o),
(1236,299,o),
(1270,339,c),
(1302,299,o),
(1321,249,o),
(1321,196,cs),
(1321,148,o),
(1309,114,o),
(1270,114,cs),
(1239,114,o),
(1219,138,o),
(1219,197,cs)
);
}
);
width = 1911;
}
);
note = nnaprehalftamil;
},
{
glyphname = taprehalftamil;
layers = (
{
anchors = (
{
name = bottom;
pos = (485,-29);
},
{
name = top;
pos = (485,-29);
}
);
layerId = m01;
shapes = (
{
closed = 1;
nodes = (
(631,220,o),
(638,54,o),
(625,0,cs),
(596,-125,o),
(508,-170,o),
(333,-146,cs),
(248,-134,o),
(190,-84,o),
(103,-88,c),
(88,-93,o),
(9,-153,o),
(21,-226,cs),
(23,-236,o),
(31,-242,o),
(38,-235,cs),
(61,-212,o),
(112,-203,o),
(154,-203,cs),
(221,-204,o),
(266,-230,o),
(333,-235,cs),
(548,-250,o),
(673,-176,o),
(702,0,cs),
(717,93,o),
(670,282,o),
(407,338,c),
(419,372,o),
(440,383,o),
(456,392,c),
(554,352,o),
(591,383,o),
(605,400,cs),
(644,445,o),
(651,515,o),
(629,526,c),
(581,497,o),
(534,488,o),
(486,492,cs),
(419,500,o),
(388,527,o),
(314,527,cs),
(237,527,o),
(190,504,o),
(155,459,c),
(175,417,o),
(175,360,o),
(139,274,c),
(95,244,o),
(64,192,o),
(64,151,cs),
(64,47,o),
(150,-6,o),
(216,-10,cs),
(304,-15,o),
(361,64,o),
(369,86,c),
(390,124,o),
(376,204,o),
(390,268,c)
);
},
{
closed = 1;
nodes = (
(237,350,o),
(242,392,o),
(232,430,c),
(252,432,o),
(270,438,o),
(293,438,cs),
(318,438,o),
(345,433,o),
(368,424,c),
(352,404,o),
(333,375,o),
(330,345,c),
(298,341,o),
(261,338,o),
(227,322,c)
);
},
{
closed = 1;
nodes = (
(311,213,o),
(326,141,o),
(304,109,c),
(298,98,o),
(273,47,o),
(186,75,c),
(169,84,o),
(115,103,o),
(136,169,cs),
(158,236,o),
(263,265,o),
(320,270,c)
);
},
{
closed = 1;
nodes = (
(366,671,o),
(409,673,o),
(420,659,c),
(428,625,o),
(407,602,o),
(391,590,cs),
(364,569,o),
(339,613,o),
(339,659,c)
);
}
);
width = 971;
}
);
note = taprehalftamil;
},
{
glyphname = naprehalftamil;
layers = (
{
anchors = (
{
name = bottom;
pos = (468,-29);
},
{
name = top;
pos = (468,-29);
}
);
layerId = m01;
shapes = (
{
closed = 1;
nodes = (
(639,370,o),
(604,363,o),
(572,351,c),
(572,439,l),
(704,439,l),
(704,569,l),
(68,569,l),
(68,0,l),
(258,0,l),
(258,439,l),
(382,439,l),
(382,0,l),
(572,0,l),
(572,225,l),
(590,234,o),
(610,240,o),
(630,240,cs),
(686,240,o),
(716,200,o),
(716,123,cs),
(716,64,o),
(702,26,o),
(677,1,cs),
(640,-36,o),
(585,-50,o),
(463,-50,cs),
(300,-50,ls),
(192,-50,o),
(146,-62,o),
(102,-91,cs),
(58,-120,o),
(30,-169,o),
(30,-231,cs),
(30,-262,o),
(32,-291,o),
(36,-322,c),
(223,-312,l),
(221,-299,o),
(220,-286,o),
(220,-269,cs),
(220,-235,o),
(231,-214,o),
(250,-200,cs),
(273,-184,o),
(300,-180,o),
(361,-180,cs),
(494,-180,ls),
(625,-180,o),
(714,-164,o),
(787,-115,cs),
(857,-68,o),
(902,8,o),
(902,130,cs),
(902,269,o),
(832,370,o),
(684,370,cs)
);
},
{
closed = 1;
nodes = (
(323,671,o),
(366,673,o),
(377,659,c),
(385,625,o),
(364,602,o),
(348,590,cs),
(321,569,o),
(296,613,o),
(296,659,c)
);
}
);
width = 937;
}
);
note = naprehalftamil;
},
{
glyphname = nnnaprehalftamil;
layers = (
{
anchors = (
{
name = bottom;
pos = (711,-29);
},
{
name = top;
pos = (711,-29);
}
);
layerId = m01;
shapes = (
{
closed = 1;
nodes = (
(449,-12,o),
(521,61,o),
(521,177,cs),
(521,294,o),
(447,355,o),
(335,355,cs),
(299,355,o),
(267,348,o),
(236,335,c),
(278,404,o),
(364,451,o),
(489,451,cs),
(560,451,o),
(613,441,o),
(658,420,c),
(600,363,o),
(559,285,o),
(559,202,cs),
(559,66,o),
(637,-12,o),
(786,-12,cs),
(926,-12,o),
(1003,52,o),
(1003,196,cs),
(1003,287,o),
(964,358,o),
(901,419,c),
(936,431,o),
(984,439,o),
(1054,439,cs),
(1083,439,l),
(1083,0,l),
(1273,0,l),
(1273,439,l),
(1405,439,l),
(1405,569,l),
(1083,569,ls),
(931,569,o),
(850,551,o),
(778,512,c),
(693,560,o),
(604,581,o),
(484,581,cs),
(212,581,o),
(37,451,o),
(37,244,cs),
(37,79,o),
(127,-12,o),
(285,-12,cs)
);
},
{
closed = 1;
nodes = (
(566,671,o),
(609,673,o),
(620,659,c),
(628,625,o),
(607,602,o),
(591,590,cs),
(564,569,o),
(539,613,o),
(539,659,c)
);
},
{
closed = 1;
nodes = (
(231,226,o),
(253,234,o),
(278,234,cs),
(315,234,o),
(340,217,o),
(340,174,cs),
(340,135,o),
(321,114,o),
(283,114,cs),
(236,114,o),
(213,151,o),
(210,212,c)
);
},
{
closed = 1;
nodes = (
(730,248,o),
(745,296,o),
(777,335,c),
(814,294,o),
(832,246,o),
(832,196,cs),
(832,148,o),
(820,114,o),
(781,114,cs),
(750,114,o),
(730,138,o),
(730,197,cs)
);
}
);
width = 1422;
}
);
note = nnnaprehalftamil;
},
{
glyphname = paprehalftamil;
layers = (
{
anchors = (
{
name = bottom;
pos = (427,-29);
},
{
name = top;
pos = (427,-29);
}
);
layerId = m01;
shapes = (
{
closed = 1;
nodes = (
(141,500,l),
(152,479,o),
(156,452,o),
(156,428,cs),
(155,410,ls),
(155,364,o),
(135,314,o),
(125,284,cs),
(111,245,o),
(99,187,o),
(99,132,cs),
(99,116,o),
(100,101,o),
(102,86,c),
(113,84,o),
(124,84,o),
(135,84,cs),
(180,84,o),
(226,96,o),
(271,100,c),
(299,100,o),
(312,96,o),
(324,93,c),
(314,138,o),
(311,183,o),
(311,229,cs),
(313,299,l),
(321,392,o),
(335,438,o),
(360,500,c),
(449,500,l),
(397,425,o),
(389,351,o),
(389,276,cs),
(390,224,l),
(399,120,o),
(413,71,o),
(441,0,c),
(412,-76,l),
(346,-25,o),
(282,3,o),
(182,-1,cs),
(156,-1,o),
(129,-5,o),
(102,-5,cs),
(87,-5,o),
(73,-4,o),
(58,0,c),
(31,35,o),
(21,83,o),
(20,133,cs),
(16,243,o),
(82,345,o),
(82,433,cs),
(82,456,o),
(77,479,o),
(65,500,c)
);
},
{
closed = 1;
nodes = (
(282,671,o),
(325,673,o),
(336,659,c),
(344,625,o),
(323,602,o),
(307,590,cs),
(280,569,o),
(255,613,o),
(255,659,c)
);
}
);
width = 469;
}
);
note = paprehalftamil;
},
{
glyphname = maprehalftamil;
layers = (
{
anchors = (
{
name = bottom;
pos = (484,-29);
},
{
name = top;
pos = (484,-29);
}
);
layerId = m01;
shapes = (
{
closed = 1;
nodes = (
(339,671,o),
(382,673,o),
(393,659,c),
(401,625,o),
(380,602,o),
(364,590,cs),
(337,569,o),
(312,613,o),
(312,659,c)
);
},
{
closed = 1;
nodes = (
(-69,83,o),
(-59,35,o),
(-32,0,c),
(9,-10,o),
(51,-1,o),
(92,-1,cs),
(192,3,o),
(322,-40,o),
(388,-91,c),
(417,-15,l),
(464,90,o),
(514,154,o),
(522,260,cs),
(527,375,o),
(486,496,o),
(345,500,c),
(200,496,o),
(127,327,o),
(125,197,c),
(128,159,o),
(132,121,o),
(149,86,c),
(130,88,o),
(111,89,o),
(92,88,cs),
(64,88,o),
(40,84,o),
(12,84,c),
(2,150,o),
(17,234,o),
(35,284,cs),
(45,314,o),
(65,364,o),
(65,410,cs),
(67,437,o),
(65,473,o),
(51,500,c),
(-25,500,l),
(32,399,o),
(-75,273,o),
(-70,133,cs)
);
},
{
closed = 1;
nodes = (
(241,466,o),
(477,467,o),
(429,213,cs),
(415,144,o),
(364,93,o),
(331,32,c),
(299,48,o),
(264,61,o),
(227,71,c),
(210,122,o),
(193,174,o),
(201,235,c)
);
}
);
width = 542;
}
);
note = maprehalftamil;
},
{
glyphname = yaprehalftamil;
layers = (
{
anchors = (
{
name = bottom;
pos = (535,-29);
},
{
name = top;
pos = (535,-29);
}
);
layerId = m01;
shapes = (
{
closed = 1;
nodes = (
(39,44,o),
(21,86,o),
(20,133,cs),
(15,273,o),
(122,399,o),
(65,500,c),
(141,500,l),
(155,473,o),
(155,437,o),
(155,410,cs),
(155,364,o),
(135,314,o),
(125,284,cs),
(107,234,o),
(79,140,o),
(111,97,cs),
(138,60,o),
(204,27,o),
(276,83,cs),
(331,126,o),
(342,187,o),
(328,295,cs),
(319,364,o),
(305,414,o),
(250,500,c),
(325,500,l),
(377,414,o),
(390,360,o),
(399,293,cs),
(413,188,o),
(395,150,o),
(383,111,c),
(430,111,o),
(471,137,o),
(516,118,c),
(506,190,o),
(501,230,o),
(504,299,cs),
(512,392,o),
(526,438,o),
(551,500,c),
(640,500,l),
(576,408,o),
(579,317,o),
(581,224,c),
(590,120,o),
(594,107,o),
(622,36,c),
(576,-32,l),
(551,10,o),
(507,31,o),
(462,39,cs),
(410,48,o),
(370,33,o),
(328,36,c),
(302,16,o),
(274,-14,o),
(188,-16,cs),
(148,-17,o),
(104,-6,o),
(74,17,cs)
);
},
{
closed = 1;
nodes = (
(390,671,o),
(433,673,o),
(444,659,c),
(452,625,o),
(431,602,o),
(415,590,cs),
(388,569,o),
(363,613,o),
(363,659,c)
);
}
);
width = 1071;
}
);
note = yaprehalftamil;
},
{
glyphname = raprehalftamil;
layers = (
{
anchors = (
{
name = bottom;
pos = (364,-29);
},
{
name = top;
pos = (224,-29);
}
);
layerId = m01;
shapes = (
{
closed = 1;
nodes = (
(239,438,o),
(207,433,o),
(204,431,c),
(204,385,o),
(178,314,o),
(168,284,cs),
(126,144,o),
(143,62,o),
(178,0,c),
(101,0,l),
(80,29,o),
(63,65,o),
(63,133,cs),
(63,273,o),
(144,355,o),
(101,456,c),
(130,494,o),
(178,540,o),
(275,531,cs),
(343,525,o),
(390,500,o),
(455,492,cs),
(503,488,o),
(550,497,o),
(598,526,c),
(620,515,o),
(613,445,o),
(574,400,cs),
(563,387,o),
(543,364,o),
(484,375,c),
(445,353,o),
(406,283,o),
(409,190,c),
(415,127,o),
(434,55,o),
(474,0,c),
(480,-122,o),
(393,-273,o),
(193,-254,cs),
(119,-247,o),
(81,-223,o),
(14,-222,cs),
(-28,-222,o),
(-79,-231,o),
(-102,-254,cs),
(-109,-261,o),
(-117,-255,o),
(-119,-245,cs),
(-131,-172,o),
(-52,-112,o),
(-37,-107,c),
(50,-103,o),
(108,-154,o),
(193,-165,cs),
(332,-184,o),
(383,-93,o),
(379,0,c),
(315,139,o),
(299,297,o),
(394,400,c),
(349,411,o),
(323,427,o),
(262,435,cs)
);
},
{
closed = 1;
nodes = (
(219,671,o),
(262,673,o),
(273,659,c),
(281,625,o),
(260,602,o),
(244,590,cs),
(217,569,o),
(192,613,o),
(192,659,c)
);
}
);
width = 729;
}
);
note = raprehalftamil;
},
{
glyphname = rraprehalftamil;
layers = (
{
anchors = (
{
name = bottom;
pos = (515,-29);
},
{
name = top;
pos = (515,-29);
}
);
layerId = m01;
shapes = (
{
closed = 1;
nodes = (
(500,417,o),
(511,431,o),
(548,428,c),
(669,406,o),
(662,281,o),
(662,245,cs),
(662,26,o),
(557,-177,o),
(333,-146,cs),
(248,-134,o),
(190,-84,o),
(103,-88,c),
(88,-93,o),
(9,-153,o),
(21,-226,cs),
(23,-236,o),
(31,-242,o),
(38,-235,cs),
(61,-212,o),
(112,-203,o),
(154,-203,cs),
(221,-204,o),
(266,-230,o),
(333,-235,cs),
(594,-253,o),
(738,-17,o),
(738,247,cs),
(738,285,o),
(738,489,o),
(544,509,cs),
(490,514,o),
(460,477,o),
(435,469,c),
(400,501,o),
(359,516,o),
(299,516,cs),
(259,516,o),
(215,506,o),
(185,483,cs),
(150,456,o),
(132,414,o),
(131,367,cs),
(126,227,o),
(233,101,o),
(176,0,c),
(252,0,l),
(266,27,o),
(268,63,o),
(266,90,cs),
(266,136,o),
(246,186,o),
(236,216,cs),
(218,266,o),
(190,360,o),
(222,403,cs),
(249,440,o),
(315,473,o),
(387,417,cs),
(442,374,o),
(453,313,o),
(439,205,cs),
(430,136,o),
(416,86,o),
(361,0,c),
(436,0,l),
(488,86,o),
(501,140,o),
(510,207,cs),
(521,289,o),
(514,356,o),
(482,410,c)
);
},
{
closed = 1;
nodes = (
(371,671,o),
(414,673,o),
(425,659,c),
(433,625,o),
(412,602,o),
(396,590,cs),
(369,569,o),
(344,613,o),
(344,659,c)
);
}
);
width = 1030;
}
);
note = rraprehalftamil;
},
{
glyphname = laprehalftamil;
layers = (
{
anchors = (
{
name = bottom;
pos = (590,-29);
},
{
name = top;
pos = (590,-29);
}
);
layerId = m01;
shapes = (
{
closed = 1;
nodes = (
(449,-12,o),
(521,61,o),
(521,177,cs),
(521,295,o),
(447,355,o),
(335,355,cs),
(294,355,o),
(258,345,o),
(226,330,c),
(258,407,o),
(331,451,o),
(419,451,cs),
(481,451,o),
(517,433,o),
(541,402,cs),
(574,359,o),
(580,295,o),
(586,229,cs),
(595,133,o),
(626,68,o),
(683,30,cs),
(726,2,o),
(779,-12,o),
(861,-12,cs),
(1054,-12,o),
(1139,112,o),
(1139,266,cs),
(1139,388,o),
(1101,501,o),
(1004,615,c),
(847,526,l),
(917,440,o),
(949,345,o),
(949,253,cs),
(949,150,o),
(920,118,o),
(865,118,cs),
(839,118,o),
(818,126,o),
(804,141,cs),
(786,160,o),
(778,184,o),
(776,233,cs),
(770,377,o),
(738,462,o),
(667,518,cs),
(612,561,o),
(542,581,o),
(433,581,cs),
(214,581,o),
(37,469,o),
(37,247,cs),
(37,79,o),
(127,-12,o),
(284,-12,cs)
);
},
{
closed = 1;
nodes = (
(445,671,o),
(488,673,o),
(499,659,c),
(507,625,o),
(486,602,o),
(470,590,cs),
(443,569,o),
(418,613,o),
(418,659,c)
);
},
{
closed = 1;
nodes = (
(229,225,o),
(252,234,o),
(277,234,cs),
(315,234,o),
(340,217,o),
(340,174,cs),
(340,135,o),
(321,114,o),
(282,114,cs),
(236,114,o),
(213,149,o),
(209,211,c)
);
}
);
width = 1180;
}
);
note = laprehalftamil;
},
{
glyphname = llaprehalftamil;
layers = (
{
anchors = (
{
name = bottom;
pos = (622,-29);
},
{
name = top;
pos = (622,-29);
}
);
layerId = m01;
shapes = (
{
closed = 1;
nodes = (
(449,-12,o),
(521,61,o),
(521,177,cs),
(521,296,o),
(447,355,o),
(335,355,cs),
(293,355,o),
(257,345,o),
(224,329,c),
(252,407,o),
(318,451,o),
(405,451,cs),
(489,451,o),
(545,416,o),
(591,367,c),
(591,0,l),
(781,0,l),
(781,439,l),
(905,439,l),
(905,0,l),
(1095,0,l),
(1095,439,l),
(1227,439,l),
(1227,569,l),
(613,569,l),
(613,525,l),
(549,563,o),
(484,581,o),
(400,581,cs),
(212,581,o),
(37,469,o),
(37,248,cs),
(37,79,o),
(127,-12,o),
(285,-12,cs)
);
},
{
closed = 1;
nodes = (
(477,671,o),
(520,673,o),
(531,659,c),
(539,625,o),
(518,602,o),
(502,590,cs),
(475,569,o),
(450,613,o),
(450,659,c)
);
},
{
closed = 1;
nodes = (
(231,226,o),
(253,234,o),
(278,234,cs),
(315,234,o),
(340,217,o),
(340,174,cs),
(340,135,o),
(321,114,o),
(283,114,cs),
(236,114,o),
(214,149,o),
(210,212,c)
);
}
);
width = 1244;
}
);
note = llaprehalftamil;
},
{
glyphname = lllaprehalftamil;
layers = (
{
anchors = (
{
name = bottom;
pos = (484,-29);
},
{
name = top;
pos = (299,-29);
}
);
layerId = m01;
shapes = (
{
closed = 1;
nodes = (
(412,-123,ls),
(366,-87,o),
(327,-52,o),
(295,-12,cs),
(273,15,o),
(255,44,o),
(242,77,c),
(317,84,l),
(333,50,o),
(355,21,o),
(383,-6,c),
(356,-7,o),
(324,-10,o),
(295,-12,cs),
(201,-20,o),
(108,-27,o),
(58,0,c),
(31,35,o),
(21,83,o),
(20,133,cs),
(16,243,o),
(82,345,o),
(82,433,cs),
(82,456,o),
(77,479,o),
(65,500,c),
(141,500,l),
(152,479,o),
(156,452,o),
(156,428,cs),
(155,410,ls),
(155,364,o),
(135,314,o),
(125,284,cs),
(111,245,o),
(99,185,o),
(99,129,cs),
(99,113,o),
(100,98,o),
(102,83,c),
(136,69,o),
(186,71,o),
(242,77,c),
(228,112,o),
(220,152,o),
(220,197,cs),
(220,327,o),
(295,496,o),
(440,500,cs),
(581,504,o),
(617,375,o),
(612,260,c),
(600,130,o),
(550,111,o),
(519,-19,c),
(486,-5,o),
(437,-4,o),
(383,-6,c),
(422,-44,o),
(471,-75,o),
(521,-99,cs),
(565,-121,o),
(610,-126,o),
(652,-131,cs),
(684,-135,o),
(699,-141,o),
(713,-149,c),
(713,-183,o),
(684,-208,o),
(657,-226,c),
(447,-151,o),
(362,-303,o),
(186,-273,c),
(176,-269,o),
(107,-181,o),
(148,-151,c),
(261,-195,o),
(380,-144,o),
(437,-144,c)
);
},
{
closed = 1;
nodes = (
(339,671,o),
(382,673,o),
(393,659,c),
(401,625,o),
(380,602,o),
(364,590,cs),
(337,569,o),
(312,613,o),
(312,659,c)
);
},
{
closed = 1;
nodes = (
(287,178,o),
(296,128,o),
(317,84,c),
(367,88,o),
(418,90,o),
(460,77,c),
(485,114,o),
(510,169,o),
(519,213,cs),
(567,467,o),
(332,467,o),
(296,235,cs)
);
}
);
width = 968;
}
);
note = lllaprehalftamil;
},
{
glyphname = vaprehalftamil;
layers = (
{
anchors = (
{
name = bottom;
pos = (597,-29);
},
{
name = top;
pos = (597,-29);
}
);
layerId = m01;
shapes = (
{
closed = 1;
nodes = (
(449,-12,o),
(521,61,o),
(521,177,cs),
(521,293,o),
(450,355,o),
(335,355,cs),
(294,355,o),
(257,345,o),
(224,329,c),
(252,406,o),
(319,451,o),
(415,451,cs),
(528,451,o),
(601,381,o),
(601,259,cs),
(601,198,o),
(589,142,o),
(564,99,c),
(570,0,l),
(1126,0,l),
(1126,569,l),
(936,569,l),
(936,130,l),
(762,130,l),
(783,175,o),
(791,236,o),
(791,283,cs),
(791,446,o),
(686,581,o),
(429,581,cs),
(204,581,o),
(37,469,o),
(37,245,cs),
(37,79,o),
(127,-12,o),
(285,-12,cs)
);
},
{
closed = 1;
nodes = (
(452,671,o),
(495,673,o),
(506,659,c),
(514,625,o),
(493,602,o),
(477,590,cs),
(450,569,o),
(425,613,o),
(425,659,c)
);
},
{
closed = 1;
nodes = (
(231,226,o),
(253,234,o),
(278,234,cs),
(315,234,o),
(340,217,o),
(340,174,cs),
(340,135,o),
(321,114,o),
(283,114,cs),
(236,114,o),
(214,149,o),
(210,212,c)
);
}
);
width = 1194;
}
);
note = vaprehalftamil;
},
{
glyphname = shaprehalftamil;
layers = (
{
anchors = (
{
name = bottom;
pos = (667,-29);
},
{
name = top;
pos = (667,-29);
}
);
layerId = m01;
shapes = (
{
closed = 1;
nodes = (
(438,-12,o),
(514,8,o),
(562,59,cs),
(599,99,o),
(619,156,o),
(619,257,cs),
(619,439,l),
(711,439,l),
(711,270,ls),
(711,166,o),
(730,109,o),
(766,67,cs),
(815,10,o),
(893,-12,o),
(992,-12,cs),
(1090,-12,o),
(1163,9,o),
(1210,59,cs),
(1249,101,o),
(1269,159,o),
(1269,258,cs),
(1269,569,l),
(429,569,l),
(429,260,ls),
(429,196,o),
(423,164,o),
(406,144,cs),
(392,128,o),
(372,120,o),
(342,120,cs),
(314,120,o),
(294,128,o),
(281,142,cs),
(261,162,o),
(255,199,o),
(255,260,cs),
(255,569,l),
(65,569,l),
(65,270,ls),
(65,170,o),
(84,114,o),
(118,70,cs),
(166,9,o),
(244,-12,o),
(344,-12,cs)
);
},
{
closed = 1;
nodes = (
(961,120,o),
(943,127,o),
(929,141,cs),
(910,161,o),
(901,192,o),
(901,259,cs),
(901,439,l),
(1079,439,l),
(1079,256,ls),
(1079,194,o),
(1072,164,o),
(1055,144,cs),
(1041,128,o),
(1021,120,o),
(990,120,cs)
);
},
{
closed = 1;
nodes = (
(522,671,o),
(565,673,o),
(576,659,c),
(584,625,o),
(563,602,o),
(547,590,cs),
(520,569,o),
(495,613,o),
(495,659,c)
);
}
);
width = 1334;
}
);
note = shaprehalftamil;
},
{
glyphname = ssaprehalftamil;
layers = (
{
anchors = (
{
name = bottom;
pos = (797,-29);
},
{
name = top;
pos = (797,-29);
}
);
layerId = m01;
shapes = (
{
closed = 1;
nodes = (
(900,581,o),
(841,484,o),
(841,390,cs),
(841,300,o),
(887,211,o),
(1055,190,c),
(1038,130,l),
(762,130,l),
(783,175,o),
(791,236,o),
(791,283,cs),
(791,446,o),
(686,581,o),
(428,581,cs),
(204,581,o),
(37,469,o),
(37,245,cs),
(37,79,o),
(127,-12,o),
(285,-12,cs),
(449,-12,o),
(521,61,o),
(521,177,cs),
(521,293,o),
(450,355,o),
(335,355,cs),
(294,355,o),
(257,345,o),
(224,329,c),
(252,406,o),
(319,451,o),
(415,451,cs),
(528,451,o),
(601,381,o),
(601,259,cs),
(601,198,o),
(589,142,o),
(564,99,c),
(570,0,l),
(1007,0,l),
(940,-236,l),
(1117,-284,l),
(1196,0,l),
(1538,0,l),
(1538,368,l),
(1378,368,l),
(1351,347,o),
(1318,329,o),
(1279,318,c),
(1283,340,o),
(1286,365,o),
(1286,393,cs),
(1286,493,o),
(1228,581,o),
(1069,581,cs)
);
},
{
closed = 1;
nodes = (
(649,671,o),
(692,673,o),
(703,659,c),
(711,625,o),
(690,602,o),
(674,590,cs),
(647,569,o),
(622,613,o),
(622,659,c)
);
},
{
closed = 1;
nodes = (
(231,226,o),
(253,234,o),
(278,234,cs),
(315,234,o),
(340,217,o),
(340,174,cs),
(340,135,o),
(321,114,o),
(283,114,cs),
(236,114,o),
(214,149,o),
(210,212,c)
);
},
{
closed = 1;
nodes = (
(1007,423,o),
(1026,453,o),
(1059,453,cs),
(1091,453,o),
(1101,426,o),
(1101,394,cs),
(1101,364,o),
(1095,340,o),
(1088,310,c),
(1029,318,o),
(1007,345,o),
(1007,390,cs)
);
},
{
closed = 1;
nodes = (
(1232,130,l),
(1248,188,l),
(1313,196,o),
(1357,218,o),
(1380,232,c),
(1378,184,l),
(1378,130,l)
);
}
);
width = 1589;
}
);
note = ssaprehalftamil;
},
{
glyphname = saprehalftamil;
layers = (
{
anchors = (
{
name = bottom;
pos = (749,-29);
},
{
name = top;
pos = (749,-29);
}
);
layerId = m01;
shapes = (
{
closed = 1;
nodes = (
(449,-12,o),
(521,61,o),
(521,177,cs),
(521,295,o),
(447,355,o),
(335,355,cs),
(294,355,o),
(258,345,o),
(225,329,c),
(254,407,o),
(321,451,o),
(415,451,cs),
(474,451,o),
(511,436,o),
(536,413,cs),
(580,373,o),
(589,307,o),
(589,242,cs),
(589,0,l),
(779,0,l),
(779,326,ls),
(779,381,o),
(786,412,o),
(803,432,cs),
(814,445,o),
(830,451,o),
(850,451,cs),
(871,451,o),
(884,444,o),
(893,431,cs),
(909,410,o),
(911,374,o),
(911,332,cs),
(911,254,ls),
(911,127,o),
(949,65,o),
(1002,30,cs),
(1045,2,o),
(1098,-12,o),
(1180,-12,cs),
(1373,-12,o),
(1458,112,o),
(1458,266,cs),
(1458,388,o),
(1420,501,o),
(1323,615,c),
(1166,526,l),
(1236,439,o),
(1268,345,o),
(1268,253,cs),
(1268,150,o),
(1239,118,o),
(1184,118,cs),
(1158,118,o),
(1137,126,o),
(1123,141,cs),
(1106,160,o),
(1098,184,o),
(1098,253,cs),
(1098,316,ls),
(1098,413,o),
(1076,485,o),
(1023,532,cs),
(988,563,o),
(940,581,o),
(876,581,cs),
(782,581,o),
(719,545,o),
(668,481,c),
(609,541,o),
(536,581,o),
(419,581,cs),
(213,581,o),
(37,469,o),
(37,245,cs),
(37,79,o),
(127,-12,o),
(284,-12,cs)
);
},
{
closed = 1;
nodes = (
(604,671,o),
(647,673,o),
(658,659,c),
(666,625,o),
(645,602,o),
(629,590,cs),
(602,569,o),
(577,613,o),
(577,659,c)
);
},
{
closed = 1;
nodes = (
(231,226,o),
(252,234,o),
(277,234,cs),
(315,234,o),
(340,217,o),
(340,174,cs),
(340,135,o),
(321,114,o),
(282,114,cs),
(235,114,o),
(214,149,o),
(210,212,c)
);
}
);
width = 1499;
}
);
note = saprehalftamil;
},
{
glyphname = haprehalftamil;
layers = (
{
anchors = (
{
name = bottom;
pos = (942,-29);
},
{
name = top;
pos = (942,-29);
}
);
layerId = m01;
shapes = (
{
closed = 1;
nodes = (
(1450,581,o),
(1388,548,o),
(1337,488,c),
(1296,546,o),
(1245,581,o),
(1156,581,cs),
(1092,581,o),
(1042,565,o),
(1004,536,cs),
(949,494,o),
(917,429,o),
(917,310,cs),
(917,130,l),
(762,130,l),
(783,175,o),
(791,236,o),
(791,283,cs),
(791,446,o),
(686,581,o),
(428,581,cs),
(204,581,o),
(37,469,o),
(37,245,cs),
(37,79,o),
(127,-12,o),
(285,-12,cs),
(449,-12,o),
(521,61,o),
(521,177,cs),
(521,293,o),
(450,355,o),
(335,355,cs),
(293,355,o),
(257,345,o),
(224,329,c),
(252,406,o),
(318,451,o),
(415,451,cs),
(528,451,o),
(601,381,o),
(601,259,cs),
(601,198,o),
(589,142,o),
(564,99,c),
(570,0,l),
(1107,0,l),
(1107,304,ls),
(1107,366,o),
(1109,407,o),
(1130,432,cs),
(1140,444,o),
(1155,451,o),
(1175,451,cs),
(1195,451,o),
(1208,443,o),
(1218,431,cs),
(1236,408,o),
(1238,372,o),
(1238,297,cs),
(1238,0,l),
(1428,0,l),
(1428,298,ls),
(1428,364,o),
(1436,403,o),
(1464,429,cs),
(1479,443,o),
(1499,451,o),
(1528,451,cs),
(1604,451,o),
(1650,379,o),
(1650,236,cs),
(1650,0,o),
(1555,-50,o),
(1331,-50,cs),
(300,-50,ls),
(192,-50,o),
(146,-62,o),
(102,-91,cs),
(58,-120,o),
(30,-169,o),
(30,-231,cs),
(30,-262,o),
(32,-291,o),
(36,-322,c),
(223,-312,l),
(221,-299,o),
(220,-286,o),
(220,-269,cs),
(220,-235,o),
(231,-214,o),
(250,-200,cs),
(273,-184,o),
(300,-180,o),
(361,-180,cs),
(1344,-180,ls),
(1524,-180,o),
(1629,-157,o),
(1714,-88,cs),
(1790,-27,o),
(1840,73,o),
(1840,239,cs),
(1840,456,o),
(1734,581,o),
(1544,581,cs)
);
},
{
closed = 1;
nodes = (
(797,671,o),
(840,673,o),
(851,659,c),
(859,625,o),
(838,602,o),
(822,590,cs),
(795,569,o),
(770,613,o),
(770,659,c)
);
},
{
closed = 1;
nodes = (
(231,226,o),
(253,234,o),
(278,234,cs),
(315,234,o),
(340,217,o),
(340,174,cs),
(340,135,o),
(321,114,o),
(283,114,cs),
(236,114,o),
(214,149,o),
(210,212,c)
);
}
);
width = 1884;
}
);
note = haprehalftamil;
},
{
glyphname = tchaprehalftamil;
layers = (
{
anchors = (
{
name = bottom;
pos = (1097,-29);
},
{
name = top;
pos = (1097,-29);
}
);
layerId = m01;
shapes = (
{
closed = 1;
nodes = (
(1499,581,o),
(1440,484,o),
(1440,390,cs),
(1440,300,o),
(1486,211,o),
(1654,190,c),
(1637,130,l),
(1381,130,l),
(1388,145,o),
(1404,184,o),
(1404,248,cs),
(1404,347,o),
(1348,493,o),
(1079,493,cs),
(936,493,o),
(828,436,o),
(769,355,c),
(619,355,l),
(619,439,l),
(810,439,l),
(810,569,l),
(129,569,l),
(129,313,l),
(61,280,o),
(33,230,o),
(33,168,cs),
(33,50,o),
(131,-12,o),
(313,-12,cs),
(424,-12,o),
(498,8,o),
(549,55,cs),
(592,95,o),
(616,154,o),
(619,234,c),
(720,234,l),
(718,221,o),
(717,209,o),
(717,197,cs),
(717,48,o),
(806,-12,o),
(938,-12,cs),
(1069,-12,o),
(1142,55,o),
(1142,165,cs),
(1142,216,o),
(1124,257,o),
(1093,287,cs),
(1061,317,o),
(1021,336,o),
(967,346,c),
(994,358,o),
(1023,363,o),
(1059,363,cs),
(1163,363,o),
(1223,307,o),
(1223,216,cs),
(1223,170,o),
(1215,130,o),
(1193,99,c),
(1199,0,l),
(1606,0,l),
(1539,-236,l),
(1716,-284,l),
(1795,0,l),
(2137,0,l),
(2137,368,l),
(1977,368,l),
(1950,347,o),
(1917,329,o),
(1878,318,c),
(1882,340,o),
(1885,365,o),
(1885,393,cs),
(1885,493,o),
(1827,581,o),
(1668,581,cs)
);
},
{
closed = 1;
nodes = (
(952,671,o),
(995,673,o),
(1006,659,c),
(1014,625,o),
(993,602,o),
(977,590,cs),
(950,569,o),
(925,613,o),
(925,659,c)
);
},
{
closed = 1;
nodes = (
(217,196,o),
(227,211,o),
(247,221,cs),
(269,231,o),
(296,234,o),
(353,234,cs),
(434,234,l),
(432,142,o),
(387,118,o),
(315,118,cs),
(253,118,o),
(217,133,o),
(217,176,cs)
);
},
{
closed = 1;
nodes = (
(300,439,l),
(434,439,l),
(434,355,l),
(379,355,ls),
(351,355,o),
(325,354,o),
(300,352,c)
);
},
{
closed = 1;
nodes = (
(882,206,o),
(884,220,o),
(887,233,c),
(974,226,o),
(982,184,o),
(982,159,cs),
(982,125,o),
(962,109,o),
(937,109,cs),
(897,109,o),
(882,139,o),
(882,191,cs)
);
},
{
closed = 1;
nodes = (
(1606,423,o),
(1625,453,o),
(1658,453,cs),
(1690,453,o),
(1700,426,o),
(1700,394,cs),
(1700,364,o),
(1694,340,o),
(1687,310,c),
(1628,318,o),
(1606,345,o),
(1606,390,cs)
);
},
{
closed = 1;
nodes = (
(1831,130,l),
(1847,188,l),
(1912,196,o),
(1956,218,o),
(1979,232,c),
(1977,184,l),
(1977,130,l)
);
}
);
width = 2194;
}
);
note = tchaprehalftamil;
},
{
glyphname = kaiivowelsigntamil;
layers = (
{
anchors = (
{
name = bottom;
pos = (483,-29);
},
{
name = top;
pos = (483,-29);
}
);
layerId = m01;
shapes = (
{
closed = 1;
nodes = (
(217,338,o),
(254,341,o),
(286,345,c),
(289,375,o),
(308,404,o),
(324,424,c),
(301,433,o),
(274,438,o),
(249,438,cs),
(226,438,o),
(208,432,o),
(188,430,c),
(198,392,o),
(193,350,o),
(183,322,c)
);
},
{
closed = 1;
nodes = (
(219,270,o),
(114,236,o),
(92,169,cs),
(71,103,o),
(125,84,o),
(142,75,c),
(229,47,o),
(254,98,o),
(260,109,c),
(282,141,o),
(267,218,o),
(276,275,c)
);
},
{
closed = 1;
nodes = (
(436,84,o),
(451,71,o),
(478,73,c),
(573,86,o),
(524,254,o),
(346,277,c),
(332,213,o),
(346,124,o),
(325,86,c),
(317,64,o),
(260,-15,o),
(172,-10,cs),
(106,-6,o),
(20,47,o),
(20,151,cs),
(20,192,o),
(51,244,o),
(95,274,c),
(131,360,o),
(131,417,o),
(111,459,c),
(146,504,o),
(193,527,o),
(270,527,cs),
(344,527,o),
(375,500,o),
(442,492,cs),
(490,488,o),
(537,497,o),
(585,526,c),
(607,515,o),
(600,445,o),
(561,400,cs),
(547,383,o),
(510,352,o),
(412,392,c),
(396,383,o),
(375,372,o),
(363,338,c),
(511,308,o),
(595,225,o),
(595,135,cs),
(595,77,o),
(577,11,o),
(485,-1,cs),
(454,-5,o),
(394,12,o),
(369,72,c),
(379,101,o),
(400,116,o),
(423,120,c),
(424,115,o),
(426,110,o),
(428,105,cs)
);
},
{
closed = 1;
nodes = (
(526,851,o),
(446,729,o),
(446,632,cs),
(446,583,o),
(454,547,o),
(472,510,c),
(616,536,l),
(604,562,o),
(597,586,o),
(597,616,cs),
(597,652,o),
(610,677,o),
(630,697,c),
(634,623,o),
(680,576,o),
(796,576,cs),
(914,576,o),
(975,626,o),
(975,707,cs),
(975,792,o),
(905,851,o),
(754,851,cs)
);
},
{
closed = 1;
nodes = (
(745,725,o),
(747,735,o),
(750,743,c),
(759,744,o),
(766,744,o),
(773,744,cs),
(808,744,o),
(833,733,o),
(833,706,cs),
(833,684,o),
(820,669,o),
(792,669,cs),
(760,669,o),
(745,684,o),
(745,715,cs)
);
}
);
width = 967;
}
);
note = kaiivowelsigntamil;
},
{
glyphname = kauvowelsigntamil;
layers = (
{
anchors = (
{
name = bottom;
pos = (622,-29);
},
{
name = top;
pos = (622,-29);
}
);
layerId = m01;
shapes = (
{
closed = 1;
nodes = (
(701,-12,o),
(775,8,o),
(826,55,cs),
(868,94,o),
(891,149,o),
(895,224,c),
(969,204,o),
(1024,154,o),
(1024,51,cs),
(1024,-114,o),
(872,-187,o),
(648,-187,cs),
(633,-187,ls),
(336,-187,o),
(225,-39,o),
(225,154,cs),
(225,170,ls),
(225,269,o),
(258,388,o),
(332,498,c),
(184,582,l),
(109,470,o),
(47,328,o),
(47,163,cs),
(47,152,ls),
(47,-69,o),
(171,-321,o),
(636,-321,cs),
(662,-321,ls),
(939,-321,o),
(1214,-224,o),
(1214,53,cs),
(1214,198,o),
(1125,328,o),
(896,351,c),
(896,439,l),
(1085,439,l),
(1085,569,l),
(406,569,l),
(406,313,l),
(338,280,o),
(310,230,o),
(310,168,cs),
(310,50,o),
(409,-12,o),
(590,-12,cs)
);
},
{
closed = 1;
nodes = (
(494,196,o),
(504,211,o),
(524,221,cs),
(546,231,o),
(573,234,o),
(630,234,cs),
(711,234,l),
(709,142,o),
(664,118,o),
(592,118,cs),
(530,118,o),
(494,133,o),
(494,176,cs)
);
},
{
closed = 1;
nodes = (
(577,439,l),
(711,439,l),
(711,355,l),
(656,355,ls),
(628,355,o),
(602,354,o),
(577,352,c)
);
}
);
width = 1245;
}
);
note = kauvowelsigntamil;
},
{
glyphname = kauuvowelsigntamil;
layers = (
{
anchors = (
{
name = bottom;
pos = (780,-29);
},
{
name = top;
pos = (780,-29);
}
);
layerId = m01;
shapes = (
{
closed = 1;
nodes = (
(1069,-12,o),
(1142,55,o),
(1142,165,cs),
(1142,216,o),
(1124,257,o),
(1093,287,cs),
(1061,317,o),
(1021,336,o),
(967,346,c),
(994,358,o),
(1023,363,o),
(1059,363,cs),
(1163,363,o),
(1223,307,o),
(1223,216,cs),
(1223,170,o),
(1215,130,o),
(1193,99,c),
(1199,0,l),
(1544,0,l),
(1544,130,l),
(1381,130,l),
(1388,145,o),
(1404,184,o),
(1404,248,cs),
(1404,347,o),
(1348,493,o),
(1079,493,cs),
(929,493,o),
(822,436,o),
(765,355,c),
(619,355,l),
(619,439,l),
(810,439,l),
(810,569,l),
(129,569,l),
(129,313,l),
(61,280,o),
(33,230,o),
(33,168,cs),
(33,50,o),
(131,-12,o),
(313,-12,cs),
(424,-12,o),
(498,8,o),
(549,55,cs),
(592,95,o),
(616,154,o),
(619,234,c),
(718,234,l),
(717,223,o),
(716,209,o),
(716,197,cs),
(716,48,o),
(806,-12,o),
(938,-12,cs)
);
},
{
closed = 1;
nodes = (
(217,196,o),
(227,211,o),
(247,221,cs),
(269,231,o),
(296,234,o),
(353,234,cs),
(434,234,l),
(432,142,o),
(387,118,o),
(315,118,cs),
(253,118,o),
(217,133,o),
(217,176,cs)
);
},
{
closed = 1;
nodes = (
(300,439,l),
(434,439,l),
(434,355,l),
(379,355,ls),
(351,355,o),
(325,354,o),
(300,352,c)
);
},
{
closed = 1;
nodes = (
(880,206,o),
(882,220,o),
(885,233,c),
(972,227,o),
(982,184,o),
(982,159,cs),
(982,125,o),
(962,109,o),
(937,109,cs),
(897,109,o),
(880,139,o),
(880,191,cs)
);
}
);
width = 1561;
}
);
note = kauuvowelsigntamil;
},
{
glyphname = ngaiivowelsigntamil;
layers = (
{
anchors = (
{
name = bottom;
pos = (622,-29);
},
{
name = top;
pos = (622,-29);
}
);
layerId = m01;
shapes = (
{
closed = 1;
nodes = (
(68,0,l),
(258,0,l),
(258,439,l),
(378,439,l),
(378,172,l),
(568,172,l),
(568,214,l),
(595,232,o),
(618,240,o),
(643,240,cs),
(676,240,o),
(698,221,o),
(698,185,cs),
(698,159,o),
(691,144,o),
(682,130,c),
(378,130,l),
(378,0,l),
(1176,0,l),
(1176,569,l),
(986,569,l),
(986,499,l),
(918,519,o),
(884,552,o),
(884,612,cs),
(884,650,o),
(895,675,o),
(913,695,c),
(917,624,o),
(964,576,o),
(1079,576,cs),
(1197,576,o),
(1258,626,o),
(1258,707,cs),
(1258,791,o),
(1188,851,o),
(1037,851,cs),
(813,851,o),
(733,730,o),
(733,613,cs),
(733,491,o),
(830,394,o),
(986,360,c),
(986,130,l),
(867,130,l),
(878,149,o),
(887,174,o),
(887,217,cs),
(887,289,o),
(832,370,o),
(697,370,cs),
(647,370,o),
(608,361,o),
(568,338,c),
(568,439,l),
(726,439,l),
(726,569,l),
(68,569,l)
);
},
{
closed = 1;
nodes = (
(1028,725,o),
(1030,735,o),
(1033,743,c),
(1041,744,o),
(1048,744,o),
(1056,744,cs),
(1091,744,o),
(1116,733,o),
(1116,706,cs),
(1116,684,o),
(1103,669,o),
(1075,669,cs),
(1043,669,o),
(1028,684,o),
(1028,715,cs)
);
}
);
width = 1244;
}
);
note = ngaiivowelsigntamil;
},
{
glyphname = ngauvowelsigntamil;
layers = (
{
anchors = (
{
name = bottom;
pos = (622,-29);
},
{
name = top;
pos = (622,-29);
}
);
layerId = m01;
shapes = (
{
closed = 1;
nodes = (
(68,0,l),
(258,0,l),
(258,439,l),
(378,439,l),
(378,172,l),
(568,172,l),
(568,214,l),
(595,232,o),
(618,240,o),
(643,240,cs),
(676,240,o),
(698,221,o),
(698,185,cs),
(698,159,o),
(691,144,o),
(682,130,c),
(378,130,l),
(378,0,l),
(986,0,l),
(986,-283,l),
(1176,-283,l),
(1176,569,l),
(986,569,l),
(986,130,l),
(867,130,l),
(878,149,o),
(887,174,o),
(887,217,cs),
(887,289,o),
(832,370,o),
(697,370,cs),
(647,370,o),
(608,361,o),
(568,338,c),
(568,439,l),
(763,439,l),
(763,569,l),
(68,569,l)
);
}
);
width = 1244;
}
);
note = ngauvowelsigntamil;
},
{
glyphname = ngauuvowelsigntamil;
layers = (
{
anchors = (
{
name = bottom;
pos = (744,-29);
},
{
name = top;
pos = (744,-29);
}
);
layerId = m01;
shapes = (
{
closed = 1;
nodes = (
(1245,130,o),
(1206,123,o),
(1176,113,c),
(1176,569,l),
(986,569,l),
(986,130,l),
(867,130,l),
(878,149,o),
(887,174,o),
(887,217,cs),
(887,289,o),
(832,370,o),
(697,370,cs),
(647,370,o),
(608,361,o),
(568,338,c),
(568,439,l),
(763,439,l),
(763,569,l),
(68,569,l),
(68,0,l),
(258,0,l),
(258,439,l),
(378,439,l),
(378,172,l),
(568,172,l),
(568,214,l),
(595,232,o),
(618,240,o),
(643,240,cs),
(676,240,o),
(698,221,o),
(698,185,cs),
(698,159,o),
(691,144,o),
(682,130,c),
(378,130,l),
(378,0,l),
(986,0,l),
(986,-133,l),
(1176,-133,l),
(1176,-8,l),
(1195,0,o),
(1215,4,o),
(1239,4,cs),
(1284,4,o),
(1307,-20,o),
(1307,-56,cs),
(1307,-87,o),
(1292,-109,o),
(1266,-128,cs),
(1194,-181,o),
(1042,-194,o),
(769,-194,cs),
(667,-194,ls),
(305,-194,o),
(239,-180,o),
(239,-151,cs),
(239,-133,o),
(256,-130,o),
(291,-130,cs),
(338,-130,o),
(391,-140,o),
(434,-150,c),
(460,-35,l),
(410,-20,o),
(341,-9,o),
(262,-9,cs),
(133,-9,o),
(67,-60,o),
(67,-143,cs),
(67,-219,o),
(115,-261,o),
(196,-288,cs),
(282,-317,o),
(390,-321,o),
(651,-321,cs),
(766,-321,ls),
(1039,-321,o),
(1239,-309,o),
(1361,-241,cs),
(1438,-198,o),
(1488,-141,o),
(1488,-43,cs),
(1488,73,o),
(1400,130,o),
(1295,130,cs)
);
}
);
width = 1489;
}
);
note = ngauuvowelsigntamil;
},
{
glyphname = caiivowelsigntamil;
layers = (
{
anchors = (
{
name = bottom;
pos = (432,-29);
},
{
name = top;
pos = (432,-29);
}
);
layerId = m01;
shapes = (
{
closed = 1;
nodes = (
(131,417,o),
(134,356,o),
(98,270,c),
(54,240,o),
(20,192,o),
(20,151,cs),
(20,47,o),
(106,-6,o),
(172,-10,cs),
(260,-15,o),
(320,64,o),
(325,86,c),
(334,113,o),
(335,171,o),
(340,227,c),
(373,227,o),
(420,225,o),
(445,271,cs),
(449,280,o),
(465,316,o),
(445,311,c),
(419,301,o),
(380,299,o),
(351,301,c),
(361,344,o),
(379,380,o),
(412,392,c),
(510,352,o),
(547,383,o),
(561,400,cs),
(600,445,o),
(607,515,o),
(585,526,c),
(537,497,o),
(490,488,o),
(442,492,cs),
(375,500,o),
(344,527,o),
(270,527,cs),
(193,527,o),
(146,504,o),
(111,459,c)
);
},
{
closed = 1;
nodes = (
(191,330,o),
(202,386,o),
(192,428,c),
(212,430,o),
(226,438,o),
(249,438,cs),
(274,438,o),
(304,429,o),
(327,422,c),
(306,402,o),
(284,346,o),
(284,306,c),
(249,310,o),
(205,307,o),
(181,302,c)
);
},
{
closed = 1;
nodes = (
(267,176,o),
(282,141,o),
(260,109,c),
(254,98,o),
(229,47,o),
(142,75,c),
(125,84,o),
(72,102,o),
(92,169,cs),
(111,235,o),
(215,236,o),
(276,233,c)
);
},
{
closed = 1;
nodes = (
(473,851,o),
(393,729,o),
(393,632,cs),
(393,583,o),
(401,547,o),
(419,510,c),
(563,536,l),
(551,562,o),
(544,586,o),
(544,616,cs),
(544,652,o),
(557,677,o),
(577,697,c),
(581,623,o),
(627,576,o),
(743,576,cs),
(861,576,o),
(922,626,o),
(922,707,cs),
(922,792,o),
(852,851,o),
(701,851,cs)
);
},
{
closed = 1;
nodes = (
(692,725,o),
(694,735,o),
(697,743,c),
(706,744,o),
(713,744,o),
(720,744,cs),
(755,744,o),
(780,733,o),
(780,706,cs),
(780,684,o),
(767,669,o),
(739,669,cs),
(707,669,o),
(692,684,o),
(692,715,cs)
);
}
);
width = 914;
}
);
note = caiivowelsigntamil;
},
{
glyphname = cauvowelsigntamil;
layers = (
{
anchors = (
{
name = bottom;
pos = (507,-29);
},
{
name = top;
pos = (507,-29);
}
);
layerId = m01;
shapes = (
{
closed = 1;
nodes = (
(424,-12,o),
(498,8,o),
(549,55,cs),
(592,95,o),
(616,154,o),
(619,234,c),
(705,234,l),
(705,0,l),
(890,0,l),
(890,234,l),
(989,234,l),
(989,355,l),
(619,355,l),
(619,439,l),
(810,439,l),
(810,569,l),
(129,569,l),
(129,313,l),
(61,280,o),
(33,230,o),
(33,168,cs),
(33,50,o),
(131,-12,o),
(313,-12,cs)
);
},
{
closed = 1;
nodes = (
(217,196,o),
(227,211,o),
(247,221,cs),
(269,231,o),
(296,234,o),
(353,234,cs),
(434,234,l),
(432,142,o),
(387,118,o),
(315,118,cs),
(253,118,o),
(217,133,o),
(217,176,cs)
);
},
{
closed = 1;
nodes = (
(300,439,l),
(434,439,l),
(434,355,l),
(379,355,ls),
(351,355,o),
(325,354,o),
(300,352,c)
);
}
);
width = 1015;
}
);
note = cauvowelsigntamil;
},
{
glyphname = cauuvowelsigntamil;
layers = (
{
anchors = (
{
name = bottom;
pos = (734,-29);
},
{
name = top;
pos = (734,-29);
}
);
layerId = m01;
shapes = (
{
closed = 1;
nodes = (
(1226,205,o),
(1190,197,o),
(1158,185,c),
(1159,234,l),
(1266,234,l),
(1266,355,l),
(896,355,l),
(896,439,l),
(1087,439,l),
(1087,569,l),
(406,569,l),
(406,313,l),
(337,280,o),
(310,230,o),
(310,168,cs),
(310,50,o),
(408,-12,o),
(590,-12,cs),
(701,-12,o),
(775,8,o),
(826,55,cs),
(869,95,o),
(893,154,o),
(896,234,c),
(982,234,l),
(982,0,l),
(1155,0,l),
(1156,63,l),
(1176,73,o),
(1195,79,o),
(1215,79,cs),
(1256,79,o),
(1278,58,o),
(1278,8,cs),
(1278,-163,o),
(1006,-186,o),
(798,-186,cs),
(762,-186,ls),
(407,-186,o),
(225,-70,o),
(225,172,cs),
(225,191,ls),
(225,276,o),
(258,379,o),
(332,498,c),
(184,581,l),
(109,470,o),
(47,328,o),
(47,168,cs),
(47,155,ls),
(47,15,o),
(97,-85,o),
(177,-157,cs),
(310,-278,o),
(512,-321,o),
(758,-321,cs),
(809,-321,ls),
(1152,-321,o),
(1456,-259,o),
(1456,16,cs),
(1456,104,o),
(1408,205,o),
(1265,205,cs)
);
},
{
closed = 1;
nodes = (
(494,196,o),
(504,211,o),
(524,221,cs),
(546,231,o),
(572,234,o),
(629,234,cs),
(711,234,l),
(709,142,o),
(664,118,o),
(592,118,cs),
(530,118,o),
(494,133,o),
(494,176,cs)
);
},
{
closed = 1;
nodes = (
(577,439,l),
(711,439,l),
(711,355,l),
(655,355,ls),
(627,355,o),
(602,354,o),
(577,352,c)
);
}
);
width = 1468;
}
);
note = cauuvowelsigntamil;
},
{
glyphname = jaiivowelsigntamil;
layers = (
{
anchors = (
{
name = bottom;
pos = (576,-29);
},
{
name = top;
pos = (576,-29);
}
);
layerId = m01;
shapes = (
{
closed = 1;
nodes = (
(174,581,o),
(35,496,o),
(35,350,cs),
(35,261,o),
(88,164,o),
(250,164,cs),
(395,164,o),
(462,228,o),
(462,330,cs),
(462,386,o),
(437,429,o),
(399,456,c),
(493,443,o),
(527,384,o),
(527,292,cs),
(527,204,l),
(715,204,l),
(715,299,ls),
(715,370,o),
(725,400,o),
(746,423,cs),
(760,438,o),
(781,449,o),
(814,449,cs),
(874,449,o),
(922,408,o),
(922,322,cs),
(922,270,o),
(907,233,o),
(876,208,cs),
(836,176,o),
(781,163,o),
(664,163,cs),
(444,163,ls),
(290,163,o),
(205,149,o),
(134,104,cs),
(74,66,o),
(35,7,o),
(35,-85,cs),
(35,-216,o),
(118,-321,o),
(328,-321,cs),
(484,-321,o),
(565,-276,o),
(673,-169,c),
(675,-234,o),
(720,-321,o),
(882,-321,cs),
(1037,-321,o),
(1099,-245,o),
(1099,-149,cs),
(1099,-47,o),
(1024,45,o),
(857,45,cs),
(837,45,l),
(904,55,o),
(960,73,o),
(1008,106,cs),
(1073,150,o),
(1112,220,o),
(1112,329,cs),
(1112,458,o),
(1024,581,o),
(829,581,cs),
(814,581,o),
(800,580,o),
(787,579,c),
(784,591,o),
(783,603,o),
(783,616,cs),
(783,652,o),
(796,677,o),
(816,697,c),
(820,623,o),
(866,576,o),
(982,576,cs),
(1100,576,o),
(1161,626,o),
(1161,707,cs),
(1161,792,o),
(1091,851,o),
(940,851,cs),
(712,851,o),
(632,729,o),
(632,632,cs),
(632,589,o),
(638,557,o),
(652,524,c),
(639,513,o),
(626,500,o),
(615,486,c),
(560,543,o),
(492,581,o),
(343,581,cs)
);
},
{
closed = 1;
nodes = (
(191,376,o),
(207,404,o),
(236,424,c),
(297,410,o),
(310,376,o),
(310,343,cs),
(310,308,o),
(288,284,o),
(249,284,cs),
(206,284,o),
(191,313,o),
(191,343,cs)
);
},
{
closed = 1;
nodes = (
(225,-42,o),
(244,-11,o),
(273,7,cs),
(310,30,o),
(351,35,o),
(423,35,cs),
(666,35,l),
(759,37,l),
(692,24,o),
(629,-10,o),
(542,-88,cs),
(449,-171,o),
(404,-191,o),
(339,-191,cs),
(258,-191,o),
(225,-142,o),
(225,-82,cs)
);
},
{
closed = 1;
nodes = (
(818,-118,o),
(827,-97,o),
(844,-77,c),
(917,-77,o),
(936,-113,o),
(936,-141,cs),
(936,-171,o),
(919,-197,o),
(879,-197,cs),
(837,-197,o),
(818,-176,o),
(818,-140,cs)
);
},
{
closed = 1;
nodes = (
(931,725,o),
(933,735,o),
(936,743,c),
(945,744,o),
(952,744,o),
(959,744,cs),
(994,744,o),
(1019,733,o),
(1019,706,cs),
(1019,684,o),
(1006,669,o),
(978,669,cs),
(946,669,o),
(931,684,o),
(931,715,cs)
);
}
);
width = 1153;
}
);
note = jaiivowelsigntamil;
},
{
glyphname = nyaiivowelsigntamil;
layers = (
{
anchors = (
{
name = bottom;
pos = (712,-29);
},
{
name = top;
pos = (712,-29);
}
);
layerId = m01;
shapes = (
{
closed = 1;
nodes = (
(1132,346,o),
(1098,341,o),
(1068,331,c),
(1068,439,l),
(1200,439,l),
(1200,569,l),
(1050,569,l),
(1046,584,o),
(1044,599,o),
(1044,616,cs),
(1044,652,o),
(1057,677,o),
(1077,697,c),
(1081,623,o),
(1127,576,o),
(1243,576,cs),
(1361,576,o),
(1422,626,o),
(1422,707,cs),
(1422,792,o),
(1352,851,o),
(1201,851,cs),
(973,851,o),
(893,729,o),
(893,632,cs),
(893,609,o),
(895,589,o),
(899,569,c),
(817,569,ls),
(627,569,o),
(521,550,o),
(433,482,cs),
(367,431,o),
(324,355,o),
(324,239,cs),
(324,79,o),
(414,-12,o),
(572,-12,cs),
(736,-12,o),
(808,61,o),
(808,177,cs),
(808,294,o),
(734,355,o),
(622,355,cs),
(583,355,o),
(548,346,o),
(517,332,c),
(531,361,o),
(549,381,o),
(574,398,cs),
(616,427,o),
(681,439,o),
(772,439,cs),
(878,439,l),
(878,0,l),
(1068,0,l),
(1068,205,l),
(1082,212,o),
(1097,216,o),
(1113,216,cs),
(1171,216,o),
(1201,170,o),
(1201,102,cs),
(1201,-104,o),
(1018,-186,o),
(747,-186,cs),
(705,-186,ls),
(345,-186,o),
(225,-51,o),
(225,167,cs),
(225,183,ls),
(225,277,o),
(258,388,o),
(332,498,c),
(184,582,l),
(109,470,o),
(47,328,o),
(47,163,cs),
(47,152,ls),
(47,-111,o),
(207,-321,o),
(699,-321,cs),
(768,-321,ls),
(1075,-321,o),
(1391,-219,o),
(1391,99,cs),
(1391,252,o),
(1309,346,o),
(1162,346,cs)
);
},
{
closed = 1;
nodes = (
(518,226,o),
(540,234,o),
(565,234,cs),
(602,234,o),
(627,217,o),
(627,174,cs),
(627,135,o),
(608,114,o),
(570,114,cs),
(522,114,o),
(499,152,o),
(496,211,c)
);
},
{
closed = 1;
nodes = (
(1192,725,o),
(1194,735,o),
(1197,743,c),
(1206,744,o),
(1213,744,o),
(1220,744,cs),
(1255,744,o),
(1280,733,o),
(1280,706,cs),
(1280,684,o),
(1267,669,o),
(1239,669,cs),
(1207,669,o),
(1192,684,o),
(1192,715,cs)
);
}
);
width = 1424;
}
);
note = nyaiivowelsigntamil;
},
{
glyphname = nyauvowelsigntamil;
layers = (
{
anchors = (
{
name = bottom;
pos = (733,-29);
},
{
name = top;
pos = (733,-29);
}
);
layerId = m01;
shapes = (
{
closed = 1;
nodes = (
(1398,569,l),
(1208,569,l),
(1208,-50,l),
(1077,-50,l),
(1094,-9,o),
(1104,40,o),
(1104,95,cs),
(1104,252,o),
(1022,346,o),
(875,346,cs),
(845,346,o),
(811,341,o),
(781,331,c),
(781,439,l),
(913,439,l),
(913,569,l),
(530,569,ls),
(340,569,o),
(234,550,o),
(146,482,cs),
(80,431,o),
(37,355,o),
(37,239,cs),
(37,79,o),
(127,-12,o),
(285,-12,cs),
(449,-12,o),
(521,61,o),
(521,177,cs),
(521,294,o),
(447,355,o),
(335,355,cs),
(296,355,o),
(261,346,o),
(230,332,c),
(244,361,o),
(262,381,o),
(287,398,cs),
(329,427,o),
(394,439,o),
(485,439,cs),
(591,439,l),
(591,0,l),
(781,0,l),
(781,205,l),
(795,212,o),
(810,216,o),
(826,216,cs),
(884,216,o),
(914,170,o),
(914,96,cs),
(914,38,o),
(899,-11,o),
(875,-50,c),
(181,-50,ls),
(128,-50,o),
(86,-59,o),
(59,-79,cs),
(37,-96,o),
(25,-120,o),
(25,-153,cs),
(25,-267,o),
(135,-321,o),
(363,-321,cs),
(427,-321,ls),
(660,-321,o),
(876,-293,o),
(1008,-180,c),
(1398,-180,l)
);
},
{
closed = 1;
nodes = (
(191,-164,o),
(198,-161,o),
(208,-161,cs),
(785,-161,l),
(693,-198,o),
(563,-205,o),
(420,-205,cs),
(350,-205,ls),
(235,-205,o),
(191,-192,o),
(191,-173,cs)
);
},
{
closed = 1;
nodes = (
(231,226,o),
(253,234,o),
(278,234,cs),
(315,234,o),
(340,217,o),
(340,174,cs),
(340,135,o),
(321,114,o),
(283,114,cs),
(235,114,o),
(212,152,o),
(209,211,c)
);
}
);
width = 1466;
}
);
note = nyauvowelsigntamil;
},
{
glyphname = nyauuvowelsigntamil;
layers = (
{
anchors = (
{
name = bottom;
pos = (931,-29);
},
{
name = top;
pos = (931,-29);
}
);
layerId = m01;
shapes = (
{
closed = 1;
nodes = (
(449,-12,o),
(521,61,o),
(521,177,cs),
(521,294,o),
(447,355,o),
(335,355,cs),
(296,355,o),
(261,346,o),
(230,332,c),
(244,361,o),
(262,381,o),
(287,398,cs),
(329,427,o),
(394,439,o),
(485,439,cs),
(591,439,l),
(591,0,l),
(781,0,l),
(781,205,l),
(795,212,o),
(810,216,o),
(826,216,cs),
(884,216,o),
(914,170,o),
(914,96,cs),
(914,38,o),
(899,-11,o),
(875,-50,c),
(181,-50,ls),
(128,-50,o),
(86,-59,o),
(59,-79,cs),
(37,-96,o),
(25,-120,o),
(25,-153,cs),
(25,-267,o),
(135,-321,o),
(363,-321,cs),
(427,-321,ls),
(660,-321,o),
(876,-293,o),
(1008,-180,c),
(1398,-180,l),
(1398,439,l),
(1524,439,l),
(1524,-180,l),
(1713,-180,l),
(1713,439,l),
(1846,439,l),
(1846,569,l),
(1208,569,l),
(1208,-50,l),
(1077,-50,l),
(1094,-9,o),
(1104,40,o),
(1104,95,cs),
(1104,252,o),
(1022,346,o),
(875,346,cs),
(845,346,o),
(811,341,o),
(781,331,c),
(781,439,l),
(913,439,l),
(913,569,l),
(530,569,ls),
(340,569,o),
(234,550,o),
(146,482,cs),
(80,431,o),
(37,355,o),
(37,239,cs),
(37,79,o),
(127,-12,o),
(285,-12,cs)
);
},
{
closed = 1;
nodes = (
(191,-164,o),
(198,-161,o),
(208,-161,cs),
(783,-161,l),
(691,-198,o),
(563,-205,o),
(420,-205,cs),
(350,-205,ls),
(235,-205,o),
(191,-192,o),
(191,-173,cs)
);
},
{
closed = 1;
nodes = (
(231,226,o),
(253,234,o),
(278,234,cs),
(315,234,o),
(340,217,o),
(340,174,cs),
(340,135,o),
(321,114,o),
(283,114,cs),
(235,114,o),
(212,152,o),
(209,211,c)
);
}
);
width = 1863;
}
);
note = nyauuvowelsigntamil;
},
{
glyphname = ttaivowelsigntamil;
layers = (
{
anchors = (
{
name = bottom;
pos = (450,-29);
},
{
name = top;
pos = (450,-29);
}
);
layerId = m01;
shapes = (
{
closed = 1;
nodes = (
(68,0,l),
(531,0,l),
(460,-236,l),
(637,-283,l),
(719,0,l),
(883,0,l),
(883,130,l),
(757,130,l),
(772,188,o),
(780,238,o),
(780,293,cs),
(780,379,o),
(739,488,o),
(561,488,cs),
(400,488,o),
(332,393,o),
(332,294,cs),
(332,231,o),
(351,180,o),
(383,130,c),
(258,130,l),
(258,569,l),
(68,569,l)
);
},
{
closed = 1;
nodes = (
(504,331,o),
(521,358,o),
(554,358,cs),
(587,358,o),
(597,327,o),
(597,296,cs),
(597,256,o),
(585,200,o),
(571,151,cs),
(565,131,l),
(523,188,o),
(504,234,o),
(504,288,cs)
);
}
);
width = 900;
}
);
note = ttaivowelsigntamil;
},
{
glyphname = ttaiivowelsigntamil;
layers = (
{
anchors = (
{
name = bottom;
pos = (450,-29);
},
{
name = top;
pos = (450,-29);
}
);
layerId = m01;
shapes = (
{
closed = 1;
nodes = (
(68,0,l),
(883,0,l),
(883,130,l),
(523,130,l),
(501,164,o),
(489,203,o),
(489,243,cs),
(489,268,o),
(494,293,o),
(504,313,c),
(513,241,o),
(561,188,o),
(671,188,cs),
(790,188,o),
(856,241,o),
(856,330,cs),
(856,416,o),
(797,488,o),
(630,488,cs),
(386,488,o),
(332,345,o),
(332,254,cs),
(332,206,o),
(341,165,o),
(357,130,c),
(258,130,l),
(258,569,l),
(68,569,l)
);
},
{
closed = 1;
nodes = (
(617,358,o),
(619,367,o),
(622,376,c),
(629,377,o),
(636,377,o),
(645,377,cs),
(680,377,o),
(705,366,o),
(705,339,cs),
(705,317,o),
(693,302,o),
(664,302,cs),
(631,302,o),
(617,317,o),
(617,348,cs)
);
}
);
width = 900;
}
);
note = ttaiivowelsigntamil;
},
{
glyphname = ttauvowelsigntamil;
layers = (
{
anchors = (
{
name = bottom;
pos = (592,-29);
}
);
layerId = m01;
shapes = (
{
closed = 1;
nodes = (
(742,-318,o),
(885,-191,o),
(885,51,cs),
(885,250,o),
(792,346,o),
(650,346,cs),
(624,346,o),
(591,341,o),
(562,331,c),
(562,569,l),
(372,569,l),
(372,0,l),
(562,0,l),
(562,205,l),
(576,212,o),
(591,216,o),
(607,216,cs),
(665,216,o),
(695,170,o),
(695,57,cs),
(695,-85,o),
(650,-188,o),
(496,-188,cs),
(368,-188,o),
(239,-132,o),
(239,208,cs),
(239,519,o),
(378,719,o),
(637,719,cs),
(729,719,o),
(792,692,o),
(835,649,cs),
(908,577,o),
(925,450,o),
(925,314,cs),
(925,0,l),
(1115,0,l),
(1115,341,ls),
(1115,620,o),
(1039,721,o),
(912,791,cs),
(837,832,o),
(740,851,o),
(641,851,cs),
(255,851,o),
(57,590,o),
(57,222,cs),
(57,200,ls),
(57,-75,o),
(161,-318,o),
(496,-318,cs)
);
}
);
width = 1182;
}
);
note = ttauvowelsigntamil;
},
{
glyphname = ttauuvowelsigntamil;
layers = (
{
anchors = (
{
name = bottom;
pos = (543,-29);
}
);
layerId = m01;
shapes = (
{
closed = 1;
nodes = (
(742,-318,o),
(885,-191,o),
(885,51,cs),
(885,250,o),
(792,346,o),
(650,346,cs),
(624,346,o),
(591,341,o),
(562,331,c),
(562,569,l),
(372,569,l),
(372,0,l),
(562,0,l),
(562,205,l),
(576,212,o),
(591,216,o),
(607,216,cs),
(665,216,o),
(695,170,o),
(695,57,cs),
(695,-85,o),
(650,-188,o),
(496,-188,cs),
(368,-188,o),
(239,-132,o),
(239,208,cs),
(239,519,o),
(377,720,o),
(648,720,cs),
(737,720,o),
(794,703,o),
(834,679,c),
(774,676,o),
(668,644,o),
(668,521,cs),
(668,422,o),
(746,352,o),
(871,352,cs),
(1006,352,o),
(1077,436,o),
(1077,550,cs),
(1077,741,o),
(903,851,o),
(649,851,cs),
(255,851,o),
(57,591,o),
(57,228,cs),
(57,200,ls),
(57,-75,o),
(161,-318,o),
(496,-318,cs)
);
},
{
closed = 1;
nodes = (
(820,549,o),
(834,576,o),
(874,576,cs),
(895,576,o),
(911,572,o),
(926,565,c),
(927,561,o),
(928,555,o),
(928,551,cs),
(928,509,o),
(915,472,o),
(870,472,cs),
(838,472,o),
(820,493,o),
(820,525,cs)
);
}
);
width = 1084;
}
);
note = ttauuvowelsigntamil;
},
{
glyphname = nnaiivowelsigntamil;
layers = (
{
anchors = (
{
name = bottom;
pos = (955,-29);
},
{
name = top;
pos = (955,-29);
}
);
layerId = m01;
shapes = (
{
closed = 1;
nodes = (
(449,-12,o),
(521,61,o),
(521,177,cs),
(521,294,o),
(447,355,o),
(335,355,cs),
(299,355,o),
(267,348,o),
(236,335,c),
(278,404,o),
(364,451,o),
(489,451,cs),
(555,451,o),
(605,443,o),
(650,424,c),
(595,366,o),
(559,293,o),
(559,202,cs),
(559,66,o),
(637,-12,o),
(786,-12,cs),
(926,-12,o),
(1003,52,o),
(1003,196,cs),
(1003,290,o),
(962,362,o),
(893,426,c),
(929,442,o),
(971,451,o),
(1024,451,cs),
(1075,451,o),
(1116,442,o),
(1153,426,c),
(1093,369,o),
(1048,287,o),
(1048,202,cs),
(1048,66,o),
(1126,-12,o),
(1275,-12,cs),
(1415,-12,o),
(1492,52,o),
(1492,196,cs),
(1492,281,o),
(1458,358,o),
(1397,421,c),
(1432,432,o),
(1477,439,o),
(1543,439,cs),
(1572,439,l),
(1572,0,l),
(1762,0,l),
(1762,439,l),
(1894,439,l),
(1894,569,l),
(1597,569,l),
(1593,584,o),
(1591,599,o),
(1591,616,cs),
(1591,652,o),
(1604,677,o),
(1624,697,c),
(1628,623,o),
(1674,576,o),
(1790,576,cs),
(1908,576,o),
(1969,626,o),
(1969,707,cs),
(1969,792,o),
(1899,851,o),
(1748,851,cs),
(1520,851,o),
(1440,729,o),
(1440,632,cs),
(1440,606,o),
(1442,585,o),
(1447,563,c),
(1377,556,o),
(1325,541,o),
(1279,518,c),
(1203,562,o),
(1132,581,o),
(1024,581,cs),
(927,581,o),
(840,563,o),
(764,520,c),
(684,562,o),
(597,581,o),
(484,581,cs),
(212,581,o),
(37,451,o),
(37,244,cs),
(37,79,o),
(127,-12,o),
(285,-12,cs)
);
},
{
closed = 1;
nodes = (
(231,226,o),
(253,234,o),
(278,234,cs),
(315,234,o),
(340,217,o),
(340,174,cs),
(340,133,o),
(320,113,o),
(287,113,cs),
(227,113,o),
(212,170,o),
(210,212,c)
);
},
{
closed = 1;
nodes = (
(730,251,o),
(747,298,o),
(776,336,c),
(814,294,o),
(832,247,o),
(832,196,cs),
(832,148,o),
(820,114,o),
(781,114,cs),
(750,114,o),
(730,138,o),
(730,200,cs)
);
},
{
closed = 1;
nodes = (
(1219,250,o),
(1236,299,o),
(1270,339,c),
(1302,299,o),
(1321,249,o),
(1321,196,cs),
(1321,148,o),
(1309,114,o),
(1270,114,cs),
(1239,114,o),
(1219,138,o),
(1219,197,cs)
);
},
{
closed = 1;
nodes = (
(1739,725,o),
(1741,735,o),
(1744,743,c),
(1753,744,o),
(1760,744,o),
(1767,744,cs),
(1802,744,o),
(1827,733,o),
(1827,706,cs),
(1827,684,o),
(1814,669,o),
(1786,669,cs),
(1754,669,o),
(1739,684,o),
(1739,715,cs)
);
}
);
width = 1961;
}
);
note = nnaiivowelsigntamil;
},
{
glyphname = nnauvowelsigntamil;
layers = (
{
anchors = (
{
name = bottom;
pos = (1083,-29);
},
{
name = top;
pos = (1083,-29);
}
);
layerId = m01;
shapes = (
{
closed = 1;
nodes = (
(449,-12,o),
(521,61,o),
(521,177,cs),
(521,294,o),
(447,355,o),
(335,355,cs),
(299,355,o),
(267,348,o),
(236,335,c),
(278,404,o),
(364,451,o),
(489,451,cs),
(555,451,o),
(605,443,o),
(650,424,c),
(595,366,o),
(559,293,o),
(559,202,cs),
(559,66,o),
(637,-12,o),
(786,-12,cs),
(926,-12,o),
(1003,52,o),
(1003,196,cs),
(1003,290,o),
(962,362,o),
(893,426,c),
(929,442,o),
(971,451,o),
(1024,451,cs),
(1067,451,o),
(1103,445,o),
(1136,433,c),
(1083,371,o),
(1048,295,o),
(1048,202,cs),
(1048,66,o),
(1126,-12,o),
(1275,-12,cs),
(1415,-12,o),
(1492,52,o),
(1492,196,cs),
(1492,289,o),
(1451,373,o),
(1379,438,c),
(1400,446,o),
(1425,451,o),
(1455,451,cs),
(1575,451,o),
(1615,348,o),
(1615,240,cs),
(1615,124,o),
(1564,19,o),
(1503,-50,c),
(181,-50,ls),
(128,-50,o),
(86,-59,o),
(59,-79,cs),
(37,-96,o),
(25,-120,o),
(25,-153,cs),
(25,-282,o),
(164,-321,o),
(425,-321,cs),
(768,-321,ls),
(1113,-321,o),
(1385,-302,o),
(1609,-180,c),
(2099,-180,l),
(2099,569,l),
(1909,569,l),
(1909,-50,l),
(1718,-50,l),
(1772,24,o),
(1805,118,o),
(1805,243,cs),
(1805,432,o),
(1700,581,o),
(1456,581,cs),
(1372,581,o),
(1311,565,o),
(1253,533,c),
(1186,567,o),
(1119,581,o),
(1024,581,cs),
(927,581,o),
(840,563,o),
(764,520,c),
(684,562,o),
(597,581,o),
(484,581,cs),
(212,581,o),
(37,451,o),
(37,244,cs),
(37,79,o),
(127,-12,o),
(285,-12,cs)
);
},
{
closed = 1;
nodes = (
(191,-164,o),
(198,-161,o),
(223,-161,cs),
(1332,-161,l),
(1183,-195,o),
(976,-204,o),
(715,-204,cs),
(480,-204,ls),
(288,-204,o),
(191,-197,o),
(191,-173,cs)
);
},
{
closed = 1;
nodes = (
(231,226,o),
(253,234,o),
(278,234,cs),
(315,234,o),
(340,217,o),
(340,174,cs),
(340,133,o),
(320,113,o),
(287,113,cs),
(227,113,o),
(212,170,o),
(210,212,c)
);
},
{
closed = 1;
nodes = (
(730,251,o),
(747,298,o),
(776,336,c),
(814,294,o),
(832,247,o),
(832,196,cs),
(832,148,o),
(820,114,o),
(781,114,cs),
(750,114,o),
(730,138,o),
(730,200,cs)
);
},
{
closed = 1;
nodes = (
(1219,251,o),
(1237,303,o),
(1265,344,c),
(1299,304,o),
(1321,252,o),
(1321,196,cs),
(1321,148,o),
(1309,114,o),
(1270,114,cs),
(1239,114,o),
(1219,138,o),
(1219,197,cs)
);
}
);
width = 2167;
}
);
note = nnauvowelsigntamil;
},
{
glyphname = nnauuvowelsigntamil;
layers = (
{
anchors = (
{
name = bottom;
pos = (1281,-29);
},
{
name = top;
pos = (1281,-29);
}
);
layerId = m01;
shapes = (
{
closed = 1;
nodes = (
(449,-12,o),
(521,61,o),
(521,177,cs),
(521,294,o),
(447,355,o),
(335,355,cs),
(299,355,o),
(267,348,o),
(236,335,c),
(278,404,o),
(364,451,o),
(489,451,cs),
(555,451,o),
(605,443,o),
(650,424,c),
(595,366,o),
(559,293,o),
(559,202,cs),
(559,66,o),
(637,-12,o),
(786,-12,cs),
(926,-12,o),
(1003,52,o),
(1003,196,cs),
(1003,290,o),
(962,362,o),
(893,426,c),
(929,442,o),
(971,451,o),
(1024,451,cs),
(1067,451,o),
(1103,445,o),
(1136,433,c),
(1083,371,o),
(1048,295,o),
(1048,202,cs),
(1048,66,o),
(1126,-12,o),
(1275,-12,cs),
(1415,-12,o),
(1492,52,o),
(1492,196,cs),
(1492,289,o),
(1451,373,o),
(1379,438,c),
(1400,446,o),
(1425,451,o),
(1455,451,cs),
(1575,451,o),
(1615,348,o),
(1615,240,cs),
(1615,124,o),
(1564,19,o),
(1503,-50,c),
(181,-50,ls),
(128,-50,o),
(86,-59,o),
(59,-79,cs),
(37,-96,o),
(25,-120,o),
(25,-153,cs),
(25,-282,o),
(164,-321,o),
(425,-321,cs),
(768,-321,ls),
(1113,-321,o),
(1385,-302,o),
(1609,-180,c),
(2099,-180,l),
(2099,439,l),
(2225,439,l),
(2225,-180,l),
(2415,-180,l),
(2415,439,l),
(2547,439,l),
(2547,569,l),
(1909,569,l),
(1909,-50,l),
(1718,-50,l),
(1772,24,o),
(1805,116,o),
(1805,234,cs),
(1805,432,o),
(1700,581,o),
(1456,581,cs),
(1372,581,o),
(1311,565,o),
(1253,533,c),
(1186,567,o),
(1119,581,o),
(1024,581,cs),
(927,581,o),
(840,563,o),
(764,520,c),
(684,562,o),
(597,581,o),
(484,581,cs),
(212,581,o),
(37,451,o),
(37,244,cs),
(37,79,o),
(127,-12,o),
(285,-12,cs)
);
},
{
closed = 1;
nodes = (
(191,-164,o),
(198,-161,o),
(223,-161,cs),
(1332,-161,l),
(1183,-195,o),
(976,-204,o),
(715,-204,cs),
(480,-204,ls),
(288,-204,o),
(191,-197,o),
(191,-173,cs)
);
},
{
closed = 1;
nodes = (
(231,226,o),
(253,234,o),
(278,234,cs),
(315,234,o),
(340,217,o),
(340,174,cs),
(340,133,o),
(320,113,o),
(287,113,cs),
(227,113,o),
(212,170,o),
(210,212,c)
);
},
{
closed = 1;
nodes = (
(730,251,o),
(747,298,o),
(776,336,c),
(814,294,o),
(832,247,o),
(832,196,cs),
(832,148,o),
(820,114,o),
(781,114,cs),
(750,114,o),
(730,138,o),
(730,200,cs)
);
},
{
closed = 1;
nodes = (
(1219,251,o),
(1237,303,o),
(1265,344,c),
(1299,304,o),
(1321,252,o),
(1321,196,cs),
(1321,148,o),
(1309,114,o),
(1270,114,cs),
(1239,114,o),
(1219,138,o),
(1219,197,cs)
);
}
);
width = 2564;
}
);
note = nnauuvowelsigntamil;
},
{
glyphname = taiivowelsigntamil;
layers = (
{
anchors = (
{
name = bottom;
pos = (485,-29);
},
{
name = top;
pos = (485,-29);
}
);
layerId = m01;
shapes = (
{
closed = 1;
nodes = (
(631,220,o),
(638,54,o),
(625,0,cs),
(596,-125,o),
(508,-170,o),
(333,-146,cs),
(248,-134,o),
(190,-84,o),
(103,-88,c),
(88,-93,o),
(9,-153,o),
(21,-226,cs),
(23,-236,o),
(31,-242,o),
(38,-235,cs),
(61,-212,o),
(112,-203,o),
(154,-203,cs),
(221,-204,o),
(266,-230,o),
(333,-235,cs),
(548,-250,o),
(673,-176,o),
(702,0,cs),
(717,93,o),
(670,282,o),
(407,338,c),
(419,372,o),
(440,383,o),
(456,392,c),
(554,352,o),
(591,383,o),
(605,400,cs),
(644,445,o),
(651,515,o),
(629,526,c),
(581,497,o),
(534,488,o),
(486,492,cs),
(419,500,o),
(388,527,o),
(314,527,cs),
(237,527,o),
(190,504,o),
(155,459,c),
(175,417,o),
(175,360,o),
(139,274,c),
(95,244,o),
(64,192,o),
(64,151,cs),
(64,47,o),
(150,-6,o),
(216,-10,cs),
(304,-15,o),
(361,64,o),
(369,86,c),
(390,124,o),
(376,204,o),
(390,268,c)
);
},
{
closed = 1;
nodes = (
(237,350,o),
(242,392,o),
(232,430,c),
(252,432,o),
(270,438,o),
(293,438,cs),
(318,438,o),
(345,433,o),
(368,424,c),
(352,404,o),
(333,375,o),
(330,345,c),
(298,341,o),
(261,338,o),
(227,322,c)
);
},
{
closed = 1;
nodes = (
(311,213,o),
(326,141,o),
(304,109,c),
(298,98,o),
(273,47,o),
(186,75,c),
(169,84,o),
(115,103,o),
(136,169,cs),
(158,236,o),
(263,265,o),
(320,270,c)
);
},
{
closed = 1;
nodes = (
(520,851,o),
(440,729,o),
(440,632,cs),
(440,583,o),
(448,547,o),
(466,510,c),
(610,536,l),
(598,562,o),
(591,586,o),
(591,616,cs),
(591,652,o),
(604,677,o),
(624,697,c),
(628,623,o),
(674,576,o),
(790,576,cs),
(908,576,o),
(969,626,o),
(969,707,cs),
(969,792,o),
(899,851,o),
(748,851,cs)
);
},
{
closed = 1;
nodes = (
(739,725,o),
(741,735,o),
(744,743,c),
(753,744,o),
(760,744,o),
(767,744,cs),
(802,744,o),
(827,733,o),
(827,706,cs),
(827,684,o),
(814,669,o),
(786,669,cs),
(754,669,o),
(739,684,o),
(739,715,cs)
);
}
);
width = 971;
}
);
note = taiivowelsigntamil;
},
{
glyphname = tauvowelsigntamil;
layers = (
{
anchors = (
{
name = bottom;
pos = (645,-29);
},
{
name = top;
pos = (645,-29);
}
);
layerId = m01;
shapes = (
{
closed = 1;
nodes = (
(501,237,o),
(577,113,o),
(580,3,c),
(429,13,o),
(252,-7,o),
(127,-81,c),
(102,-98,o),
(40,-135,o),
(27,-192,cs),
(25,-199,o),
(31,-206,o),
(39,-200,c),
(65,-190,o),
(110,-193,o),
(147,-199,c),
(205,-215,o),
(243,-247,o),
(300,-266,cs),
(491,-328,o),
(611,-221,o),
(641,-80,c),
(712,-92,o),
(773,-112,o),
(806,-135,c),
(874,-50,l),
(846,21,o),
(829,70,o),
(823,174,cs),
(818,267,o),
(818,358,o),
(882,450,c),
(793,450,l),
(768,388,o),
(752,342,o),
(746,249,cs),
(741,180,o),
(749,49,o),
(777,-30,c),
(742,-19,o),
(696,-9,o),
(648,-3,c),
(647,141,o),
(558,296,o),
(363,338,c),
(375,372,o),
(396,383,o),
(412,392,c),
(510,352,o),
(547,383,o),
(561,400,cs),
(600,445,o),
(607,515,o),
(585,526,c),
(537,497,o),
(490,488,o),
(442,492,cs),
(375,500,o),
(344,527,o),
(270,527,cs),
(193,527,o),
(146,504,o),
(111,459,c),
(131,417,o),
(131,360,o),
(95,274,c),
(51,244,o),
(20,192,o),
(20,151,cs),
(20,47,o),
(106,-6,o),
(172,-10,cs),
(260,-15,o),
(317,64,o),
(325,86,c),
(346,124,o),
(332,204,o),
(346,268,c)
);
},
{
closed = 1;
nodes = (
(193,350,o),
(198,392,o),
(188,430,c),
(208,432,o),
(226,438,o),
(249,438,cs),
(274,438,o),
(301,433,o),
(324,424,c),
(308,404,o),
(289,375,o),
(286,345,c),
(254,341,o),
(217,338,o),
(183,322,c)
);
},
{
closed = 1;
nodes = (
(267,213,o),
(282,141,o),
(260,109,c),
(254,98,o),
(229,47,o),
(142,75,c),
(125,84,o),
(71,103,o),
(92,169,cs),
(114,236,o),
(219,265,o),
(276,270,c)
);
},
{
closed = 1;
nodes = (
(285,-73,o),
(439,-59,o),
(571,-71,c),
(544,-160,o),
(462,-219,o),
(327,-176,cs),
(279,-161,o),
(235,-144,o),
(186,-135,c)
);
}
);
width = 992;
}
);
note = tauvowelsigntamil;
},
{
glyphname = tauuvowelsigntamil;
layers = (
{
anchors = (
{
name = bottom;
pos = (843,-29);
},
{
name = top;
pos = (843,-29);
}
);
layerId = m01;
shapes = (
{
closed = 1;
nodes = (
(424,-12,o),
(498,8,o),
(549,55,cs),
(591,94,o),
(614,151,o),
(618,227,c),
(698,211,o),
(754,164,o),
(754,65,cs),
(754,12,o),
(747,-22,o),
(733,-50,c),
(181,-50,ls),
(128,-50,o),
(86,-59,o),
(59,-79,cs),
(37,-96,o),
(25,-120,o),
(25,-153,cs),
(25,-267,o),
(144,-321,o),
(354,-321,cs),
(379,-321,ls),
(591,-321,o),
(757,-275,o),
(852,-180,c),
(1222,-180,l),
(1222,439,l),
(1348,439,l),
(1348,-180,l),
(1538,-180,l),
(1538,439,l),
(1670,439,l),
(1670,569,l),
(1032,569,l),
(1032,-50,l),
(918,-50,l),
(931,-17,o),
(940,20,o),
(940,64,cs),
(940,273,o),
(776,344,o),
(619,354,c),
(619,439,l),
(809,439,l),
(809,569,l),
(129,569,l),
(129,313,l),
(61,280,o),
(33,230,o),
(33,168,cs),
(33,50,o),
(132,-12,o),
(313,-12,cs)
);
},
{
closed = 1;
nodes = (
(191,-164,o),
(198,-161,o),
(208,-161,cs),
(646,-161,l),
(584,-192,o),
(495,-205,o),
(390,-205,cs),
(343,-205,ls),
(235,-205,o),
(191,-192,o),
(191,-173,cs)
);
},
{
closed = 1;
nodes = (
(217,196,o),
(227,211,o),
(247,221,cs),
(269,231,o),
(296,234,o),
(353,234,cs),
(434,234,l),
(432,142,o),
(387,118,o),
(315,118,cs),
(253,118,o),
(217,133,o),
(217,176,cs)
);
},
{
closed = 1;
nodes = (
(300,439,l),
(434,439,l),
(434,355,l),
(379,355,ls),
(351,355,o),
(325,354,o),
(300,352,c)
);
}
);
width = 1687;
}
);
note = tauuvowelsigntamil;
},
{
glyphname = naiivowelsigntamil;
layers = (
{
anchors = (
{
name = bottom;
pos = (468,-29);
},
{
name = top;
pos = (468,-29);
}
);
layerId = m01;
shapes = (
{
closed = 1;
nodes = (
(639,370,o),
(604,363,o),
(572,351,c),
(572,439,l),
(704,439,l),
(704,569,l),
(563,569,l),
(559,584,o),
(557,599,o),
(557,616,cs),
(557,652,o),
(570,677,o),
(590,697,c),
(594,623,o),
(640,576,o),
(756,576,cs),
(874,576,o),
(935,626,o),
(935,707,cs),
(935,792,o),
(865,851,o),
(714,851,cs),
(486,851,o),
(406,729,o),
(406,632,cs),
(406,609,o),
(408,589,o),
(412,569,c),
(68,569,l),
(68,0,l),
(258,0,l),
(258,439,l),
(382,439,l),
(382,0,l),
(572,0,l),
(572,225,l),
(590,234,o),
(610,240,o),
(630,240,cs),
(686,240,o),
(716,200,o),
(716,123,cs),
(716,64,o),
(702,26,o),
(677,1,cs),
(640,-36,o),
(585,-50,o),
(463,-50,cs),
(300,-50,ls),
(192,-50,o),
(146,-62,o),
(102,-91,cs),
(58,-120,o),
(30,-169,o),
(30,-231,cs),
(30,-262,o),
(32,-291,o),
(36,-322,c),
(223,-312,l),
(221,-299,o),
(220,-286,o),
(220,-269,cs),
(220,-235,o),
(231,-214,o),
(250,-200,cs),
(273,-184,o),
(300,-180,o),
(361,-180,cs),
(494,-180,ls),
(625,-180,o),
(714,-164,o),
(787,-115,cs),
(857,-68,o),
(902,8,o),
(902,130,cs),
(902,269,o),
(832,370,o),
(684,370,cs)
);
},
{
closed = 1;
nodes = (
(705,725,o),
(707,735,o),
(710,743,c),
(719,744,o),
(726,744,o),
(733,744,cs),
(768,744,o),
(793,733,o),
(793,706,cs),
(793,684,o),
(780,669,o),
(752,669,cs),
(720,669,o),
(705,684,o),
(705,715,cs)
);
}
);
width = 937;
}
);
note = naiivowelsigntamil;
},
{
glyphname = nauvowelsigntamil;
layers = (
{
anchors = (
{
name = bottom;
pos = (632,-29);
},
{
name = top;
pos = (632,-29);
}
);
layerId = m01;
shapes = (
{
closed = 1;
nodes = (
(639,370,o),
(604,363,o),
(572,351,c),
(572,439,l),
(704,439,l),
(704,569,l),
(68,569,l),
(68,0,l),
(258,0,l),
(258,439,l),
(382,439,l),
(382,0,l),
(572,0,l),
(572,225,l),
(590,234,o),
(610,240,o),
(630,240,cs),
(687,240,o),
(716,201,o),
(716,115,cs),
(716,52,o),
(709,-6,o),
(688,-50,c),
(181,-50,ls),
(128,-50,o),
(86,-58,o),
(59,-79,cs),
(37,-96,o),
(25,-120,o),
(25,-153,cs),
(25,-267,o),
(135,-321,o),
(350,-321,cs),
(368,-321,ls),
(583,-321,o),
(730,-275,o),
(814,-180,c),
(1196,-180,l),
(1196,569,l),
(1006,569,l),
(1006,-50,l),
(874,-50,l),
(892,-2,o),
(902,53,o),
(902,116,cs),
(902,269,o),
(832,370,o),
(684,370,cs)
);
},
{
closed = 1;
nodes = (
(191,-164,o),
(198,-161,o),
(208,-161,cs),
(612,-161,l),
(556,-192,o),
(474,-205,o),
(363,-205,cs),
(343,-205,ls),
(235,-205,o),
(191,-192,o),
(191,-173,cs)
);
}
);
width = 1264;
}
);
note = nauvowelsigntamil;
},
{
glyphname = nauuvowelsigntamil;
layers = (
{
anchors = (
{
name = bottom;
pos = (830,-29);
},
{
name = top;
pos = (830,-29);
}
);
layerId = m01;
shapes = (
{
closed = 1;
nodes = (
(639,370,o),
(604,363,o),
(572,351,c),
(572,439,l),
(704,439,l),
(704,569,l),
(68,569,l),
(68,0,l),
(258,0,l),
(258,439,l),
(382,439,l),
(382,0,l),
(572,0,l),
(572,225,l),
(590,234,o),
(610,240,o),
(630,240,cs),
(687,240,o),
(716,201,o),
(716,115,cs),
(716,52,o),
(709,-6,o),
(688,-50,c),
(181,-50,ls),
(128,-50,o),
(86,-58,o),
(59,-79,cs),
(37,-96,o),
(25,-120,o),
(25,-153,cs),
(25,-267,o),
(135,-321,o),
(350,-321,cs),
(368,-321,ls),
(583,-321,o),
(730,-275,o),
(814,-180,c),
(1196,-180,l),
(1196,439,l),
(1322,439,l),
(1322,-180,l),
(1512,-180,l),
(1512,439,l),
(1644,439,l),
(1644,569,l),
(1006,569,l),
(1006,-50,l),
(874,-50,l),
(892,-2,o),
(902,53,o),
(902,116,cs),
(902,269,o),
(832,370,o),
(684,370,cs)
);
},
{
closed = 1;
nodes = (
(191,-164,o),
(198,-161,o),
(208,-161,cs),
(612,-161,l),
(556,-192,o),
(474,-205,o),
(363,-205,cs),
(343,-205,ls),
(235,-205,o),
(191,-192,o),
(191,-173,cs)
);
}
);
width = 1661;
}
);
note = nauuvowelsigntamil;
},
{
glyphname = nnnaiivowelsigntamil;
layers = (
{
anchors = (
{
name = bottom;
pos = (711,-29);
},
{
name = top;
pos = (711,-29);
}
);
layerId = m01;
shapes = (
{
closed = 1;
nodes = (
(449,-12,o),
(521,61,o),
(521,177,cs),
(521,294,o),
(447,355,o),
(335,355,cs),
(299,355,o),
(267,348,o),
(236,335,c),
(278,404,o),
(364,451,o),
(489,451,cs),
(560,451,o),
(613,441,o),
(658,420,c),
(600,363,o),
(559,285,o),
(559,202,cs),
(559,66,o),
(637,-12,o),
(786,-12,cs),
(926,-12,o),
(1003,52,o),
(1003,196,cs),
(1003,287,o),
(964,358,o),
(901,419,c),
(936,431,o),
(984,439,o),
(1054,439,cs),
(1083,439,l),
(1083,0,l),
(1273,0,l),
(1273,439,l),
(1405,439,l),
(1405,569,l),
(1108,569,l),
(1104,584,o),
(1102,599,o),
(1102,616,cs),
(1102,652,o),
(1115,677,o),
(1135,697,c),
(1139,623,o),
(1185,576,o),
(1301,576,cs),
(1419,576,o),
(1480,626,o),
(1480,707,cs),
(1480,792,o),
(1410,851,o),
(1259,851,cs),
(1031,851,o),
(951,729,o),
(951,632,cs),
(951,606,o),
(953,585,o),
(958,563,c),
(881,555,o),
(826,538,o),
(778,512,c),
(693,560,o),
(604,581,o),
(484,581,cs),
(212,581,o),
(37,451,o),
(37,244,cs),
(37,79,o),
(127,-12,o),
(285,-12,cs)
);
},
{
closed = 1;
nodes = (
(231,226,o),
(253,234,o),
(278,234,cs),
(315,234,o),
(340,217,o),
(340,174,cs),
(340,135,o),
(321,114,o),
(283,114,cs),
(236,114,o),
(213,151,o),
(210,212,c)
);
},
{
closed = 1;
nodes = (
(730,248,o),
(745,296,o),
(777,335,c),
(814,294,o),
(832,246,o),
(832,196,cs),
(832,148,o),
(820,114,o),
(781,114,cs),
(750,114,o),
(730,138,o),
(730,197,cs)
);
},
{
closed = 1;
nodes = (
(1250,725,o),
(1252,735,o),
(1255,743,c),
(1264,744,o),
(1271,744,o),
(1278,744,cs),
(1313,744,o),
(1338,733,o),
(1338,706,cs),
(1338,684,o),
(1325,669,o),
(1297,669,cs),
(1265,669,o),
(1250,684,o),
(1250,715,cs)
);
}
);
width = 1472;
}
);
note = nnnaiivowelsigntamil;
},
{
glyphname = nnnauvowelsigntamil;
layers = (
{
anchors = (
{
name = bottom;
pos = (839,-29);
},
{
name = top;
pos = (839,-29);
}
);
layerId = m01;
shapes = (
{
closed = 1;
nodes = (
(449,-12,o),
(521,61,o),
(521,177,cs),
(521,294,o),
(447,355,o),
(335,355,cs),
(299,355,o),
(267,348,o),
(236,335,c),
(278,404,o),
(364,451,o),
(489,451,cs),
(551,451,o),
(601,443,o),
(642,427,c),
(592,366,o),
(559,292,o),
(559,202,cs),
(559,66,o),
(637,-12,o),
(786,-12,cs),
(926,-12,o),
(1003,52,o),
(1003,196,cs),
(1003,295,o),
(957,370,o),
(882,436,c),
(907,446,o),
(933,451,o),
(966,451,cs),
(1086,451,o),
(1126,348,o),
(1126,228,cs),
(1126,117,o),
(1092,21,o),
(1037,-50,c),
(181,-50,ls),
(128,-50,o),
(86,-58,o),
(59,-79,cs),
(37,-96,o),
(25,-120,o),
(25,-153,cs),
(25,-279,o),
(161,-321,o),
(392,-321,cs),
(537,-321,ls),
(780,-321,o),
(999,-290,o),
(1152,-180,c),
(1610,-180,l),
(1610,569,l),
(1420,569,l),
(1420,-50,l),
(1245,-50,l),
(1289,24,o),
(1316,119,o),
(1316,241,cs),
(1316,432,o),
(1211,581,o),
(967,581,cs),
(878,581,o),
(812,562,o),
(752,526,c),
(675,564,o),
(591,581,o),
(484,581,cs),
(212,581,o),
(37,451,o),
(37,244,cs),
(37,79,o),
(127,-12,o),
(285,-12,cs)
);
},
{
closed = 1;
nodes = (
(191,-164,o),
(198,-161,o),
(208,-161,cs),
(906,-161,l),
(802,-197,o),
(657,-205,o),
(502,-205,cs),
(393,-205,ls),
(235,-205,o),
(191,-192,o),
(191,-173,cs)
);
},
{
closed = 1;
nodes = (
(231,226,o),
(253,234,o),
(278,234,cs),
(315,234,o),
(340,217,o),
(340,174,cs),
(340,135,o),
(321,114,o),
(283,114,cs),
(236,114,o),
(213,151,o),
(210,212,c)
);
},
{
closed = 1;
nodes = (
(730,249,o),
(747,299,o),
(773,339,c),
(812,298,o),
(832,248,o),
(832,196,cs),
(832,148,o),
(820,114,o),
(781,114,cs),
(750,114,o),
(730,138,o),
(730,197,cs)
);
}
);
width = 1678;
}
);
note = nnnauvowelsigntamil;
},
{
glyphname = nnnauuvowelsigntamil;
layers = (
{
anchors = (
{
name = bottom;
pos = (1037,-29);
},
{
name = top;
pos = (1037,-29);
}
);
layerId = m01;
shapes = (
{
closed = 1;
nodes = (
(449,-12,o),
(521,61,o),
(521,177,cs),
(521,294,o),
(447,355,o),
(335,355,cs),
(299,355,o),
(267,348,o),
(236,335,c),
(278,404,o),
(364,451,o),
(489,451,cs),
(551,451,o),
(601,443,o),
(642,427,c),
(592,366,o),
(559,292,o),
(559,202,cs),
(559,66,o),
(637,-12,o),
(786,-12,cs),
(926,-12,o),
(1003,52,o),
(1003,196,cs),
(1003,295,o),
(957,370,o),
(882,436,c),
(907,446,o),
(933,451,o),
(966,451,cs),
(1086,451,o),
(1126,348,o),
(1126,228,cs),
(1126,117,o),
(1092,21,o),
(1037,-50,c),
(181,-50,ls),
(128,-50,o),
(86,-58,o),
(59,-79,cs),
(37,-96,o),
(25,-120,o),
(25,-153,cs),
(25,-279,o),
(161,-321,o),
(392,-321,cs),
(537,-321,ls),
(780,-321,o),
(999,-290,o),
(1152,-180,c),
(1610,-180,l),
(1610,439,l),
(1736,439,l),
(1736,-180,l),
(1926,-180,l),
(1926,439,l),
(2058,439,l),
(2058,569,l),
(1420,569,l),
(1420,-50,l),
(1245,-50,l),
(1289,24,o),
(1316,119,o),
(1316,241,cs),
(1316,432,o),
(1211,581,o),
(967,581,cs),
(878,581,o),
(812,562,o),
(752,526,c),
(675,564,o),
(591,581,o),
(484,581,cs),
(212,581,o),
(37,451,o),
(37,244,cs),
(37,79,o),
(127,-12,o),
(285,-12,cs)
);
},
{
closed = 1;
nodes = (
(191,-164,o),
(198,-161,o),
(208,-161,cs),
(906,-161,l),
(802,-197,o),
(657,-205,o),
(502,-205,cs),
(393,-205,ls),
(235,-205,o),
(191,-192,o),
(191,-173,cs)
);
},
{
closed = 1;
nodes = (
(231,226,o),
(253,234,o),
(278,234,cs),
(315,234,o),
(340,217,o),
(340,174,cs),
(340,135,o),
(321,114,o),
(283,114,cs),
(236,114,o),
(213,151,o),
(210,212,c)
);
},
{
closed = 1;
nodes = (
(730,249,o),
(747,299,o),
(773,339,c),
(812,298,o),
(832,248,o),
(832,196,cs),
(832,148,o),
(820,114,o),
(781,114,cs),
(750,114,o),
(730,138,o),
(730,197,cs)
);
}
);
width = 2075;
}
);
note = nnnauuvowelsigntamil;
},
{
glyphname = paiivowelsigntamil;
layers = (
{
anchors = (
{
name = bottom;
pos = (427,-29);
}
);
layerId = m01;
shapes = (
{
closed = 1;
nodes = (
(68,0,l),
(787,0,l),
(787,569,l),
(597,569,l),
(597,497,l),
(527,517,o),
(491,551,o),
(491,612,cs),
(491,651,o),
(505,677,o),
(524,696,c),
(528,623,o),
(574,576,o),
(690,576,cs),
(808,576,o),
(869,626,o),
(869,707,cs),
(869,791,o),
(799,851,o),
(648,851,cs),
(420,851,o),
(340,730,o),
(340,613,cs),
(340,483,o),
(438,392,o),
(597,359,c),
(597,130,l),
(258,130,l),
(258,569,l),
(68,569,l)
);
},
{
closed = 1;
nodes = (
(639,725,o),
(641,735,o),
(644,743,c),
(652,744,o),
(659,744,o),
(667,744,cs),
(702,744,o),
(727,733,o),
(727,706,cs),
(727,684,o),
(714,669,o),
(686,669,cs),
(654,669,o),
(639,684,o),
(639,715,cs)
);
}
);
width = 855;
}
);
note = paiivowelsigntamil;
},
{
glyphname = pauvowelsigntamil;
layers = (
{
anchors = (
{
name = bottom;
pos = (427,-29);
},
{
name = top;
pos = (427,-29);
}
);
layerId = m01;
shapes = (
{
closed = 1;
nodes = (
(597,-283,l),
(787,-283,l),
(787,569,l),
(597,569,l),
(597,130,l),
(258,130,l),
(258,569,l),
(68,569,l),
(68,0,l),
(597,0,l)
);
}
);
width = 855;
}
);
note = pauvowelsigntamil;
},
{
glyphname = pauuvowelsigntamil;
layers = (
{
anchors = (
{
name = bottom;
pos = (550,-29);
},
{
name = top;
pos = (550,-29);
}
);
layerId = m01;
shapes = (
{
closed = 1;
nodes = (
(120,-47,l),
(-156,-291,o),
(735,-484,o),
(756,-174,cs),
(768,-5,o),
(526,47,o),
(432,19,c),
(406,83,o),
(390,149,o),
(390,224,cs),
(390,332,o),
(410,416,o),
(449,500,c),
(360,500,l),
(297,344,o),
(303,196,o),
(322,101,c),
(283,104,o),
(227,96,o),
(189,90,cs),
(157,86,o),
(131,83,o),
(102,86,c),
(100,101,o),
(99,116,o),
(99,132,cs),
(99,187,o),
(111,245,o),
(125,284,cs),
(135,314,o),
(155,364,o),
(155,410,cs),
(155,437,o),
(155,473,o),
(141,500,c),
(65,500,l),
(77,478,o),
(82,456,o),
(82,432,cs),
(82,346,o),
(20,247,o),
(20,139,cs),
(20,87,o),
(30,36,o),
(58,0,c),
(99,-10,o),
(142,-9,o),
(189,-3,cs),
(237,4,o),
(312,18,o),
(347,4,c),
(385,-82,o),
(416,-134,o),
(450,-174,c),
(534,-174,l),
(508,-131,o),
(482,-87,o),
(460,-43,c),
(559,-28,o),
(696,-83,o),
(676,-174,cs),
(639,-346,o),
(-3,-260,o),
(203,-47,c)
);
}
);
width = 776;
}
);
note = pauuvowelsigntamil;
},
{
glyphname = maiivowelsigntamil;
layers = (
{
anchors = (
{
name = bottom;
pos = (484,-29);
},
{
name = top;
pos = (484,-29);
}
);
layerId = m01;
shapes = (
{
closed = 1;
nodes = (
(527,851,o),
(447,729,o),
(447,632,cs),
(447,583,o),
(455,547,o),
(473,510,c),
(617,536,l),
(605,562,o),
(598,586,o),
(598,616,cs),
(598,652,o),
(611,677,o),
(631,697,c),
(635,623,o),
(681,576,o),
(797,576,cs),
(915,576,o),
(976,626,o),
(976,707,cs),
(976,792,o),
(906,851,o),
(755,851,cs)
);
},
{
closed = 1;
nodes = (
(-69,83,o),
(-59,35,o),
(-32,0,c),
(9,-10,o),
(51,-1,o),
(92,-1,cs),
(192,3,o),
(322,-40,o),
(388,-91,c),
(417,-15,l),
(464,90,o),
(514,154,o),
(522,260,cs),
(527,375,o),
(486,496,o),
(345,500,c),
(200,496,o),
(127,327,o),
(125,197,c),
(128,159,o),
(132,121,o),
(149,86,c),
(130,88,o),
(111,89,o),
(92,88,cs),
(64,88,o),
(40,84,o),
(12,84,c),
(2,150,o),
(17,234,o),
(35,284,cs),
(45,314,o),
(65,364,o),
(65,410,cs),
(67,437,o),
(65,473,o),
(51,500,c),
(-25,500,l),
(32,399,o),
(-75,273,o),
(-70,133,cs)
);
},
{
closed = 1;
nodes = (
(241,466,o),
(477,467,o),
(429,213,cs),
(415,144,o),
(364,93,o),
(331,32,c),
(299,48,o),
(264,61,o),
(227,71,c),
(210,122,o),
(193,174,o),
(201,235,c)
);
},
{
closed = 1;
nodes = (
(746,725,o),
(748,735,o),
(751,743,c),
(760,744,o),
(767,744,o),
(774,744,cs),
(809,744,o),
(834,733,o),
(834,706,cs),
(834,684,o),
(821,669,o),
(793,669,cs),
(761,669,o),
(746,684,o),
(746,715,cs)
);
}
);
width = 968;
}
);
note = maiivowelsigntamil;
},
{
glyphname = mauvowelsigntamil;
layers = (
{
anchors = (
{
name = bottom;
pos = (640,-29);
},
{
name = top;
pos = (640,-29);
}
);
layerId = m01;
shapes = (
{
closed = 1;
nodes = (
(713,-311,o),
(868,-219,o),
(906,0,c),
(1030,0,o),
(1099,15,o),
(1154,57,cs),
(1209,98,o),
(1242,166,o),
(1242,275,cs),
(1242,445,o),
(1157,581,o),
(953,581,cs),
(888,581,o),
(827,563,o),
(787,528,cs),
(745,492,o),
(722,442,o),
(722,351,cs),
(722,130,l),
(570,130,l),
(570,569,l),
(380,569,l),
(380,0,l),
(718,0,l),
(694,-108,o),
(627,-178,o),
(487,-178,cs),
(284,-178,o),
(224,-37,o),
(224,130,cs),
(224,139,ls),
(224,269,o),
(262,388,o),
(336,498,c),
(188,581,l),
(113,470,o),
(47,316,o),
(47,151,cs),
(47,135,ls),
(47,-104,o),
(172,-311,o),
(486,-311,cs)
);
},
{
closed = 1;
nodes = (
(1029,451,o),
(1054,385,o),
(1054,276,cs),
(1054,166,o),
(1015,130,o),
(928,130,cs),
(912,130,l),
(912,356,ls),
(912,402,o),
(915,418,o),
(929,434,cs),
(938,445,o),
(953,451,o),
(969,451,cs)
);
}
);
width = 1280;
}
);
note = mauvowelsigntamil;
},
{
glyphname = mauuvowelsigntamil;
layers = (
{
anchors = (
{
name = bottom;
pos = (724,-29);
},
{
name = top;
pos = (724,-29);
}
);
layerId = m01;
shapes = (
{
closed = 1;
nodes = (
(916,-311,o),
(1030,-188,o),
(1073,0,c),
(1198,0,o),
(1267,15,o),
(1322,57,cs),
(1377,98,o),
(1410,166,o),
(1410,275,cs),
(1410,445,o),
(1325,581,o),
(1121,581,cs),
(1056,581,o),
(995,563,o),
(955,528,cs),
(913,492,o),
(890,442,o),
(890,351,cs),
(890,130,l),
(738,130,l),
(738,569,l),
(548,569,l),
(548,0,l),
(883,0,l),
(857,-89,o),
(789,-178,o),
(605,-178,cs),
(379,-178,o),
(217,-35,o),
(215,228,c),
(245,217,o),
(279,213,o),
(311,213,cs),
(473,213,o),
(519,291,o),
(519,403,cs),
(519,497,o),
(458,581,o),
(315,581,cs),
(159,581,o),
(43,453,o),
(43,227,cs),
(43,-134,o),
(277,-311,o),
(599,-311,cs)
);
},
{
closed = 1;
nodes = (
(1197,451,o),
(1222,385,o),
(1222,276,cs),
(1222,166,o),
(1183,130,o),
(1096,130,cs),
(1080,130,l),
(1080,356,ls),
(1080,402,o),
(1083,418,o),
(1097,434,cs),
(1106,445,o),
(1121,451,o),
(1137,451,cs)
);
},
{
closed = 1;
nodes = (
(246,419,o),
(274,455,o),
(312,455,cs),
(331,455,o),
(356,444,o),
(356,401,cs),
(356,352,o),
(326,339,o),
(297,339,cs),
(276,339,o),
(252,346,o),
(230,361,c)
);
}
);
width = 1448;
}
);
note = mauuvowelsigntamil;
},
{
glyphname = yaiivowelsigntamil;
layers = (
{
anchors = (
{
name = bottom;
pos = (535,-29);
}
);
layerId = m01;
shapes = (
{
closed = 1;
nodes = (
(377,0,l),
(1003,0,l),
(1003,569,l),
(813,569,l),
(813,499,l),
(748,519,o),
(717,552,o),
(717,612,cs),
(717,649,o),
(725,673,o),
(741,692,c),
(746,623,o),
(793,576,o),
(906,576,cs),
(1024,576,o),
(1085,626,o),
(1085,707,cs),
(1085,791,o),
(1015,851,o),
(864,851,cs),
(642,851,o),
(566,730,o),
(566,613,cs),
(566,486,o),
(662,393,o),
(813,360,c),
(813,130,l),
(567,130,l),
(567,569,l),
(377,569,l),
(377,141,l),
(363,127,o),
(344,117,o),
(319,117,cs),
(299,117,o),
(284,123,o),
(275,132,cs),
(259,148,o),
(255,179,o),
(255,229,cs),
(255,569,l),
(65,569,l),
(65,225,ls),
(65,129,o),
(85,73,o),
(123,36,cs),
(157,4,o),
(202,-12,o),
(257,-12,cs),
(313,-12,o),
(348,1,o),
(377,23,c)
);
},
{
closed = 1;
nodes = (
(855,725,o),
(857,735,o),
(860,743,c),
(868,744,o),
(875,744,o),
(883,744,cs),
(918,744,o),
(943,733,o),
(943,706,cs),
(943,684,o),
(930,669,o),
(902,669,cs),
(870,669,o),
(855,684,o),
(855,715,cs)
);
}
);
width = 1071;
}
);
note = yaiivowelsigntamil;
},
{
glyphname = yauvowelsigntamil;
layers = (
{
anchors = (
{
name = bottom;
pos = (535,-29);
},
{
name = top;
pos = (535,-29);
}
);
layerId = m01;
shapes = (
{
closed = 1;
nodes = (
(377,0,l),
(813,0,l),
(813,-283,l),
(1003,-283,l),
(1003,569,l),
(813,569,l),
(813,130,l),
(567,130,l),
(567,569,l),
(377,569,l),
(377,141,l),
(363,127,o),
(344,117,o),
(319,117,cs),
(299,117,o),
(284,123,o),
(275,132,cs),
(259,148,o),
(255,179,o),
(255,229,cs),
(255,569,l),
(65,569,l),
(65,225,ls),
(65,129,o),
(85,73,o),
(123,36,cs),
(157,4,o),
(202,-12,o),
(257,-12,cs),
(313,-12,o),
(348,1,o),
(377,23,c)
);
}
);
width = 1071;
}
);
note = yauvowelsigntamil;
},
{
glyphname = yauuvowelsigntamil;
layers = (
{
anchors = (
{
name = bottom;
pos = (658,-29);
},
{
name = top;
pos = (658,-29);
}
);
layerId = m01;
shapes = (
{
closed = 1;
nodes = (
(1072,130,o),
(1033,123,o),
(1003,113,c),
(1003,569,l),
(813,569,l),
(813,130,l),
(567,130,l),
(567,569,l),
(377,569,l),
(377,141,l),
(363,127,o),
(344,117,o),
(319,117,cs),
(299,117,o),
(284,123,o),
(275,132,cs),
(259,148,o),
(255,179,o),
(255,229,cs),
(255,569,l),
(65,569,l),
(65,225,ls),
(65,129,o),
(85,73,o),
(123,36,cs),
(151,10,o),
(185,-5,o),
(227,-10,c),
(120,-18,o),
(65,-68,o),
(65,-143,cs),
(65,-219,o),
(111,-261,o),
(192,-287,cs),
(278,-315,o),
(399,-321,o),
(592,-321,cs),
(653,-321,ls),
(864,-321,o),
(1064,-310,o),
(1188,-241,cs),
(1265,-198,o),
(1315,-141,o),
(1315,-43,cs),
(1315,73,o),
(1227,130,o),
(1122,130,cs)
);
},
{
closed = 1;
nodes = (
(377,0,l),
(813,0,l),
(813,-133,l),
(1003,-133,l),
(1003,-8,l),
(1022,0,o),
(1042,4,o),
(1066,4,cs),
(1111,4,o),
(1134,-20,o),
(1134,-56,cs),
(1134,-87,o),
(1119,-109,o),
(1093,-128,cs),
(1021,-181,o),
(882,-194,o),
(651,-194,cs),
(593,-194,ls),
(303,-194,o),
(237,-180,o),
(237,-151,cs),
(237,-133,o),
(254,-130,o),
(289,-130,cs),
(336,-130,o),
(389,-140,o),
(432,-150,c),
(458,-35,l),
(415,-22,o),
(358,-12,o),
(294,-10,c),
(330,-5,o),
(354,6,o),
(377,23,c)
);
}
);
width = 1316;
}
);
note = yauuvowelsigntamil;
},
{
glyphname = raiivowelsigntamil;
layers = (
{
anchors = (
{
name = bottom;
pos = (364,-29);
},
{
name = top;
pos = (224,-29);
}
);
layerId = m01;
shapes = (
{
closed = 1;
nodes = (
(239,438,o),
(207,433,o),
(204,431,c),
(204,385,o),
(178,314,o),
(168,284,cs),
(126,144,o),
(143,62,o),
(178,0,c),
(101,0,l),
(80,29,o),
(63,65,o),
(63,133,cs),
(63,273,o),
(144,355,o),
(101,456,c),
(130,494,o),
(177,540,o),
(275,531,c),
(284,510,l),
(338,520,l),
(378,510,o),
(413,497,o),
(455,492,cs),
(503,488,o),
(550,497,o),
(598,526,c),
(620,515,o),
(613,445,o),
(574,400,cs),
(563,387,o),
(543,364,o),
(484,375,c),
(445,353,o),
(406,283,o),
(409,190,c),
(415,127,o),
(434,55,o),
(474,0,c),
(480,-122,o),
(393,-273,o),
(193,-254,cs),
(119,-247,o),
(81,-223,o),
(14,-222,cs),
(-28,-222,o),
(-79,-231,o),
(-102,-254,cs),
(-109,-261,o),
(-117,-255,o),
(-119,-245,cs),
(-131,-172,o),
(-52,-112,o),
(-37,-107,c),
(50,-103,o),
(108,-154,o),
(193,-165,cs),
(332,-184,o),
(383,-93,o),
(379,0,c),
(315,139,o),
(299,297,o),
(394,400,c),
(349,411,o),
(323,427,o),
(262,435,cs)
);
},
{
closed = 1;
nodes = (
(338,851,o),
(258,729,o),
(258,632,cs),
(258,592,o),
(263,562,o),
(275,531,c),
(298,529,o),
(318,525,o),
(338,520,c),
(428,536,l),
(416,562,o),
(409,586,o),
(409,616,cs),
(409,652,o),
(422,677,o),
(442,697,c),
(446,623,o),
(492,576,o),
(608,576,cs),
(726,576,o),
(787,626,o),
(787,707,cs),
(787,792,o),
(717,851,o),
(566,851,cs)
);
},
{
closed = 1;
nodes = (
(557,725,o),
(559,735,o),
(562,743,c),
(571,744,o),
(578,744,o),
(585,744,cs),
(620,744,o),
(645,733,o),
(645,706,cs),
(645,684,o),
(632,669,o),
(604,669,cs),
(572,669,o),
(557,684,o),
(557,715,cs)
);
}
);
width = 779;
}
);
note = raiivowelsigntamil;
},
{
glyphname = rauvowelsigntamil;
layers = (
{
anchors = (
{
name = bottom;
pos = (619,-29);
},
{
name = top;
pos = (619,-29);
}
);
layerId = m01;
shapes = (
{
closed = 1;
nodes = (
(308,538,o),
(261,494,o),
(234,459,c),
(276,359,o),
(197,280,o),
(197,145,cs),
(197,79,o),
(214,45,o),
(234,17,c),
(308,17,l),
(275,77,o),
(257,155,o),
(300,291,cs),
(308,320,o),
(332,389,o),
(332,434,c),
(337,436,o),
(368,440,o),
(390,437,cs),
(453,431,o),
(472,414,o),
(518,403,c),
(426,304,o),
(442,151,o),
(503,17,c),
(604,17,l),
(576,58,o),
(558,107,o),
(548,155,c),
(573,186,o),
(604,199,o),
(633,199,cs),
(696,199,o),
(753,137,o),
(748,65,cs),
(742,-37,o),
(614,-114,o),
(451,-105,cs),
(300,-97,o),
(101,-41,o),
(101,233,cs),
(101,456,o),
(262,615,o),
(456,620,cs),
(523,620,o),
(551,602,o),
(612,578,cs),
(706,540,o),
(742,570,o),
(756,587,cs),
(793,629,o),
(800,696,o),
(779,708,c),
(733,680,o),
(685,672,o),
(640,674,c),
(575,683,o),
(528,709,o),
(456,709,cs),
(213,708,o),
(8,479,o),
(21,233,cs),
(32,-5,o),
(152,-163,o),
(450,-182,cs),
(622,-190,o),
(812,-110,o),
(823,64,cs),
(832,200,o),
(741,274,o),
(641,274,cs),
(609,274,o),
(575,266,o),
(545,250,c),
(554,312,o),
(583,355,o),
(614,373,c),
(659,373,o),
(678,389,o),
(691,403,cs),
(729,446,o),
(736,515,o),
(714,526,c),
(668,498,o),
(622,487,o),
(576,491,c),
(512,501,o),
(472,524,o),
(402,531,cs)
);
}
);
width = 844;
}
);
note = rauvowelsigntamil;
},
{
glyphname = rauuvowelsigntamil;
layers = (
{
anchors = (
{
name = bottom;
pos = (704,-29);
},
{
name = top;
pos = (704,-29);
}
);
layerId = m01;
shapes = (
{
closed = 1;
nodes = (
(1116,346,o),
(1081,341,o),
(1052,331,c),
(1052,439,l),
(1184,439,l),
(1184,569,l),
(548,569,l),
(548,0,l),
(738,0,l),
(738,439,l),
(862,439,l),
(862,0,l),
(1052,0,l),
(1052,205,l),
(1066,212,o),
(1081,216,o),
(1097,216,cs),
(1155,216,o),
(1185,170,o),
(1185,96,cs),
(1185,-87,o),
(1020,-186,o),
(750,-186,cs),
(717,-186,ls),
(419,-186,o),
(215,-45,o),
(215,228,c),
(245,217,o),
(279,213,o),
(311,213,cs),
(473,213,o),
(519,291,o),
(519,403,cs),
(519,497,o),
(458,581,o),
(315,581,cs),
(159,581,o),
(43,451,o),
(43,234,cs),
(43,-171,o),
(337,-321,o),
(711,-321,cs),
(744,-321,ls),
(1076,-321,o),
(1375,-209,o),
(1375,95,cs),
(1375,252,o),
(1293,346,o),
(1146,346,cs)
);
},
{
closed = 1;
nodes = (
(246,419,o),
(274,455,o),
(312,455,cs),
(331,455,o),
(356,444,o),
(356,401,cs),
(356,352,o),
(326,339,o),
(297,339,cs),
(276,339,o),
(252,346,o),
(230,361,c)
);
}
);
width = 1408;
}
);
note = rauuvowelsigntamil;
},
{
glyphname = rraiivowelsigntamil;
layers = (
{
anchors = (
{
name = bottom;
pos = (515,-29);
},
{
name = top;
pos = (515,-29);
}
);
layerId = m01;
shapes = (
{
closed = 1;
nodes = (
(500,417,o),
(511,431,o),
(548,428,c),
(669,406,o),
(662,281,o),
(662,245,cs),
(662,26,o),
(557,-177,o),
(333,-146,cs),
(248,-134,o),
(190,-84,o),
(103,-88,c),
(88,-93,o),
(9,-153,o),
(21,-226,cs),
(23,-236,o),
(31,-242,o),
(38,-235,cs),
(61,-212,o),
(112,-203,o),
(154,-203,cs),
(221,-204,o),
(266,-230,o),
(333,-235,cs),
(594,-253,o),
(738,-17,o),
(738,247,cs),
(738,285,o),
(738,489,o),
(544,509,cs),
(490,514,o),
(460,477,o),
(435,469,c),
(400,501,o),
(359,516,o),
(299,516,cs),
(259,516,o),
(215,506,o),
(185,483,cs),
(150,456,o),
(132,414,o),
(131,367,cs),
(126,227,o),
(233,101,o),
(176,0,c),
(252,0,l),
(266,27,o),
(268,63,o),
(266,90,cs),
(266,136,o),
(246,186,o),
(236,216,cs),
(218,266,o),
(190,360,o),
(222,403,cs),
(249,440,o),
(315,473,o),
(387,417,cs),
(442,374,o),
(453,313,o),
(439,205,cs),
(430,136,o),
(416,86,o),
(361,0,c),
(436,0,l),
(488,86,o),
(501,140,o),
(510,207,cs),
(521,289,o),
(514,356,o),
(482,410,c)
);
},
{
closed = 1;
nodes = (
(589,851,o),
(509,729,o),
(509,632,cs),
(509,583,o),
(517,547,o),
(535,510,c),
(679,536,l),
(667,562,o),
(660,586,o),
(660,616,cs),
(660,652,o),
(673,677,o),
(693,697,c),
(697,623,o),
(743,576,o),
(859,576,cs),
(977,576,o),
(1038,626,o),
(1038,707,cs),
(1038,792,o),
(968,851,o),
(817,851,cs)
);
},
{
closed = 1;
nodes = (
(808,725,o),
(810,735,o),
(813,743,c),
(822,744,o),
(829,744,o),
(836,744,cs),
(871,744,o),
(896,733,o),
(896,706,cs),
(896,684,o),
(883,669,o),
(855,669,cs),
(823,669,o),
(808,684,o),
(808,715,cs)
);
}
);
width = 1030;
}
);
note = rraiivowelsigntamil;
},
{
glyphname = rrauvowelsigntamil;
layers = (
{
anchors = (
{
name = bottom;
pos = (675,-29);
},
{
name = top;
pos = (675,-29);
}
);
layerId = m01;
shapes = (
{
closed = 1;
nodes = (
(598,581,o),
(536,548,o),
(485,488,c),
(444,546,o),
(393,581,o),
(304,581,cs),
(240,581,o),
(190,565,o),
(152,536,cs),
(97,494,o),
(65,429,o),
(65,310,cs),
(65,0,l),
(255,0,l),
(255,304,ls),
(255,366,o),
(257,407,o),
(278,432,cs),
(288,444,o),
(303,451,o),
(323,451,cs),
(343,451,o),
(356,443,o),
(366,431,cs),
(384,408,o),
(386,372,o),
(386,297,cs),
(386,0,l),
(576,0,l),
(576,298,ls),
(576,364,o),
(584,403,o),
(612,429,cs),
(627,443,o),
(647,451,o),
(676,451,cs),
(752,451,o),
(798,379,o),
(798,227,cs),
(798,140,o),
(779,27,o),
(737,-50,c),
(177,-50,ls),
(125,-50,o),
(83,-58,o),
(56,-79,cs),
(34,-96,o),
(22,-120,o),
(22,-153,cs),
(22,-267,o),
(133,-321,o),
(354,-321,cs),
(408,-321,ls),
(609,-321,o),
(760,-276,o),
(859,-180,c),
(1282,-180,l),
(1282,569,l),
(1092,569,l),
(1092,-50,l),
(930,-50,l),
(967,29,o),
(988,120,o),
(988,234,cs),
(988,456,o),
(882,581,o),
(692,581,cs)
);
},
{
closed = 1;
nodes = (
(188,-164,o),
(195,-161,o),
(205,-161,cs),
(641,-161,l),
(580,-191,o),
(494,-205,o),
(383,-205,cs),
(352,-205,ls),
(232,-205,o),
(188,-192,o),
(188,-173,cs)
);
}
);
width = 1350;
}
);
note = rrauvowelsigntamil;
},
{
glyphname = rrauuvowelsigntamil;
layers = (
{
anchors = (
{
name = bottom;
pos = (873,-29);
},
{
name = top;
pos = (873,-29);
}
);
layerId = m01;
shapes = (
{
closed = 1;
nodes = (
(598,581,o),
(536,548,o),
(485,488,c),
(444,546,o),
(393,581,o),
(304,581,cs),
(240,581,o),
(190,565,o),
(152,536,cs),
(97,494,o),
(65,429,o),
(65,310,cs),
(65,0,l),
(255,0,l),
(255,304,ls),
(255,366,o),
(257,407,o),
(278,432,cs),
(288,444,o),
(303,451,o),
(323,451,cs),
(343,451,o),
(356,443,o),
(366,431,cs),
(384,408,o),
(386,372,o),
(386,297,cs),
(386,0,l),
(576,0,l),
(576,298,ls),
(576,364,o),
(584,403,o),
(612,429,cs),
(627,443,o),
(647,451,o),
(676,451,cs),
(752,451,o),
(798,379,o),
(798,227,cs),
(798,140,o),
(779,27,o),
(737,-50,c),
(177,-50,ls),
(125,-50,o),
(83,-58,o),
(56,-79,cs),
(34,-96,o),
(22,-120,o),
(22,-153,cs),
(22,-267,o),
(133,-321,o),
(354,-321,cs),
(408,-321,ls),
(609,-321,o),
(760,-276,o),
(859,-180,c),
(1282,-180,l),
(1282,439,l),
(1408,439,l),
(1408,-180,l),
(1598,-180,l),
(1598,439,l),
(1730,439,l),
(1730,569,l),
(1092,569,l),
(1092,-50,l),
(930,-50,l),
(967,29,o),
(988,120,o),
(988,235,cs),
(988,456,o),
(882,581,o),
(692,581,cs)
);
},
{
closed = 1;
nodes = (
(188,-164,o),
(195,-161,o),
(205,-161,cs),
(641,-161,l),
(580,-191,o),
(494,-205,o),
(383,-205,cs),
(352,-205,ls),
(232,-205,o),
(188,-192,o),
(188,-173,cs)
);
}
);
width = 1747;
}
);
note = rrauuvowelsigntamil;
},
{
glyphname = laivowelsigntamil;
layers = (
{
anchors = (
{
name = bottom;
pos = (590,-29);
},
{
name = top;
pos = (590,-29);
}
);
layerId = m01;
shapes = (
{
closed = 1;
nodes = (
(831,851,o),
(725,738,o),
(725,600,cs),
(725,476,o),
(813,385,o),
(936,354,c),
(944,323,o),
(949,290,o),
(949,253,cs),
(949,150,o),
(920,118,o),
(865,118,cs),
(839,118,o),
(818,126,o),
(804,141,cs),
(786,160,o),
(778,184,o),
(776,233,cs),
(770,377,o),
(738,462,o),
(667,518,cs),
(612,561,o),
(542,581,o),
(433,581,cs),
(214,581,o),
(37,469,o),
(37,247,cs),
(37,79,o),
(127,-12,o),
(284,-12,cs),
(449,-12,o),
(521,61,o),
(521,177,cs),
(521,295,o),
(447,355,o),
(335,355,cs),
(294,355,o),
(258,345,o),
(226,330,c),
(258,407,o),
(331,451,o),
(419,451,cs),
(481,451,o),
(517,433,o),
(541,402,cs),
(574,359,o),
(580,295,o),
(586,229,cs),
(595,133,o),
(626,68,o),
(683,30,cs),
(726,2,o),
(779,-12,o),
(861,-12,cs),
(1054,-12,o),
(1139,112,o),
(1139,266,cs),
(1139,388,o),
(1103,476,o),
(1040,569,c),
(934,509,l),
(905,531,o),
(893,563,o),
(893,603,cs),
(893,665,o),
(938,722,o),
(1046,722,cs),
(1103,722,o),
(1142,706,o),
(1172,680,cs),
(1230,629,o),
(1248,551,o),
(1248,410,cs),
(1248,0,l),
(1438,0,l),
(1438,407,ls),
(1438,581,o),
(1409,696,o),
(1305,775,cs),
(1245,821,o),
(1159,851,o),
(1043,851,cs)
);
},
{
closed = 1;
nodes = (
(229,225,o),
(252,234,o),
(277,234,cs),
(315,234,o),
(340,217,o),
(340,174,cs),
(340,135,o),
(321,114,o),
(282,114,cs),
(236,114,o),
(213,149,o),
(209,211,c)
);
}
);
width = 1506;
}
);
note = laivowelsigntamil;
},
{
glyphname = laiivowelsigntamil;
layers = (
{
anchors = (
{
name = bottom;
pos = (590,-29);
},
{
name = top;
pos = (590,-29);
}
);
layerId = m01;
shapes = (
{
closed = 1;
nodes = (
(745,851,o),
(665,730,o),
(665,613,cs),
(665,491,o),
(763,389,o),
(934,362,c),
(943,329,o),
(949,293,o),
(949,253,cs),
(949,150,o),
(920,118,o),
(865,118,cs),
(839,118,o),
(818,126,o),
(804,141,cs),
(786,160,o),
(778,184,o),
(776,233,cs),
(770,377,o),
(738,462,o),
(667,518,cs),
(612,561,o),
(542,581,o),
(433,581,cs),
(214,581,o),
(37,469,o),
(37,247,cs),
(37,79,o),
(127,-12,o),
(284,-12,cs),
(449,-12,o),
(521,61,o),
(521,177,cs),
(521,295,o),
(447,355,o),
(335,355,cs),
(294,355,o),
(258,345,o),
(226,330,c),
(258,407,o),
(331,451,o),
(419,451,cs),
(481,451,o),
(517,433,o),
(541,402,cs),
(574,359,o),
(580,295,o),
(586,229,cs),
(595,133,o),
(626,68,o),
(683,30,cs),
(726,2,o),
(779,-12,o),
(861,-12,cs),
(1054,-12,o),
(1139,112,o),
(1139,266,cs),
(1139,388,o),
(1103,476,o),
(1040,569,c),
(923,503,l),
(848,519,o),
(816,552,o),
(816,612,cs),
(816,651,o),
(830,677,o),
(849,696,c),
(853,623,o),
(899,576,o),
(1015,576,cs),
(1133,576,o),
(1194,626,o),
(1194,707,cs),
(1194,791,o),
(1124,851,o),
(973,851,cs)
);
},
{
closed = 1;
nodes = (
(229,225,o),
(252,234,o),
(277,234,cs),
(315,234,o),
(340,217,o),
(340,174,cs),
(340,135,o),
(321,114,o),
(282,114,cs),
(236,114,o),
(213,149,o),
(209,211,c)
);
},
{
closed = 1;
nodes = (
(964,725,o),
(966,735,o),
(969,743,c),
(977,744,o),
(984,744,o),
(992,744,cs),
(1027,744,o),
(1052,733,o),
(1052,706,cs),
(1052,684,o),
(1039,669,o),
(1011,669,cs),
(979,669,o),
(964,684,o),
(964,715,cs)
);
}
);
width = 1180;
}
);
note = laiivowelsigntamil;
},
{
glyphname = lauvowelsigntamil;
layers = (
{
anchors = (
{
name = bottom;
pos = (746,-29);
},
{
name = top;
pos = (746,-29);
}
);
layerId = m01;
shapes = (
{
closed = 1;
nodes = (
(25,-267,o),
(144,-321,o),
(358,-321,cs),
(388,-321,ls),
(598,-321,o),
(763,-280,o),
(869,-180,c),
(1425,-180,l),
(1425,569,l),
(1235,569,l),
(1235,-50,l),
(942,-50,l),
(947,-34,o),
(951,-19,o),
(954,-1,c),
(1082,33,o),
(1139,140,o),
(1139,266,cs),
(1139,388,o),
(1101,501,o),
(1004,615,c),
(847,526,l),
(917,440,o),
(949,345,o),
(949,253,cs),
(949,150,o),
(920,118,o),
(865,118,cs),
(839,118,o),
(818,126,o),
(804,141,cs),
(786,160,o),
(778,184,o),
(776,233,cs),
(770,377,o),
(738,462,o),
(667,518,cs),
(612,561,o),
(542,581,o),
(433,581,cs),
(214,581,o),
(37,469,o),
(37,247,cs),
(37,79,o),
(127,-12,o),
(284,-12,cs),
(449,-12,o),
(521,61,o),
(521,177,cs),
(521,295,o),
(447,355,o),
(335,355,cs),
(294,355,o),
(258,345,o),
(226,330,c),
(258,407,o),
(331,451,o),
(419,451,cs),
(481,451,o),
(517,433,o),
(541,402,cs),
(574,359,o),
(580,295,o),
(586,229,cs),
(595,133,o),
(626,68,o),
(683,30,cs),
(706,15,o),
(731,4,o),
(762,-3,c),
(758,-21,o),
(754,-35,o),
(748,-50,c),
(181,-50,ls),
(128,-50,o),
(86,-58,o),
(59,-79,cs),
(37,-96,o),
(25,-120,o),
(25,-153,cs)
);
},
{
closed = 1;
nodes = (
(191,-164,o),
(198,-161,o),
(208,-161,cs),
(661,-161,l),
(591,-195,o),
(499,-205,o),
(396,-205,cs),
(348,-205,ls),
(235,-205,o),
(191,-192,o),
(191,-173,cs)
);
},
{
closed = 1;
nodes = (
(229,225,o),
(252,234,o),
(277,234,cs),
(315,234,o),
(340,217,o),
(340,174,cs),
(340,135,o),
(321,114,o),
(282,114,cs),
(236,114,o),
(213,149,o),
(209,211,c)
);
}
);
width = 1493;
}
);
note = lauvowelsigntamil;
},
{
glyphname = lauuvowelsigntamil;
layers = (
{
anchors = (
{
name = bottom;
pos = (945,-29);
},
{
name = top;
pos = (945,-29);
}
);
layerId = m01;
shapes = (
{
closed = 1;
nodes = (
(25,-267,o),
(144,-321,o),
(358,-321,cs),
(388,-321,ls),
(598,-321,o),
(763,-280,o),
(869,-180,c),
(1425,-180,l),
(1425,439,l),
(1551,439,l),
(1551,-180,l),
(1741,-180,l),
(1741,439,l),
(1873,439,l),
(1873,569,l),
(1235,569,l),
(1235,-50,l),
(942,-50,l),
(947,-34,o),
(951,-19,o),
(954,-1,c),
(1082,33,o),
(1139,140,o),
(1139,266,cs),
(1139,388,o),
(1101,501,o),
(1004,615,c),
(847,526,l),
(917,440,o),
(949,345,o),
(949,253,cs),
(949,150,o),
(920,118,o),
(865,118,cs),
(839,118,o),
(818,126,o),
(804,141,cs),
(786,160,o),
(778,184,o),
(776,233,cs),
(770,377,o),
(738,462,o),
(667,518,cs),
(612,561,o),
(542,581,o),
(433,581,cs),
(214,581,o),
(37,469,o),
(37,247,cs),
(37,79,o),
(127,-12,o),
(284,-12,cs),
(449,-12,o),
(521,61,o),
(521,177,cs),
(521,295,o),
(447,355,o),
(335,355,cs),
(294,355,o),
(258,345,o),
(226,330,c),
(258,407,o),
(331,451,o),
(419,451,cs),
(481,451,o),
(517,433,o),
(541,402,cs),
(574,359,o),
(580,295,o),
(586,229,cs),
(595,133,o),
(626,68,o),
(683,30,cs),
(706,15,o),
(731,4,o),
(762,-3,c),
(758,-21,o),
(754,-35,o),
(748,-50,c),
(181,-50,ls),
(128,-50,o),
(86,-58,o),
(59,-79,cs),
(37,-96,o),
(25,-120,o),
(25,-153,cs)
);
},
{
closed = 1;
nodes = (
(191,-164,o),
(198,-161,o),
(208,-161,cs),
(661,-161,l),
(591,-195,o),
(499,-205,o),
(396,-205,cs),
(348,-205,ls),
(235,-205,o),
(191,-192,o),
(191,-173,cs)
);
},
{
closed = 1;
nodes = (
(229,225,o),
(252,234,o),
(277,234,cs),
(315,234,o),
(340,217,o),
(340,174,cs),
(340,135,o),
(321,114,o),
(282,114,cs),
(236,114,o),
(213,149,o),
(209,211,c)
);
}
);
width = 1890;
}
);
note = lauuvowelsigntamil;
},
{
glyphname = llaiivowelsigntamil;
layers = (
{
anchors = (
{
name = bottom;
pos = (622,-29);
},
{
name = top;
pos = (622,-29);
}
);
layerId = m01;
shapes = (
{
closed = 1;
nodes = (
(449,-12,o),
(521,61,o),
(521,177,cs),
(521,296,o),
(447,355,o),
(335,355,cs),
(293,355,o),
(257,345,o),
(224,329,c),
(252,407,o),
(318,451,o),
(405,451,cs),
(489,451,o),
(545,416,o),
(591,367,c),
(591,0,l),
(781,0,l),
(781,439,l),
(905,439,l),
(905,0,l),
(1095,0,l),
(1095,439,l),
(1227,439,l),
(1227,569,l),
(930,569,l),
(926,584,o),
(924,599,o),
(924,616,cs),
(924,652,o),
(937,677,o),
(957,697,c),
(961,623,o),
(1007,576,o),
(1123,576,cs),
(1241,576,o),
(1302,626,o),
(1302,707,cs),
(1302,792,o),
(1232,851,o),
(1081,851,cs),
(853,851,o),
(773,729,o),
(773,632,cs),
(773,609,o),
(775,589,o),
(779,569,c),
(613,569,l),
(613,525,l),
(549,563,o),
(484,581,o),
(400,581,cs),
(212,581,o),
(37,469,o),
(37,248,cs),
(37,79,o),
(127,-12,o),
(285,-12,cs)
);
},
{
closed = 1;
nodes = (
(231,226,o),
(253,234,o),
(278,234,cs),
(315,234,o),
(340,217,o),
(340,174,cs),
(340,135,o),
(321,114,o),
(283,114,cs),
(236,114,o),
(214,149,o),
(210,212,c)
);
},
{
closed = 1;
nodes = (
(1072,725,o),
(1074,735,o),
(1077,743,c),
(1086,744,o),
(1093,744,o),
(1100,744,cs),
(1135,744,o),
(1160,733,o),
(1160,706,cs),
(1160,684,o),
(1147,669,o),
(1119,669,cs),
(1087,669,o),
(1072,684,o),
(1072,715,cs)
);
}
);
width = 1294;
}
);
note = llaiivowelsigntamil;
},
{
glyphname = llauvowelsigntamil;
layers = (
{
anchors = (
{
name = bottom;
pos = (874,-29);
},
{
name = top;
pos = (874,-29);
}
);
layerId = m01;
shapes = (
{
closed = 1;
nodes = (
(1456,346,o),
(1422,341,o),
(1392,331,c),
(1392,439,l),
(1524,439,l),
(1524,569,l),
(910,569,l),
(910,525,l),
(846,563,o),
(781,581,o),
(697,581,cs),
(509,581,o),
(334,469,o),
(334,248,cs),
(334,79,o),
(424,-12,o),
(582,-12,cs),
(746,-12,o),
(818,61,o),
(818,177,cs),
(818,296,o),
(744,355,o),
(632,355,cs),
(590,355,o),
(554,345,o),
(521,329,c),
(549,407,o),
(615,451,o),
(702,451,cs),
(786,451,o),
(842,416,o),
(888,367,c),
(888,0,l),
(1078,0,l),
(1078,439,l),
(1202,439,l),
(1202,0,l),
(1392,0,l),
(1392,205,l),
(1406,212,o),
(1421,216,o),
(1437,216,cs),
(1495,216,o),
(1525,170,o),
(1525,102,cs),
(1525,-141,o),
(1262,-186,o),
(905,-186,cs),
(868,-186,ls),
(463,-186,o),
(225,-141,o),
(225,180,cs),
(225,191,ls),
(225,281,o),
(258,388,o),
(332,498,c),
(184,581,l),
(109,470,o),
(47,328,o),
(47,182,cs),
(47,165,ls),
(47,-250,o),
(416,-321,o),
(847,-321,cs),
(909,-321,ls),
(1288,-321,o),
(1715,-276,o),
(1715,99,cs),
(1715,252,o),
(1633,346,o),
(1486,346,cs)
);
},
{
closed = 1;
nodes = (
(528,226,o),
(550,234,o),
(575,234,cs),
(612,234,o),
(637,217,o),
(637,174,cs),
(637,135,o),
(618,114,o),
(580,114,cs),
(533,114,o),
(511,149,o),
(507,212,c)
);
}
);
width = 1748;
}
);
note = llauvowelsigntamil;
},
{
glyphname = llauuvowelsigntamil;
layers = (
{
anchors = (
{
name = bottom;
pos = (971,-29);
},
{
name = top;
pos = (971,-29);
}
);
layerId = m01;
shapes = (
{
closed = 1;
nodes = (
(1651,346,o),
(1617,341,o),
(1587,331,c),
(1587,439,l),
(1719,439,l),
(1719,569,l),
(1105,569,l),
(1105,525,l),
(1041,563,o),
(976,581,o),
(892,581,cs),
(704,581,o),
(529,469,o),
(529,248,cs),
(529,79,o),
(619,-12,o),
(777,-12,cs),
(941,-12,o),
(1013,61,o),
(1013,177,cs),
(1013,296,o),
(939,355,o),
(827,355,cs),
(785,355,o),
(749,345,o),
(716,329,c),
(744,407,o),
(810,451,o),
(897,451,cs),
(981,451,o),
(1037,416,o),
(1083,367,c),
(1083,0,l),
(1273,0,l),
(1273,439,l),
(1397,439,l),
(1397,0,l),
(1587,0,l),
(1587,205,l),
(1601,212,o),
(1616,216,o),
(1632,216,cs),
(1690,216,o),
(1720,170,o),
(1720,102,cs),
(1720,-140,o),
(1457,-186,o),
(1060,-186,cs),
(965,-186,ls),
(658,-186,o),
(215,-127,o),
(215,217,cs),
(215,228,l),
(245,217,o),
(279,213,o),
(311,213,cs),
(473,213,o),
(519,291,o),
(519,403,cs),
(519,497,o),
(458,581,o),
(315,581,cs),
(161,581,o),
(43,459,o),
(43,235,cs),
(43,-205,o),
(473,-321,o),
(960,-321,cs),
(1064,-321,ls),
(1496,-321,o),
(1910,-276,o),
(1910,99,cs),
(1910,252,o),
(1828,346,o),
(1681,346,cs)
);
},
{
closed = 1;
nodes = (
(246,419,o),
(274,455,o),
(313,455,cs),
(331,455,o),
(356,444,o),
(356,401,cs),
(356,352,o),
(326,339,o),
(297,339,cs),
(276,339,o),
(252,346,o),
(230,361,c)
);
},
{
closed = 1;
nodes = (
(723,226,o),
(745,234,o),
(770,234,cs),
(807,234,o),
(832,217,o),
(832,174,cs),
(832,135,o),
(813,114,o),
(775,114,cs),
(728,114,o),
(706,149,o),
(702,212,c)
);
}
);
width = 1943;
}
);
note = llauuvowelsigntamil;
},
{
glyphname = lllaiivowelsigntamil;
layers = (
{
anchors = (
{
name = bottom;
pos = (484,-29);
},
{
name = top;
pos = (299,-29);
}
);
layerId = m01;
shapes = (
{
closed = 1;
nodes = (
(527,851,o),
(447,729,o),
(447,632,cs),
(447,583,o),
(455,547,o),
(473,510,c),
(617,536,l),
(605,562,o),
(598,586,o),
(598,616,cs),
(598,652,o),
(611,677,o),
(631,697,c),
(635,623,o),
(681,576,o),
(797,576,cs),
(915,576,o),
(976,626,o),
(976,707,cs),
(976,792,o),
(906,851,o),
(755,851,cs)
);
},
{
closed = 1;
nodes = (
(412,-123,ls),
(366,-87,o),
(327,-52,o),
(295,-12,c),
(201,-20,o),
(108,-27,o),
(58,0,c),
(31,35,o),
(21,83,o),
(20,133,cs),
(16,243,o),
(82,345,o),
(82,433,cs),
(82,456,o),
(77,479,o),
(65,500,c),
(141,500,l),
(152,479,o),
(156,452,o),
(156,428,cs),
(155,410,ls),
(155,364,o),
(135,314,o),
(125,284,cs),
(111,245,o),
(99,185,o),
(99,129,cs),
(99,113,o),
(100,98,o),
(102,83,c),
(136,69,o),
(186,71,o),
(242,77,c),
(228,112,o),
(220,152,o),
(220,197,cs),
(220,327,o),
(295,496,o),
(440,500,cs),
(581,504,o),
(617,375,o),
(612,260,c),
(600,130,o),
(550,111,o),
(519,-19,c),
(486,-5,o),
(437,-4,o),
(383,-6,c),
(422,-44,o),
(471,-75,o),
(521,-99,cs),
(565,-121,o),
(610,-126,o),
(652,-131,cs),
(684,-135,o),
(699,-141,o),
(713,-149,c),
(713,-183,o),
(684,-208,o),
(657,-226,c),
(447,-151,o),
(362,-303,o),
(186,-273,c),
(176,-269,o),
(107,-181,o),
(148,-151,c),
(261,-195,o),
(380,-144,o),
(437,-144,c)
);
},
{
closed = 1;
nodes = (
(317,84,ls),
(367,88,o),
(418,90,o),
(460,77,c),
(485,114,o),
(510,169,o),
(519,213,cs),
(567,467,o),
(332,467,o),
(296,235,cs),
(287,178,o),
(296,128,o),
(317,84,cs),
(333,50,o),
(355,21,o),
(383,-6,c),
(356,-7,o),
(324,-10,o),
(295,-12,c),
(273,15,o),
(255,44,o),
(242,77,c)
);
},
{
closed = 1;
nodes = (
(746,725,o),
(748,735,o),
(751,743,c),
(760,744,o),
(767,744,o),
(774,744,cs),
(809,744,o),
(834,733,o),
(834,706,cs),
(834,684,o),
(821,669,o),
(793,669,cs),
(761,669,o),
(746,684,o),
(746,715,cs)
);
}
);
width = 968;
}
);
note = lllaiivowelsigntamil;
},
{
glyphname = lllauvowelsigntamil;
layers = (
{
anchors = (
{
name = bottom;
pos = (688,-29);
},
{
name = top;
pos = (688,-29);
}
);
layerId = m01;
shapes = (
{
closed = 1;
nodes = (
(285,626,o),
(113,464,o),
(113,224,cs),
(113,32,o),
(256,-131,o),
(366,-164,cs),
(478,-194,o),
(575,-149,o),
(632,-144,c),
(607,-123,ls),
(561,-87,o),
(522,-52,o),
(490,-12,cs),
(468,15,o),
(450,44,o),
(437,77,c),
(514,84,l),
(530,50,o),
(552,21,o),
(580,-6,c),
(552,-7,o),
(520,-10,o),
(490,-12,cs),
(396,-20,o),
(303,-27,o),
(253,0,c),
(226,35,o),
(216,83,o),
(215,133,cs),
(210,273,o),
(317,399,o),
(260,500,c),
(336,500,l),
(350,473,o),
(352,437,o),
(350,410,cs),
(350,364,o),
(330,314,o),
(320,284,cs),
(302,234,o),
(287,149,o),
(297,83,c),
(331,69,o),
(381,71,o),
(437,77,c),
(423,112,o),
(415,152,o),
(415,197,cs),
(417,327,o),
(490,496,o),
(635,500,c),
(776,496,o),
(812,375,o),
(807,260,c),
(795,130,o),
(745,111,o),
(714,-19,c),
(683,-6,o),
(633,-4,o),
(580,-6,c),
(618,-43,o),
(666,-74,o),
(716,-99,cs),
(761,-119,o),
(805,-126,o),
(847,-131,cs),
(879,-135,o),
(894,-141,o),
(908,-149,c),
(908,-183,o),
(879,-208,o),
(852,-226,c),
(642,-151,o),
(535,-272,o),
(359,-242,cs),
(151,-208,o),
(30,65,o),
(30,224,cs),
(30,485,o),
(261,728,o),
(518,715,c),
(592,715,o),
(623,688,o),
(690,680,cs),
(738,676,o),
(785,685,o),
(833,714,c),
(855,703,o),
(848,633,o),
(809,588,cs),
(767,537,o),
(688,567,o),
(572,612,cs),
(549,621,o),
(522,626,o),
(497,626,cs)
);
},
{
closed = 1;
nodes = (
(484,179,o),
(493,128,o),
(514,84,c),
(564,88,o),
(615,89,o),
(655,77,c),
(680,114,o),
(705,169,o),
(714,213,cs),
(762,467,o),
(531,466,o),
(491,235,c)
);
}
);
width = 928;
}
);
note = lllauvowelsigntamil;
},
{
glyphname = lllauuvowelsigntamil;
layers = (
{
anchors = (
{
name = bottom;
pos = (724,-29);
},
{
name = top;
pos = (724,-29);
}
);
layerId = m01;
shapes = (
{
closed = 1;
nodes = (
(1125,-9,o),
(1100,-11,o),
(1075,-15,c),
(1075,0,l),
(1198,0,o),
(1267,15,o),
(1322,57,cs),
(1377,98,o),
(1410,166,o),
(1410,275,cs),
(1410,445,o),
(1325,581,o),
(1121,581,cs),
(1056,581,o),
(995,563,o),
(955,528,cs),
(913,492,o),
(890,442,o),
(890,351,cs),
(890,130,l),
(738,130,l),
(738,569,l),
(548,569,l),
(548,0,l),
(890,0,l),
(890,-140,l),
(1075,-140,l),
(1075,-115,l),
(1083,-114,o),
(1093,-113,o),
(1103,-113,cs),
(1131,-113,o),
(1140,-120,o),
(1140,-135,cs),
(1140,-175,o),
(1041,-187,o),
(907,-187,cs),
(845,-187,ls),
(511,-187,o),
(215,-107,o),
(215,228,c),
(245,217,o),
(279,213,o),
(311,213,cs),
(473,213,o),
(519,291,o),
(519,403,cs),
(519,497,o),
(458,581,o),
(315,581,cs),
(159,581,o),
(43,448,o),
(43,230,cs),
(43,-211,o),
(436,-321,o),
(816,-321,cs),
(881,-321,ls),
(1072,-321,o),
(1311,-298,o),
(1311,-140,cs),
(1311,-38,o),
(1222,-9,o),
(1142,-9,cs)
);
},
{
closed = 1;
nodes = (
(1197,451,o),
(1222,385,o),
(1222,276,cs),
(1222,166,o),
(1183,130,o),
(1096,130,cs),
(1080,130,l),
(1080,356,ls),
(1080,402,o),
(1083,418,o),
(1097,434,cs),
(1106,445,o),
(1121,451,o),
(1137,451,cs)
);
},
{
closed = 1;
nodes = (
(246,419,o),
(274,455,o),
(312,455,cs),
(331,455,o),
(356,444,o),
(356,401,cs),
(356,352,o),
(326,339,o),
(297,339,cs),
(276,339,o),
(252,346,o),
(230,361,c)
);
}
);
width = 1449;
}
);
note = lllauuvowelsigntamil;
},
{
glyphname = vaiivowelsigntamil;
layers = (
{
anchors = (
{
name = bottom;
pos = (597,-29);
},
{
name = top;
pos = (597,-29);
}
);
layerId = m01;
shapes = (
{
closed = 1;
nodes = (
(449,-12,o),
(521,61,o),
(521,177,cs),
(521,293,o),
(450,355,o),
(335,355,cs),
(294,355,o),
(257,345,o),
(224,329,c),
(252,406,o),
(319,451,o),
(415,451,cs),
(528,451,o),
(601,381,o),
(601,259,cs),
(601,198,o),
(589,142,o),
(564,99,c),
(570,0,l),
(1126,0,l),
(1126,569,l),
(936,569,l),
(936,497,l),
(866,517,o),
(830,551,o),
(830,612,cs),
(830,651,o),
(844,677,o),
(863,696,c),
(867,623,o),
(913,576,o),
(1029,576,cs),
(1147,576,o),
(1208,626,o),
(1208,707,cs),
(1208,791,o),
(1138,851,o),
(987,851,cs),
(759,851,o),
(679,730,o),
(679,613,cs),
(679,490,o),
(778,392,o),
(936,359,c),
(936,130,l),
(762,130,l),
(783,175,o),
(791,236,o),
(791,283,cs),
(791,446,o),
(686,581,o),
(428,581,cs),
(204,581,o),
(37,469,o),
(37,245,cs),
(37,79,o),
(127,-12,o),
(285,-12,cs)
);
},
{
closed = 1;
nodes = (
(231,226,o),
(253,234,o),
(278,234,cs),
(315,234,o),
(340,217,o),
(340,174,cs),
(340,135,o),
(321,114,o),
(283,114,cs),
(236,114,o),
(214,149,o),
(210,212,c)
);
},
{
closed = 1;
nodes = (
(978,725,o),
(980,735,o),
(983,743,c),
(991,744,o),
(998,744,o),
(1006,744,cs),
(1041,744,o),
(1066,733,o),
(1066,706,cs),
(1066,684,o),
(1053,669,o),
(1025,669,cs),
(993,669,o),
(978,684,o),
(978,715,cs)
);
}
);
width = 1194;
}
);
note = vaiivowelsigntamil;
},
